<svg width="226" height="85" viewBox="0 0 226 85" fill="none" xmlns="http://www.w3.org/2000/svg">
<g clip-path="url(#clip0_156_2)">
<mask id="mask0_156_2" style="mask-type:luminance" maskUnits="userSpaceOnUse" x="-44" y="-523" width="1588" height="1123">
<path d="M-44 -523H1543.4V599.52H-44V-523Z" fill="white"/>
</mask>
<g mask="url(#mask0_156_2)">
<path d="M183.169 25.9606H197.277V21.2179H176.348C172.447 21.2179 169.308 24.3513 169.308 28.2606V46.2113C169.308 50.5646 172.825 54.1326 177.207 54.1326H197.277V49.3766H183.169C181.445 49.3766 180.437 48.2379 180.437 46.6753V39.0486H195.728V34.3273H180.437V28.6433C180.437 26.7273 181.353 25.9606 183.169 25.9606ZM125.78 54.1326H137.375V21.2179H125.78V54.1326ZM75.7481 52.5833C67.7014 52.5833 61.1414 46.0366 61.1414 37.9833C61.1414 29.9166 67.7014 23.3633 75.7481 23.3633C83.8374 23.3633 90.3614 29.9166 90.3614 37.9833C90.3614 46.0366 83.8374 52.5833 75.7481 52.5833ZM75.7481 19.4979C65.5427 19.4979 57.3014 27.7659 57.3014 37.9833C57.3014 48.1753 65.5427 56.4393 75.7481 56.4393C85.9547 56.4393 94.2321 48.1753 94.2321 37.9833C94.2321 27.7659 85.9547 19.4979 75.7481 19.4979ZM155.86 46.7353V21.2179H144.257V46.2113C144.257 50.5646 147.831 54.1326 152.183 54.1326H167.179V49.3766H158.48C156.76 49.3766 155.86 48.5113 155.86 46.7353Z" fill="#BE8A44"/>
<path d="M27.8113 29.113V54.133H39.9433V39.389H54.1473V34.665H39.9433V29.441C39.9433 26.8743 40.7046 25.9357 43.4739 25.9357H55.8606V21.2183H35.6806C31.3286 21.2183 27.8113 24.7383 27.8113 29.113Z" fill="#BE8A44"/>
<path d="M92.7142 25.9606H102.034V54.1326H113.625V25.9606H122.964V21.2179H92.7142V25.9606Z" fill="#BE8A44"/>
<path d="M41.8829 61.0791C41.3749 61.7458 40.0082 63.3204 37.8135 67.6751C35.5735 72.0311 35.4295 73.1591 35.2549 73.6671C35.0802 74.1924 34.6829 74.4778 34.3482 74.0164C34.0149 73.5711 34.1415 72.6498 34.6349 71.5684C34.8415 71.1071 35.2869 69.8364 35.8429 68.3591C34.0149 68.8671 32.3149 68.6764 31.0109 68.7231C30.9002 68.8991 30.8522 69.0738 30.7402 69.2484C29.1669 72.5218 29.0722 73.4924 29.0242 73.7471C29.0082 73.9858 28.9282 74.2711 28.5949 74.2231C28.2455 74.1751 27.6575 73.5884 28.1175 72.0778C28.3082 71.4578 28.8335 70.2178 29.4535 68.8351C28.8642 68.8831 28.5162 68.9151 28.2775 68.9631C27.9749 69.0098 27.6722 68.7084 27.8802 68.2778C28.1815 67.6751 28.5482 67.5484 30.0575 67.4991C30.8202 65.8471 31.5509 64.2578 31.8535 63.6684C32.4895 62.4444 33.2682 60.6964 33.8082 60.5218C34.0949 60.4418 35.2549 60.9978 35.0322 61.4924C34.8575 61.8884 33.1242 64.7031 31.6469 67.4844C32.9495 67.4364 34.1735 67.2764 36.2562 66.8484C36.3042 66.8004 36.3829 66.7844 36.4629 66.7844C37.0509 65.2738 37.6869 63.8284 38.2589 62.8898C39.5935 60.7284 40.2615 59.7911 40.6429 59.8711C41.0095 59.9498 42.1695 60.5218 42.1695 60.7138C42.2162 60.9031 42.0095 60.9031 41.8829 61.0791Z" fill="#BE8A44"/>
<path d="M59.1466 70.3214C58.7493 70.4974 57.9226 70.736 57.2866 70.9427C56.9053 71.3227 56.4599 71.6734 55.9679 71.9427C54.5679 72.7534 53.9173 73.2147 53.4079 72.372C52.8999 71.5147 54.5053 70.2907 56.5079 69.8134C56.9533 69.496 57.0639 68.9067 56.7933 68.6534C56.6986 68.5574 55.6813 68.7 53.4719 71.132L53.2493 71.3707C52.6146 72.9454 50.6106 77.0147 50.4199 77.5854C50.1813 78.2694 50.1333 78.62 49.7679 78.508C49.3706 78.412 48.8306 77.824 49.4986 76.696C50.0079 75.852 51.7719 71.5147 52.4706 69.7814L52.2799 69.8454C51.8986 70.0187 50.4519 70.56 49.7213 70.9427C49.3399 71.3227 48.8946 71.6734 48.4013 71.9427C47.0026 72.7534 46.3506 73.2147 45.8426 72.372C45.3346 71.5147 46.9386 70.2907 48.9426 69.8134C49.3879 69.496 49.4986 68.9067 49.2279 68.6534C49.1333 68.5574 48.1159 68.7 45.9053 71.132L45.6826 71.3707C45.0479 72.96 42.7906 77.6494 42.5999 78.2214C42.3613 78.904 42.3133 79.2547 41.9479 79.144C41.5666 79.0654 41.3119 78.0307 41.6773 77.332C42.2026 76.2667 45.1266 69.1934 45.3813 68.684C45.5879 68.1774 45.9373 67.7787 46.1279 67.7307C46.6373 67.652 46.9546 68.1134 47.1466 68.3027C47.1773 68.336 47.1613 68.4307 47.0986 68.5894C47.7493 68.08 48.0999 67.604 49.0853 67.476C50.4199 67.3014 50.9279 67.8427 50.8813 68.876C50.8813 69.0667 50.8173 69.304 50.6746 69.6067C51.0399 69.5267 52.0093 69.2894 52.7253 69.1614C52.7399 69.1147 52.7399 69.0974 52.7573 69.0814C52.9639 68.572 53.3133 68.1774 53.5039 68.128C54.0119 68.0494 54.3293 68.5107 54.5213 68.7C54.5533 68.7334 54.5359 68.828 54.4733 68.9867C55.1093 68.4774 55.7919 67.7307 56.6506 67.476C57.9386 67.096 58.4946 67.8427 58.4466 68.876C58.4466 69.0667 58.3839 69.304 58.2399 69.6067C58.7813 69.4787 60.0199 69.448 60.3866 69.6547C60.7999 69.908 59.7026 70.0987 59.1466 70.3214Z" fill="#BE8A44"/>
<path d="M61.6811 67.0791C61.4744 66.7151 61.3157 66.0618 61.5544 65.9831C61.8237 65.8871 62.4117 65.7284 62.4917 65.7284C62.7624 65.6804 62.9677 66.2058 63.1744 66.4431C63.3664 66.6818 63.0797 66.7764 62.8251 66.9844C62.5704 67.1911 61.8557 67.4618 61.6811 67.0791ZM64.7957 70.0844C64.2717 70.5444 61.3944 72.7071 60.7904 72.8484C60.1864 73.0244 59.5664 72.4684 59.6464 71.5618C59.7264 70.7031 60.4411 69.0191 60.8704 68.5098C61.2997 67.9858 61.4104 67.9858 61.5384 67.9858C61.8397 67.9858 62.4597 68.6684 62.4117 68.9231C62.3957 69.1778 62.2851 69.1938 61.9837 69.3684C61.7131 69.5751 60.6637 71.5778 61.1251 71.4498C61.5851 71.3231 64.0651 69.9404 64.6051 69.6071C65.1624 69.2738 65.3211 69.6071 64.7957 70.0844Z" fill="#BE8A44"/>
<path d="M66.9421 67.5244C66.8461 67.6524 66.2421 68.3671 65.4794 70.5764C66.7674 69.6391 68.4834 67.5564 69.1514 67.6044C69.8341 67.6524 70.1207 68.1284 69.7554 68.9391C69.3741 69.7804 69.1981 71.2124 69.6114 71.0857C70.0261 70.9577 71.1381 70.3057 71.6314 69.9724C72.1234 69.6857 71.9167 70.4484 71.0261 71.2444C70.1367 72.0537 69.5007 72.6737 68.7061 72.5484C67.9114 72.4204 67.8634 70.0684 68.3727 69.2244C68.1501 69.0991 66.8141 70.8471 65.8767 71.8804C64.9074 72.8964 64.5567 73.0084 64.1287 72.9604C63.7314 72.9124 63.3821 71.7364 63.6367 71.3391C63.8901 70.9097 64.0807 70.7991 64.5567 69.5431C65.0181 68.3671 65.4474 67.2071 65.5434 66.9844C65.6541 66.7457 66.0834 66.6031 66.6394 66.9044C66.8781 67.0324 67.0527 67.3497 66.9421 67.5244Z" fill="#BE8A44"/>
<path d="M73.2833 69.9567C73.5699 69.8767 74.2046 69.5914 74.2846 69.1941C73.7913 69.3834 73.6006 69.5754 73.2833 69.9567ZM76.9553 70.7194C76.4779 71.0221 73.7126 72.4687 72.5993 72.7221C71.4553 72.9767 70.9939 72.0874 71.1219 71.4501C71.2486 70.8154 71.8846 69.4954 72.7433 68.6847C73.5539 67.9221 74.2219 67.8114 74.5553 67.8581C75.0006 67.9061 75.6193 68.6367 75.6993 69.2887C75.7473 69.9407 74.7779 70.4647 74.1419 70.7661C73.5219 71.0527 72.9806 71.4501 72.5673 70.7821C72.4406 70.9581 72.1713 71.4981 72.9979 71.4501C73.8086 71.4034 75.6833 70.7661 76.7953 70.1154C77.8939 69.4807 77.4166 70.4181 76.9553 70.7194Z" fill="#BE8A44"/>
<path d="M91.7846 62.8878C90.7553 63.5851 87.8259 65.1918 87.1699 66.6024C86.7886 67.4398 87.3953 67.6904 88.2246 68.0264C89.0513 68.3758 89.8793 68.7118 90.3726 69.2824C90.7659 69.7384 90.9633 70.3571 90.7619 70.9264C90.3233 72.2211 87.9793 74.1531 86.2019 73.9678C84.062 73.7424 84.9139 72.1691 85.6953 71.4771C86.4739 70.7891 88.0259 69.7278 88.2966 69.6451C88.5979 69.5531 88.4833 69.7704 87.8353 70.4291C87.2046 71.0611 85.4126 72.8638 85.9126 72.9264C86.55 73.0504 88.4299 72.4038 89.4139 70.6851C89.6833 70.2691 89.7593 69.9024 89.5926 69.7211C89.3366 69.4571 88.8739 69.2104 88.5433 69.0678C87.9499 68.8331 86.0446 68.1731 85.8086 67.0411C85.494 65.6238 86.7286 64.3424 87.8086 63.4758C88.8606 62.6078 91.5353 60.7091 91.8593 60.5611C92.2073 60.4451 92.9086 60.4038 93.4099 60.6838C94.1673 61.1264 93.8353 62.2744 93.3646 62.2144C93.0486 62.1758 92.7833 62.2144 91.7846 62.8878Z" fill="#BE8A44"/>
<path d="M104.606 70.5283C104.339 70.5283 103.658 70.3056 103.732 69.9056C103.776 69.5056 103.495 69.403 103.184 69.5656C103.08 69.6243 102.814 69.743 102.532 69.8763C102.236 70.4096 102.044 70.7936 101.926 71.1936C101.6 71.9936 101.955 72.4083 100.934 72.955C100.519 73.1776 100.192 73.2083 100.03 72.7936C99.6602 71.8603 101.172 69.607 101.364 69.1323C101.572 68.6443 101.514 68.3576 101.839 68.1056C102.312 67.7656 102.43 67.7696 102.734 67.9403C103.051 68.119 103.628 67.8776 103.126 68.811C103.716 68.395 104.324 67.9803 104.606 67.9803C105.094 67.9803 104.754 68.8256 104.828 69.4923C104.902 70.187 104.887 70.5283 104.606 70.5283Z" fill="#BE8A44"/>
<path d="M78.7885 67.7367C78.8859 67.7647 78.9792 67.842 79.0672 67.9714C79.1565 68.0994 79.1552 68.194 79.0645 68.2554C78.7965 68.4247 78.4445 68.7234 78.0072 69.1514C77.5699 69.578 77.3192 69.8167 77.2579 69.8647C77.5619 69.9487 77.9992 70.038 78.5725 70.13C78.7779 70.1594 78.9645 70.214 79.1325 70.2954C79.2992 70.3754 79.4219 70.482 79.5019 70.6167C79.5805 70.7527 79.5752 70.898 79.4832 71.0554C79.4445 71.1247 79.3939 71.19 79.3325 71.2527C79.2699 71.3154 79.1925 71.374 79.0992 71.4274C79.0072 71.482 78.9272 71.5274 78.8579 71.5634C78.7885 71.6007 78.6912 71.65 78.5659 71.7087C78.4392 71.7674 78.3499 71.8127 78.2952 71.8407C78.1779 71.9007 77.9272 72.0207 77.5419 72.198C77.1579 72.3754 76.8765 72.5154 76.6965 72.6194C76.5765 72.69 76.4432 72.7207 76.2965 72.7087C76.1499 72.698 76.0392 72.646 75.9659 72.554C75.8925 72.4647 75.8939 72.3554 75.9699 72.2274C76.0885 72.042 76.2819 71.8687 76.5499 71.7047C76.8179 71.5394 77.0792 71.4114 77.3325 71.322C77.5845 71.234 77.8645 71.1407 78.1739 71.042C78.4832 70.9434 78.6859 70.874 78.7845 70.83C78.2565 70.73 77.7645 70.6034 77.3099 70.4567C76.9019 70.3754 76.5979 70.262 76.3965 70.114C76.3659 70.1034 76.3352 70.0927 76.3045 70.082C76.2645 70.0594 76.2325 70.01 76.2085 69.9354C76.1072 69.7994 76.0712 69.6447 76.1019 69.4727C76.1312 69.2994 76.2072 69.1274 76.3312 68.9567C76.4552 68.786 76.6125 68.6154 76.8032 68.446C76.9952 68.2767 77.1925 68.122 77.3979 67.986C77.6019 67.8474 77.8059 67.722 78.0085 67.6114C78.1659 67.542 78.3165 67.5234 78.4619 67.5554C78.6072 67.5887 78.7165 67.65 78.7885 67.7367Z" fill="#BE8A44"/>
<path d="M81.8465 67.7367C81.9438 67.7647 82.0371 67.842 82.1265 67.9714C82.2145 68.0994 82.2131 68.194 82.1225 68.2554C81.8558 68.4247 81.5038 68.7234 81.0665 69.1514C80.6278 69.578 80.3785 69.8167 80.3158 69.8647C80.6198 69.9487 81.0585 70.038 81.6305 70.13C81.8371 70.1594 82.0225 70.214 82.1905 70.2954C82.3571 70.3754 82.4798 70.482 82.5598 70.6167C82.6398 70.7527 82.6331 70.898 82.5411 71.0554C82.5025 71.1247 82.4531 71.19 82.3905 71.2527C82.3291 71.3154 82.2518 71.374 82.1585 71.4274C82.0651 71.482 81.9851 71.5274 81.9158 71.5634C81.8465 71.6007 81.7505 71.65 81.6238 71.7087C81.4971 71.7674 81.4078 71.8127 81.3545 71.8407C81.2358 71.9007 80.9851 72.0207 80.6011 72.198C80.2171 72.3754 79.9345 72.5154 79.7545 72.6194C79.6345 72.69 79.5011 72.7207 79.3545 72.7087C79.2078 72.698 79.0985 72.646 79.0251 72.554C78.9518 72.4647 78.9531 72.3554 79.0278 72.2274C79.1465 72.042 79.3398 71.8687 79.6078 71.7047C79.8758 71.5394 80.1371 71.4114 80.3905 71.322C80.6425 71.234 80.9238 71.1407 81.2318 71.042C81.5411 70.9434 81.7438 70.874 81.8438 70.83C81.3158 70.73 80.8225 70.6034 80.3691 70.4567C79.9598 70.3754 79.6558 70.262 79.4558 70.114C79.4238 70.1034 79.3945 70.0927 79.3638 70.082C79.3238 70.0594 79.2905 70.01 79.2665 69.9354C79.1651 69.7994 79.1291 69.6447 79.1598 69.4727C79.1891 69.2994 79.2651 69.1274 79.3905 68.9567C79.5131 68.786 79.6718 68.6154 79.8611 68.446C80.0531 68.2767 80.2505 68.122 80.4558 67.986C80.6598 67.8474 80.8638 67.722 81.0665 67.6114C81.2238 67.542 81.3745 67.5234 81.5211 67.5554C81.6665 67.5887 81.7745 67.65 81.8465 67.7367Z" fill="#BE8A44"/>
<path d="M110.327 67.9646C110.434 67.9939 110.535 68.0806 110.632 68.2206C110.728 68.3606 110.727 68.4632 110.628 68.5299C110.336 68.7139 109.952 69.0419 109.475 69.5072C108.996 69.9739 108.724 70.2326 108.656 70.2859C108.988 70.3792 109.467 70.4752 110.091 70.5766C110.316 70.6086 110.519 70.6686 110.702 70.7566C110.883 70.8432 111.019 70.9606 111.104 71.1072C111.191 71.2552 111.186 71.4152 111.086 71.5872C111.043 71.6606 110.988 71.7326 110.92 71.8006C110.854 71.8699 110.768 71.9339 110.667 71.9926C110.566 72.0499 110.478 72.1019 110.403 72.1406C110.327 72.1819 110.222 72.2339 110.084 72.2979C109.946 72.3632 109.848 72.4112 109.79 72.4419C109.66 72.5086 109.386 72.6392 108.967 72.8312C108.548 73.0259 108.24 73.1792 108.044 73.2926C107.912 73.3712 107.768 73.4032 107.607 73.3899C107.448 73.3792 107.327 73.3219 107.247 73.2219C107.167 73.1232 107.168 73.0046 107.251 72.8659C107.38 72.6632 107.591 72.4726 107.883 72.2939C108.176 72.1139 108.462 71.9752 108.738 71.8792C109.014 71.7806 109.319 71.6779 109.656 71.5712C109.992 71.4646 110.215 71.3872 110.323 71.3406C109.747 71.2299 109.21 71.0952 108.714 70.9339C108.27 70.8446 107.938 70.7192 107.716 70.5579C107.684 70.5472 107.65 70.5366 107.616 70.5246C107.575 70.4979 107.539 70.4459 107.511 70.3646C107.402 70.2152 107.362 70.0472 107.395 69.8592C107.427 69.6686 107.511 69.4819 107.646 69.2952C107.78 69.1086 107.952 68.9246 108.16 68.7379C108.37 68.5526 108.586 68.3846 108.808 68.2352C109.032 68.0859 109.254 67.9486 109.475 67.8272C109.648 67.7512 109.812 67.7312 109.971 67.7672C110.131 67.8032 110.248 67.8699 110.327 67.9646Z" fill="#BE8A44"/>
<path d="M105.953 73.2613C105.634 73.2613 105.381 73.2707 104.957 72.852C104.878 72.776 104.791 72.5147 104.771 72.4067C104.753 72.2933 104.738 72.1747 104.738 72.0987C104.738 71.728 104.797 71.3827 104.978 70.9547C105.278 70.144 105.623 69.4053 105.971 68.608L106.805 66.8893C106.075 67.0627 105.513 67.2413 105.119 67.4267C105.039 67.4733 104.953 67.4973 104.859 67.4973C104.757 67.4973 104.657 67.44 104.565 67.3227C104.414 67.1147 104.339 66.8893 104.339 66.6453L104.357 66.4547C104.911 66.316 105.455 66.172 105.989 66.02C106.427 65.8947 106.873 65.772 107.325 65.656C107.441 65.6213 107.534 65.5467 107.603 65.4307L108.385 64.0933C108.477 63.9547 108.581 63.8853 108.697 63.8853C109.218 63.9427 109.478 64.1267 109.478 64.4413C109.478 64.5453 109.397 64.7253 109.235 64.9787L109.183 65.0827C109.253 65.1187 109.298 65.1347 109.322 65.1347C109.646 65.0667 109.883 65.0307 110.034 65.0307C110.37 65.0307 110.583 65.2293 110.677 65.6213C110.677 65.8307 110.306 65.9853 109.565 66.0907L109.149 66.1773C108.721 66.224 108.395 66.4493 108.175 66.8533L107.638 67.9307C107.243 68.66 106.867 69.464 106.509 70.344C106.323 70.7773 106.151 71.2173 106.022 71.6707C105.946 71.9307 105.757 72.3213 105.978 72.492C106.102 72.5853 106.539 72.4227 106.595 72.376C106.758 72.248 106.925 72.156 107.099 72.0987C107.169 72.0987 107.203 72.144 107.203 72.236C106.798 72.908 106.335 73.2613 105.953 73.2613Z" fill="#BE8A44"/>
<path d="M93.209 73.2381C92.8904 73.2381 92.637 73.2487 92.213 72.8301C92.1357 72.7554 92.0477 72.4927 92.029 72.3847C92.009 72.2714 91.9944 72.1514 91.9944 72.0754C91.9944 71.7061 92.053 71.3607 92.2344 70.9327C92.5344 70.1221 92.8797 69.3834 93.2277 68.5861L94.061 66.8674C93.3317 67.0407 92.7704 67.2194 92.377 67.4047C92.2957 67.4501 92.209 67.4741 92.117 67.4741C92.013 67.4741 91.913 67.4167 91.821 67.3007C91.6704 67.0927 91.5957 66.8674 91.5957 66.6234L91.613 66.4327C92.1677 66.2941 92.7117 66.1501 93.245 65.9981C93.6837 65.8714 94.1304 65.7501 94.5824 65.6341C94.6984 65.5994 94.7904 65.5234 94.8597 65.4087L95.641 64.0714C95.7344 63.9327 95.837 63.8634 95.9544 63.8634C96.4744 63.9207 96.7357 64.1061 96.7357 64.4194C96.7357 64.5221 96.653 64.7034 96.4917 64.9567L96.4397 65.0607C96.509 65.0954 96.5557 65.1127 96.5784 65.1127C96.9024 65.0434 97.1397 65.0087 97.2904 65.0087C97.6264 65.0087 97.8397 65.2061 97.933 65.5994C97.933 65.8074 97.5624 65.9647 96.821 66.0674L96.405 66.1554C95.977 66.2021 95.653 66.4274 95.4317 66.8314L94.8944 67.9087C94.501 68.6381 94.125 69.4421 93.765 70.3207C93.5797 70.7554 93.409 71.1954 93.2784 71.6487C93.2037 71.9087 93.013 72.3007 93.2357 72.4701C93.3584 72.5647 93.7957 72.4007 93.8517 72.3541C94.0144 72.2261 94.1824 72.1341 94.3557 72.0754C94.4264 72.0754 94.4597 72.1221 94.4597 72.2141C94.0544 72.8861 93.5917 73.2381 93.209 73.2381Z" fill="#BE8A44"/>
<path d="M44.5626 70.1728C43.392 70.6594 43.6693 70.5074 42.5413 71.0888C42.2893 71.2194 42.036 71.3488 41.7893 71.4874C41.5786 71.6048 41.3653 71.7488 41.116 71.7621C41.1173 71.5141 41.244 71.2394 41.3386 71.0141C41.4426 70.7688 41.5586 70.5301 41.648 70.2794C41.7066 70.1168 41.78 69.9448 41.808 69.7714C41.8266 69.6488 41.7093 69.4834 41.4586 69.2768C41.1946 69.0688 41.04 69.0208 40.996 69.1314C40.9426 69.2794 40.6893 69.6248 40.2373 70.1648C39.9 70.5568 39.588 70.8981 39.2946 71.1888C39.0493 71.4301 38.8973 71.5514 38.8373 71.5541C38.6786 71.5608 38.9266 71.1128 39.5826 70.2101C40.284 69.2341 40.876 68.7354 41.3626 68.7154C41.472 68.7101 41.6266 68.7954 41.828 68.9701C41.8906 69.0034 41.9266 69.0141 41.94 69.0008C41.9613 68.9648 41.972 68.9208 41.9706 68.8714C41.9653 68.7394 41.8773 68.5421 41.708 68.2808C41.4746 67.9154 41.212 67.7368 40.9213 67.7488C40.3986 67.7701 39.7893 68.1661 39.092 68.9368C38.7226 69.3488 38.3693 69.7874 38.1 70.2728C37.9133 70.6114 37.74 71.0088 37.7573 71.4034C37.7853 72.0634 38.4413 72.8914 39.1733 72.6821C39.552 72.5754 39.8986 72.2634 40.1853 72.0088C40.1493 72.0408 40.2106 72.2634 40.224 72.3114C40.332 72.7154 40.6786 73.0261 41.096 73.0741C41.492 73.1208 41.824 72.8981 42.152 72.7101C42.5066 72.5048 42.8573 72.2928 43.2066 72.0781C43.9066 71.6474 44.0373 71.4208 44.048 71.4141C44.8826 70.8101 45.196 69.9088 44.5626 70.1728Z" fill="#BE8A44"/>
<path d="M101.012 70.4124C99.9258 70.8764 100.183 70.7324 99.1365 71.2831C98.9031 71.4057 98.6698 71.5297 98.4405 71.6604C98.2458 71.7724 98.0471 71.9071 97.8165 71.9231C97.8138 71.6911 97.9298 71.4351 98.0165 71.2231C98.1111 70.9951 98.2165 70.7711 98.2978 70.5364C98.3511 70.3844 98.4178 70.2231 98.4418 70.0617C98.4591 69.9484 98.3498 69.7951 98.1125 69.6044C97.8658 69.4124 97.7218 69.3684 97.6818 69.4724C97.6311 69.6097 97.3991 69.9351 96.9831 70.4417C96.6738 70.8097 96.3831 71.1297 96.1138 71.4031C95.8885 71.6297 95.7458 71.7444 95.6898 71.7484C95.5431 71.7551 95.7711 71.3351 96.3738 70.4911C97.0178 69.5737 97.5671 69.1044 98.0178 69.0817C98.1205 69.0764 98.2658 69.1537 98.4551 69.3151C98.5125 69.3457 98.5471 69.3551 98.5591 69.3431C98.5791 69.3084 98.5885 69.2684 98.5871 69.2217C98.5805 69.0991 98.4978 68.9151 98.3378 68.6737C98.1165 68.3351 97.8711 68.1711 97.5991 68.1857C97.1138 68.2111 96.5498 68.5844 95.9058 69.3071C95.5658 69.6937 95.2391 70.1057 94.9938 70.5591C94.8205 70.8764 94.6631 71.2484 94.6818 71.6151C94.7151 72.2297 95.3325 72.9951 96.0125 72.7951C96.3645 72.6924 96.6858 72.4004 96.9511 72.1604C96.9178 72.1897 96.9765 72.3977 96.9885 72.4404C97.0925 72.8177 97.4178 73.1031 97.8085 73.1444C98.1765 73.1844 98.4845 72.9737 98.7885 72.7964C99.1178 72.6031 99.4418 72.4017 99.7658 72.1991C100.414 71.7911 100.534 71.5791 100.543 71.5724C101.316 71.0031 101.6 70.1617 101.012 70.4124Z" fill="#BE8A44"/>
<path d="M161.048 66.5361C160.643 66.5881 158.748 67.4428 157.159 68.5935C157.18 69.0588 157.172 69.5548 157.194 70.0188C157.211 71.1161 158.17 71.9121 158.678 71.7548C159.215 71.5815 160.482 70.7961 161.091 70.3815C161.686 69.9668 161.431 70.9775 160.378 71.9401C159.311 72.9175 158.587 73.7095 157.608 73.5588C156.615 73.4068 155.416 71.6228 155.518 70.3908C155.515 70.2548 155.528 70.1041 155.542 69.9681L155.526 69.9695C155.319 70.1975 155.186 70.3201 155.112 70.3655C153.992 72.8455 153.9 73.7201 153.903 73.9135C153.862 74.1561 153.835 74.4268 153.49 74.3868C153.174 74.3455 152.579 73.7988 152.992 72.3055C153.436 70.8268 155.922 65.2908 156.504 64.0801C157.088 62.8988 157.814 61.1761 158.352 61.0041C158.651 60.9081 159.74 61.4495 159.552 61.9321C159.407 62.2801 157.942 64.7348 156.612 67.2935C158.62 65.8508 161.211 64.3108 162.187 64.3415C163.27 64.3855 161.47 66.5908 161.048 66.5361Z" fill="#BE8A44"/>
<path d="M163.938 67.8318C163.826 67.8451 163.726 67.8184 163.656 67.7238C163.556 67.5918 163.645 67.3744 163.698 67.2438C163.885 66.7891 164.273 66.0038 164.873 66.2491C165.038 66.3158 165.373 66.4918 165.373 66.7064C165.373 67.2371 164.396 67.7758 163.938 67.8318ZM166.857 70.2531C166.332 70.7144 163.456 72.8758 162.852 73.0198C162.248 73.1931 161.628 72.6371 161.706 71.7318C161.786 70.8731 162.501 69.1891 162.932 68.6811C163.36 68.1558 163.472 68.1558 163.598 68.1558C163.9 68.1558 164.521 68.8384 164.472 69.0931C164.457 69.3478 164.345 69.3624 164.044 69.5384C163.773 69.7464 162.724 71.7478 163.185 71.6211C163.646 71.4931 166.126 70.1104 166.666 69.7771C167.222 69.4438 167.382 69.7771 166.857 70.2531Z" fill="#BE8A44"/>
<path d="M174.423 67.8214C174.677 68.3147 174.581 68.584 174.312 68.5694C174.073 68.5694 174.089 68.0134 173.405 68.4427C172.707 68.8547 171.355 70.412 171.101 71.096C170.847 71.78 171.068 72.304 172.229 71.9227C173.437 71.5414 175.853 70.3014 177.379 69.2374C177.681 69.0454 177.777 69.2854 177.316 69.904C176.887 70.508 172.309 73.1627 171.323 73.2907C170.576 73.4014 169.924 72.8934 169.685 72.304C169.448 71.716 169.321 71.1907 169.685 70.492C170.02 69.7774 172.039 67.488 172.849 67.296C173.295 67.2014 174.168 67.3134 174.423 67.8214Z" fill="#BE8A44"/>
<path d="M181.161 63.0218C181.05 63.1804 177.918 68.6484 177.076 71.0804C178.221 69.7284 180.621 68.2191 181.384 68.2671C182.13 68.3151 182.449 68.8391 182.05 69.7444C181.622 70.6511 181.478 71.0804 181.972 70.9378C182.433 70.8098 183.657 70.0791 184.197 69.7138C184.738 69.3804 184.5 70.2378 183.529 71.1284C182.544 72.0178 181.845 72.6858 180.97 72.5578C180.097 72.4324 179.969 70.9858 180.525 70.0484C180.288 69.8871 178.904 70.6831 177.856 71.8111C176.79 72.9551 176.106 73.7031 175.661 73.6551C175.185 73.6071 174.852 72.3204 175.105 71.8591C175.36 71.3978 177.838 66.5338 178.538 65.2631C179.254 63.9911 179.842 62.6564 179.921 62.4178C180.033 62.1791 180.24 62.0204 180.828 62.3538C181.066 62.4818 181.272 62.8458 181.161 63.0218Z" fill="#BE8A44"/>
<path d="M185.66 70.126C185.946 70.0474 186.582 69.762 186.662 69.3634C186.168 69.554 185.979 69.7447 185.66 70.126ZM189.332 70.8887C188.855 71.1914 186.09 72.638 184.976 72.8927C183.832 73.1474 183.372 72.2567 183.499 71.6207C183.627 70.9847 184.262 69.6647 185.119 68.8554C185.931 68.0927 186.599 67.982 186.932 68.0287C187.378 68.0754 187.996 68.8074 188.076 69.4594C188.124 70.11 187.155 70.6354 186.519 70.9367C185.899 71.2234 185.358 71.6207 184.946 70.9527C184.818 71.1287 184.548 71.6687 185.375 71.6207C186.186 71.5727 188.06 70.9367 189.174 70.286C190.271 69.65 189.794 70.5887 189.332 70.8887Z" fill="#BE8A44"/>
<path d="M192.208 67.6949C192.114 67.8216 191.51 68.5376 190.747 70.7469C192.034 69.8083 193.751 67.7256 194.419 67.7736C195.102 67.8216 195.387 68.2976 195.022 69.1096C194.64 69.9509 194.466 71.3829 194.879 71.2549C195.292 71.1269 196.404 70.4763 196.898 70.1416C197.39 69.8563 197.183 70.6189 196.294 71.4136C195.403 72.2243 194.767 72.8443 193.972 72.7176C193.179 72.5909 193.131 70.2376 193.639 69.3949C193.416 69.2683 192.082 71.0163 191.144 72.0496C190.174 73.0669 189.824 73.1776 189.395 73.1309C188.998 73.0829 188.648 71.9056 188.903 71.5096C189.156 71.0803 189.347 70.9696 189.824 69.7136C190.286 68.5376 190.715 67.3776 190.81 67.1549C190.922 66.9163 191.35 66.7723 191.906 67.0749C192.146 67.2016 192.32 67.5189 192.208 67.6949Z" fill="#BE8A44"/>
<path d="M121.733 67.8616C121.701 67.9443 121.651 68.0203 121.603 68.0936C121.124 68.827 120.769 69.5536 120.505 70.3616C120.461 70.495 120.621 70.599 120.724 70.5056C121.488 69.827 122.231 69.199 123.003 68.499C123.211 68.311 123.427 68.1176 123.688 68.019C124.311 67.783 124.813 68.2523 124.703 68.883C124.653 69.159 124.524 69.411 124.427 69.6723C124.253 70.1336 124.176 70.6283 124.197 71.1203C124.204 71.251 124.245 71.415 124.375 71.4363C124.433 71.4456 124.491 71.419 124.543 71.3936C125.207 71.0803 125.847 70.719 126.456 70.3096C126.515 70.271 126.58 70.2283 126.657 70.2803C126.735 70.335 126.751 70.447 126.7 70.5283C126.139 71.4136 125.357 72.1576 124.448 72.6776C124.085 72.8843 123.6 73.0456 123.281 72.7763C123.133 72.651 123.061 72.4576 123.008 72.2723C122.755 71.3776 122.811 70.3976 123.164 69.539C121.893 70.5296 121.111 72.0496 119.823 73.019C119.533 73.2376 119.133 73.4283 118.823 73.2376C118.677 73.1496 118.587 72.9923 118.52 72.8336C118.401 72.555 118.335 72.243 118.392 71.9443C118.452 71.6283 118.641 71.355 118.805 71.079C119.459 69.9843 119.771 68.723 120.265 67.5483C120.321 67.4176 120.383 67.2816 120.492 67.1923C120.749 66.9856 121.159 67.1083 121.424 67.235C121.521 67.2816 121.609 67.3483 121.675 67.4363C121.791 67.5936 121.785 67.7336 121.733 67.8616Z" fill="#BE8A44"/>
<path d="M137.206 64.6285C136.446 65.7245 133.9 70.8885 132.978 72.0112C131.123 74.2245 130.184 75.1005 129.792 74.9752C129.412 74.8659 128.56 74.1939 128.654 73.9925C128.812 73.6205 129.598 73.5965 131.56 71.4565C132.687 70.1952 134.216 67.5112 135.382 65.3819C134.402 66.6325 133.243 68.0672 132.807 68.5925C132.106 69.4152 131.771 69.5659 131.342 69.5125C131.01 69.5045 130.483 69.4059 130.31 68.6205C130.168 68.0672 130.02 66.7899 129.875 65.6152C129.791 64.9339 129.699 64.2085 129.624 63.4379C128.951 63.1045 129.444 62.0592 129.768 61.8792C130.09 61.7272 130.32 61.8632 130.691 62.0592C131.9 62.6672 131.779 63.0992 131.666 63.4725C131.6 63.6579 131.656 64.7152 131.734 65.7312C131.768 66.3245 131.824 66.9912 131.89 67.7165C132.25 68.7805 135.646 64.0565 136.406 63.3365L136.506 63.2379C136.778 62.7379 136.93 62.4085 136.984 62.3085C137.279 61.7512 137.756 61.5019 138.031 62.0299C138.306 62.5552 137.951 63.5325 137.206 64.6285Z" fill="#BE8A44"/>
<path d="M138.06 70.9111C138.188 70.7458 138.261 70.3978 138.261 70.0311C137.729 70.5071 137.071 71.3151 137.015 71.4978C136.979 71.7164 137.712 71.4058 138.06 70.9111ZM139.653 70.9671C139.252 72.4498 137.419 73.5324 136.227 73.2738C135.036 73.0364 135.019 71.5338 135.512 70.8378C136.007 70.1418 137.071 68.7858 137.729 68.6391L137.932 68.5844C137.877 68.4924 137.821 68.4191 137.729 68.3644C137.144 67.8871 137.913 67.9604 138.207 68.1618C138.5 68.4004 140.057 69.4818 139.653 70.9671Z" fill="#BE8A44"/>
<path d="M142.583 69.3135C142.225 69.9375 141.387 71.9602 141.755 71.6228C142.125 71.2868 143.837 69.5828 144.225 68.5908C144.379 68.1762 144.461 68.1855 144.734 68.2082C145.023 68.2308 145.994 68.5588 145.775 68.9602C145.555 69.3468 144.649 71.3135 144.523 71.8668C144.353 72.4562 144.578 72.8202 144.325 73.0175C144.086 73.2162 143.857 73.1402 143.491 72.8068C143.111 72.4895 143.197 71.6828 143.277 71.1508C142.466 71.8948 142.055 72.6495 141.221 72.9335C140.367 73.2175 140.061 72.1135 139.986 71.8162C139.913 71.5362 140.839 69.4402 141.037 68.9748C141.233 68.4948 141.29 68.4255 141.667 68.3762C142.031 68.3268 142.354 68.3615 142.601 68.4508C142.75 68.5162 142.959 68.7055 142.583 69.3135Z" fill="#BE8A44"/>
<path d="M149.998 70.514C149.713 70.514 148.981 70.2753 149.059 69.846C149.107 69.418 148.806 69.3073 148.471 69.482C148.361 69.5433 148.075 69.6713 147.773 69.8153C147.454 70.386 147.247 70.8007 147.121 71.23C146.771 72.0887 147.153 72.5327 146.055 73.1207C145.61 73.3593 145.261 73.3913 145.086 72.946C144.689 71.9447 146.422 69.354 146.629 68.8447C146.851 68.3193 146.739 68.082 147.089 67.8127C147.598 67.446 147.805 67.2873 148.043 67.6527C148.249 67.986 148.949 67.6687 148.409 68.67C149.045 68.2247 149.695 67.7793 149.998 67.7793C150.523 67.7793 150.157 68.6873 150.237 69.402C150.315 70.1487 150.301 70.514 149.998 70.514Z" fill="#BE8A44"/>
<path d="M167.706 73.1573C167.341 73.1573 167.05 73.1679 166.562 72.7546C166.473 72.6799 166.373 72.4199 166.351 72.3133C166.329 72.2013 166.311 72.0813 166.311 72.0079C166.311 71.6413 166.378 71.2999 166.586 70.8759C166.931 70.0746 167.329 69.3466 167.727 68.5559L168.685 66.8546C167.846 67.0266 167.202 67.2053 166.75 67.3879C166.657 67.4346 166.558 67.4573 166.451 67.4573C166.331 67.4573 166.218 67.3999 166.113 67.2853C165.939 67.0786 165.853 66.8546 165.853 66.6159L165.873 66.4266C166.511 66.2893 167.135 66.1453 167.747 65.9973C168.253 65.8706 168.765 65.7506 169.282 65.6359C169.415 65.6026 169.522 65.5279 169.601 65.4133L170.499 64.0906C170.605 63.9533 170.725 63.8853 170.858 63.8853C171.455 63.9426 171.755 64.1253 171.755 64.4346C171.755 64.5373 171.661 64.7159 171.475 64.9666L171.415 65.0706C171.495 65.1039 171.549 65.1213 171.575 65.1213C171.947 65.0533 172.219 65.0186 172.393 65.0186C172.778 65.0186 173.023 65.2133 173.13 65.6026C173.13 65.8079 172.705 65.9626 171.854 66.0666L171.375 66.1519C170.885 66.1973 170.511 66.4213 170.259 66.8213L169.642 67.8866C169.189 68.6079 168.758 69.4039 168.345 70.2733C168.131 70.7013 167.935 71.1373 167.786 71.5853C167.699 71.8426 167.481 72.2306 167.735 72.3986C167.878 72.4906 168.381 72.3293 168.446 72.2826C168.631 72.1559 168.823 72.0653 169.023 72.0079C169.103 72.0079 169.143 72.0533 169.143 72.1453C168.678 72.8093 168.145 73.1573 167.706 73.1573Z" fill="#BE8A44"/>
<path d="M120.441 63.6703C119.662 65.0676 119.028 66.525 118.448 67.9996C117.877 69.4543 117.436 70.945 116.869 72.3983C116.752 72.6996 116.61 72.997 116.418 73.2663C116.193 73.581 115.892 73.8596 115.537 74.013C115.23 74.145 114.857 74.121 114.966 73.6983C115.352 72.2143 115.793 70.745 116.316 69.2903C116.582 68.5463 116.868 67.8076 117.165 67.073C117.461 66.349 117.848 65.6263 118.096 64.889C118.206 64.6423 118.321 64.3996 118.444 64.157C118.746 63.5676 119.069 62.9503 119.53 62.4583C119.722 62.2543 119.992 62.009 120.282 62.0276C120.678 62.0543 120.906 62.5156 120.824 62.877C120.774 63.0876 120.664 63.2796 120.553 63.4703C120.517 63.5356 120.478 63.6023 120.441 63.6703Z" fill="#BE8A44"/>
</g>
</g>
<defs>
<clipPath id="clip0_156_2">
<rect width="226" height="85" fill="white"/>
</clipPath>
</defs>
</svg>
