<svg width="10" height="10" viewBox="0 0 10 10" fill="none" xmlns="http://www.w3.org/2000/svg">
<g clip-path="url(#clip0_1_9)">
<path d="M5 0C2.23917 0 0 2.23875 0 5C0 7.20917 1.4325 9.08333 3.41958 9.74458C3.66917 9.79083 3.75 9.63583 3.75 9.50417V8.57333C2.35917 8.87583 2.06958 7.98333 2.06958 7.98333C1.84208 7.40542 1.51417 7.25167 1.51417 7.25167C1.06042 6.94125 1.54875 6.94792 1.54875 6.94792C2.05083 6.98292 2.315 7.46333 2.315 7.46333C2.76083 8.2275 3.48458 8.00667 3.77 7.87875C3.81458 7.55583 3.94417 7.335 4.0875 7.21042C2.97708 7.08333 1.80958 6.65458 1.80958 4.73917C1.80958 4.19292 2.005 3.74708 2.32458 3.39708C2.27292 3.27083 2.10167 2.76208 2.37333 2.07375C2.37333 2.07375 2.79333 1.93958 3.74875 2.58625C4.1475 2.47542 4.575 2.42 5 2.41792C5.425 2.42 5.85292 2.47542 6.2525 2.58625C7.20708 1.93958 7.62625 2.07375 7.62625 2.07375C7.89833 2.7625 7.72708 3.27125 7.67542 3.39708C7.99625 3.74708 8.19 4.19333 8.19 4.73917C8.19 6.65958 7.02042 7.0825 5.90708 7.20625C6.08625 7.36125 6.25 7.66542 6.25 8.13208V9.50417C6.25 9.63708 6.33 9.79333 6.58375 9.74417C8.56917 9.08208 10 7.20833 10 5C10 2.23875 7.76125 0 5 0Z" fill="white"/>
</g>
<defs>
<clipPath id="clip0_1_9">
<rect width="10" height="10" fill="white"/>
</clipPath>
</defs>
</svg>
