<svg width="10" height="10" viewBox="0 0 10 10" fill="none" xmlns="http://www.w3.org/2000/svg">
<g clip-path="url(#clip0_1_2)">
<g clip-path="url(#clip1_1_2)">
<path d="M5 0.90125C6.335 0.90125 6.49333 0.90625 7.02083 0.930417C8.37583 0.992083 9.00875 1.635 9.07042 2.98C9.09458 3.50708 9.09917 3.66542 9.09917 5.00042C9.09917 6.33583 9.09417 6.49375 9.07042 7.02083C9.00833 8.36458 8.37708 9.00875 7.02083 9.07042C6.49333 9.09458 6.33583 9.09958 5 9.09958C3.665 9.09958 3.50667 9.09458 2.97958 9.07042C1.62125 9.00833 0.991667 8.3625 0.93 7.02042C0.905833 6.49333 0.900833 6.33542 0.900833 5C0.900833 3.665 0.90625 3.50708 0.93 2.97958C0.992083 1.635 1.62333 0.991667 2.97958 0.93C3.50708 0.90625 3.665 0.90125 5 0.90125ZM5 0C3.64208 0 3.47208 0.00583333 2.93875 0.03C1.12292 0.113333 0.11375 1.12083 0.0304167 2.93833C0.00583333 3.47208 0 3.64208 0 5C0 6.35792 0.00583333 6.52833 0.03 7.06167C0.113333 8.8775 1.12083 9.88667 2.93833 9.97C3.47208 9.99417 3.64208 10 5 10C6.35792 10 6.52833 9.99417 7.06167 9.97C8.87583 9.88667 9.8875 8.87917 9.96958 7.06167C9.99417 6.52833 10 6.35792 10 5C10 3.64208 9.99417 3.47208 9.97 2.93875C9.88833 1.12458 8.87958 0.11375 7.06208 0.0304167C6.52833 0.00583333 6.35792 0 5 0ZM5 2.4325C3.58208 2.4325 2.4325 3.58208 2.4325 5C2.4325 6.41792 3.58208 7.56792 5 7.56792C6.41792 7.56792 7.5675 6.41833 7.5675 5C7.5675 3.58208 6.41792 2.4325 5 2.4325ZM5 6.66667C4.07958 6.66667 3.33333 5.92083 3.33333 5C3.33333 4.07958 4.07958 3.33333 5 3.33333C5.92042 3.33333 6.66667 4.07958 6.66667 5C6.66667 5.92083 5.92042 6.66667 5 6.66667ZM7.66917 1.73125C7.3375 1.73125 7.06875 2 7.06875 2.33125C7.06875 2.6625 7.3375 2.93125 7.66917 2.93125C8.00042 2.93125 8.26875 2.6625 8.26875 2.33125C8.26875 2 8.00042 1.73125 7.66917 1.73125Z" fill="white"/>
</g>
</g>
<defs>
<clipPath id="clip0_1_2">
<rect width="10" height="10" fill="white"/>
</clipPath>
<clipPath id="clip1_1_2">
<rect width="10" height="10" fill="white"/>
</clipPath>
</defs>
</svg>
