<svg width="385" height="200" viewBox="0 0 385 200" fill="none" xmlns="http://www.w3.org/2000/svg">
<g clip-path="url(#clip0_1_2)">
<mask id="mask0_1_2" style="mask-type:luminance" maskUnits="userSpaceOnUse" x="0" y="0" width="385" height="200">
<path d="M385 0H0V200H385V0Z" fill="white"/>
</mask>
<g mask="url(#mask0_1_2)">
<path d="M385 0H0V200H385V0Z" fill="#2B2B2B"/>
<path d="M279.6 38.2093C290.566 52.9141 291.009 73.5909 282.426 95.3749C273.853 117.134 256.344 139.756 231.879 158.001C207.413 176.246 180.737 186.575 157.437 188.586C134.109 190.599 114.418 184.277 103.452 169.572C92.4858 154.867 92.0425 134.19 100.626 112.407C109.199 90.6475 126.708 68.0259 151.173 49.7806C175.639 31.5353 202.315 21.2064 225.615 19.1954C248.942 17.1821 268.634 23.5045 279.6 38.2093Z" stroke="#FFF500" stroke-width="3"/>
<path d="M270.237 36.1312C280.281 49.5991 280.219 68.7294 271.831 88.8633C263.448 108.986 246.778 130.016 223.792 147.158C200.807 164.299 175.895 174.278 154.218 176.573C132.528 178.87 114.174 173.473 104.131 160.005C94.0869 146.538 94.1489 127.407 102.537 107.273C110.92 87.1511 127.589 66.1207 150.575 48.9789C173.561 31.8372 198.472 21.8587 220.15 19.5631C241.84 17.2662 260.193 22.6633 270.237 36.1312Z" stroke="#FFF500"/>
<path d="M264.83 38.6533C273.554 50.3508 273.17 67.5003 264.895 86.0912C256.642 104.632 240.659 124.271 218.853 140.534C197.046 156.796 173.664 166.513 153.539 169.135C133.36 171.764 116.814 167.24 108.09 155.543C99.3667 143.845 99.7502 126.696 108.025 108.105C116.278 89.5637 132.261 69.9244 154.068 53.6622C175.874 37.3999 199.257 27.6824 219.381 25.0607C239.56 22.4319 256.107 26.9558 264.83 38.6533Z" stroke="#FFF500" stroke-width="3"/>
<path d="M244.513 58.3349C250.545 66.4222 249.934 78.4153 243.84 91.3884C237.756 104.34 226.256 118.139 210.766 129.691C195.277 141.242 178.77 148.328 164.622 150.466C150.449 152.606 138.78 149.771 132.749 141.683C126.718 133.596 127.328 121.603 133.423 108.63C139.507 95.6785 151.007 81.879 166.496 70.3276C181.986 58.7763 198.492 51.6899 212.641 49.5526C226.813 47.4117 238.482 50.2475 244.513 58.3349Z" stroke="#FFF500"/>
<path d="M244.699 52.1564C251.227 60.9101 251.02 73.7741 244.817 87.8109C238.636 101.799 226.614 116.624 210.168 128.889C193.723 141.153 176.085 148.447 160.914 150.382C145.691 152.324 133.302 148.852 126.774 140.099C120.246 131.345 120.453 118.481 126.656 104.444C132.837 90.4556 144.859 75.6307 161.305 63.3661C177.75 51.1015 195.388 43.8079 210.559 41.873C225.782 39.9315 238.171 43.4027 244.699 52.1564Z" stroke="#FFF500" stroke-width="3"/>
<path d="M38.597 183V156.312C38.597 153.816 39.205 151.544 40.421 149.496C41.701 147.448 43.365 145.816 45.413 144.6C47.461 143.384 49.733 142.776 52.229 142.776H92.549C92.677 142.776 92.805 142.712 92.933 142.584C93.061 142.456 93.125 142.328 93.125 142.2V128.088C93.125 127.96 93.061 127.832 92.933 127.704C92.805 127.576 92.677 127.512 92.549 127.512H52.805C52.677 127.512 52.549 127.576 52.421 127.704C52.293 127.832 52.229 127.96 52.229 128.088V133.272H38.597V127.416C38.597 124.92 39.205 122.648 40.421 120.6C41.701 118.552 43.365 116.92 45.413 115.704C47.461 114.488 49.733 113.88 52.229 113.88H93.125C95.557 113.88 97.797 114.488 99.845 115.704C101.957 116.92 103.621 118.552 104.837 120.6C106.117 122.648 106.757 124.92 106.757 127.416V142.872C106.757 145.368 106.117 147.64 104.837 149.688C103.621 151.736 101.957 153.4 99.845 154.68C97.797 155.896 95.557 156.504 93.125 156.504H52.805C52.677 156.504 52.549 156.568 52.421 156.696C52.293 156.824 52.229 156.952 52.229 157.08V168.792C52.229 168.92 52.293 169.048 52.421 169.176C52.549 169.304 52.677 169.368 52.805 169.368H106.757V183H38.597ZM131.917 183C129.421 183 127.149 182.328 125.101 180.984C123.053 179.576 121.389 177.784 120.109 175.608C118.893 173.368 118.285 171.032 118.285 168.6V127.8C118.285 125.304 118.893 123 120.109 120.888C121.389 118.776 123.053 117.08 125.101 115.8C127.149 114.52 129.421 113.88 131.917 113.88H172.812C175.309 113.88 177.581 114.52 179.629 115.8C181.677 117.08 183.309 118.776 184.525 120.888C185.805 123 186.445 125.304 186.445 127.8V168.6C186.445 171.032 185.805 173.368 184.525 175.608C183.309 177.784 181.677 179.576 179.629 180.984C177.581 182.328 175.309 183 172.812 183H131.917ZM138.829 168.504H172.237C172.365 168.504 172.493 168.472 172.621 168.408C172.749 168.28 172.812 168.12 172.812 167.928V140.088L138.829 168.504ZM131.917 156.312L165.901 127.896H132.493C132.365 127.896 132.237 127.96 132.109 128.088C131.981 128.152 131.917 128.28 131.917 128.472V156.312ZM198.347 183V156.312C198.347 153.816 198.955 151.544 200.171 149.496C201.451 147.448 203.115 145.816 205.163 144.6C207.211 143.384 209.483 142.776 211.979 142.776H252.299C252.427 142.776 252.555 142.712 252.683 142.584C252.811 142.456 252.875 142.328 252.875 142.2V128.088C252.875 127.96 252.811 127.832 252.683 127.704C252.555 127.576 252.427 127.512 252.299 127.512H212.555C212.427 127.512 212.299 127.576 212.171 127.704C212.043 127.832 211.979 127.96 211.979 128.088V133.272H198.347V127.416C198.347 124.92 198.955 122.648 200.171 120.6C201.451 118.552 203.115 116.92 205.163 115.704C207.211 114.488 209.483 113.88 211.979 113.88H252.875C255.307 113.88 257.547 114.488 259.595 115.704C261.707 116.92 263.371 118.552 264.587 120.6C265.867 122.648 266.507 124.92 266.507 127.416V142.872C266.507 145.368 265.867 147.64 264.587 149.688C263.371 151.736 261.707 153.4 259.595 154.68C257.547 155.896 255.307 156.504 252.875 156.504H212.555C212.427 156.504 212.299 156.568 212.171 156.696C212.043 156.824 211.979 156.952 211.979 157.08V168.792C211.979 168.92 212.043 169.048 212.171 169.176C212.299 169.304 212.427 169.368 212.555 169.368H266.507V183H198.347ZM291.283 183C288.787 183 286.515 182.392 284.467 181.176C282.419 179.896 280.755 178.232 279.475 176.184C278.259 174.136 277.651 171.896 277.651 169.464V164.664H291.379V168.792C291.379 168.92 291.411 169.048 291.475 169.176C291.603 169.304 291.731 169.368 291.859 169.368H331.603C331.731 169.368 331.859 169.304 331.987 169.176C332.115 169.048 332.179 168.92 332.179 168.792V155.544C332.179 155.352 332.115 155.224 331.987 155.16C331.859 155.032 331.731 154.968 331.603 154.968H289.267V141.24H328.915C329.107 141.24 329.235 141.208 329.299 141.144C329.427 141.016 329.491 140.888 329.491 140.76V128.088C329.491 127.96 329.427 127.832 329.299 127.704C329.235 127.576 329.107 127.512 328.915 127.512H291.859C291.731 127.512 291.603 127.576 291.475 127.704C291.411 127.832 291.379 127.96 291.379 128.088V133.08H277.651V127.416C277.651 124.92 278.259 122.648 279.475 120.6C280.755 118.552 282.419 116.92 284.467 115.704C286.515 114.488 288.787 113.88 291.283 113.88H329.587C332.083 113.88 334.355 114.488 336.403 115.704C338.451 116.92 340.083 118.552 341.299 120.6C342.515 122.648 343.123 124.92 343.123 127.416V141.336C343.123 142.104 343.059 142.904 342.931 143.736C342.867 144.504 342.707 145.208 342.451 145.848C343.539 147.064 344.371 148.472 344.947 150.072C345.523 151.608 345.811 153.208 345.811 154.872V169.464C345.811 171.896 345.203 174.136 343.987 176.184C342.771 178.232 341.107 179.896 338.995 181.176C336.947 182.392 334.707 183 332.275 183H291.283Z" fill="#E22222"/>
<path d="M51.997 68.92C51.997 71.6507 51.357 74.1467 50.077 76.408C48.8397 78.6267 46.941 80.4187 44.381 81.784C41.8637 83.1067 38.7703 83.768 35.101 83.768H28.893V99H16.349V53.88H35.101C38.7277 53.88 41.7997 54.52 44.317 55.8C46.877 57.08 48.797 58.8507 50.077 61.112C51.357 63.3733 51.997 65.976 51.997 68.92ZM33.885 73.784C37.4263 73.784 39.197 72.1627 39.197 68.92C39.197 65.6347 37.4263 63.992 33.885 63.992H28.893V73.784H33.885ZM88.8445 99L79.8845 82.36H78.5405V99H65.9965V53.88H85.7725C89.3992 53.88 92.4712 54.52 94.9885 55.8C97.5058 57.0373 99.4045 58.7653 100.685 60.984C101.965 63.16 102.604 65.6133 102.604 68.344C102.604 71.416 101.751 74.1253 100.044 76.472C98.3805 78.776 95.9272 80.4187 92.6845 81.4L102.861 99H88.8445ZM78.5405 73.784H84.7485C86.4552 73.784 87.7352 73.3787 88.5885 72.568C89.4418 71.7573 89.8685 70.584 89.8685 69.048C89.8685 67.5973 89.4205 66.4667 88.5245 65.656C87.6712 64.8027 86.4125 64.376 84.7485 64.376H78.5405V73.784ZM145.813 91.64H129.813L127.381 99H114.197L130.645 53.88H145.109L161.493 99H148.245L145.813 91.64ZM142.677 82.04L137.813 67.448L133.013 82.04H142.677ZM187.086 53.88V99H174.542V53.88H187.086ZM226.037 99L217.077 82.36H215.733V99H203.189V53.88H222.965C226.592 53.88 229.664 54.52 232.181 55.8C234.698 57.0373 236.597 58.7653 237.877 60.984C239.157 63.16 239.797 65.6133 239.797 68.344C239.797 71.416 238.944 74.1253 237.237 76.472C235.573 78.776 233.12 80.4187 229.877 81.4L240.053 99H226.037ZM215.733 73.784H221.941C223.648 73.784 224.928 73.3787 225.781 72.568C226.634 71.7573 227.061 70.584 227.061 69.048C227.061 67.5973 226.613 66.4667 225.717 65.656C224.864 64.8027 223.605 64.376 221.941 64.376H215.733V73.784ZM267.006 53.88V99H254.462V53.88H267.006ZM295.653 63.928V71.288H310.053V80.824H295.653V88.952H311.973V99H283.109V53.88H311.973V63.928H295.653ZM344.155 99.448C338.907 99.448 334.598 98.2107 331.227 95.736C327.857 93.2187 326.043 89.6347 325.787 84.984H339.163C339.291 86.5627 339.761 87.7147 340.571 88.44C341.382 89.1653 342.427 89.528 343.707 89.528C344.859 89.528 345.798 89.2507 346.523 88.696C347.291 88.0987 347.675 87.288 347.675 86.264C347.675 84.9413 347.057 83.9173 345.819 83.192C344.582 82.4667 342.577 81.656 339.803 80.76C336.859 79.7787 334.47 78.84 332.635 77.944C330.843 77.0053 329.265 75.6613 327.899 73.912C326.577 72.12 325.915 69.7947 325.915 66.936C325.915 64.0347 326.641 61.56 328.091 59.512C329.542 57.4213 331.547 55.8427 334.107 54.776C336.667 53.7093 339.569 53.176 342.811 53.176C348.059 53.176 352.241 54.4133 355.355 56.888C358.513 59.32 360.198 62.7547 360.411 67.192H346.779C346.737 65.8267 346.31 64.8027 345.499 64.12C344.731 63.4373 343.729 63.096 342.491 63.096C341.553 63.096 340.785 63.3733 340.187 63.928C339.59 64.4827 339.291 65.272 339.291 66.296C339.291 67.1493 339.611 67.896 340.251 68.536C340.934 69.1333 341.766 69.6667 342.747 70.136C343.729 70.5627 345.179 71.1173 347.099 71.8C349.958 72.7813 352.305 73.7627 354.139 74.744C356.017 75.6827 357.617 77.0267 358.939 78.776C360.305 80.4827 360.987 82.6587 360.987 85.304C360.987 87.992 360.305 90.4027 358.939 92.536C357.617 94.6693 355.675 96.3547 353.115 97.592C350.598 98.8293 347.611 99.448 344.155 99.448Z" fill="white"/>
</g>
<path d="M159.013 16.0902C158.383 13.6941 156.505 11.8096 154.132 11.1606C149.832 10 132.581 10 132.581 10C132.581 10 115.331 10 111.03 11.1606C108.658 11.7971 106.792 13.6941 106.149 16.0902C105 20.4333 105 29.5062 105 29.5062C105 29.5062 105 38.5667 106.149 42.9222C106.779 45.3184 108.658 47.2029 111.03 47.8518C115.331 49.0125 132.581 49.0125 132.581 49.0125C132.581 49.0125 149.832 49.0125 154.132 47.8518C156.505 47.2154 158.37 45.3184 159.013 42.9222C160.162 38.5792 160.162 29.5062 160.162 29.5062C160.162 29.5062 160.162 20.4458 159.013 16.0902Z" fill="#FF0000"/>
<path d="M127.058 37.8554L141.392 29.4938L127.058 21.1446V37.8554Z" fill="white"/>
<path d="M185.074 45.4806C183.987 44.7318 183.209 43.5837 182.751 42.0112C182.294 40.4387 182.059 38.3545 182.059 35.7587V32.2144C182.059 29.5811 182.319 27.472 182.85 25.8745C183.382 24.2771 184.197 23.1165 185.322 22.3926C186.434 21.6563 187.904 21.2944 189.721 21.2944C191.513 21.2944 192.946 21.6688 194.021 22.4051C195.096 23.1539 195.887 24.3145 196.394 25.887C196.888 27.472 197.147 29.5686 197.147 32.2019V35.7462C197.147 38.3545 196.9 40.4387 196.418 42.0237C195.936 43.6086 195.146 44.7568 194.046 45.4931C192.958 46.2294 191.475 46.5913 189.61 46.5913C187.694 46.5913 186.187 46.2169 185.087 45.4806H185.074ZM191.191 41.6493C191.488 40.8505 191.648 39.5526 191.648 37.743V30.1302C191.648 28.383 191.5 27.0976 191.191 26.2864C190.882 25.4752 190.351 25.0758 189.597 25.0758C188.856 25.0758 188.337 25.4752 188.04 26.2864C187.731 27.0976 187.583 28.383 187.583 30.1302V37.743C187.583 39.5526 187.731 40.8505 188.015 41.6493C188.3 42.448 188.831 42.8473 189.597 42.8473C190.363 42.8473 190.895 42.448 191.191 41.6493Z" fill="white"/>
<path d="M268.881 35.8211V37.0566C268.881 38.6291 268.93 39.8022 269.016 40.5885C269.103 41.3747 269.301 41.9488 269.585 42.2982C269.869 42.6602 270.326 42.8349 270.932 42.8349C271.747 42.8349 272.303 42.5104 272.612 41.8739C272.909 41.2374 273.082 40.1766 273.107 38.6915L277.802 38.9661C277.827 39.1782 277.839 39.4653 277.839 39.8397C277.839 42.0986 277.222 43.7834 276.011 44.9066C274.787 46.0173 273.057 46.5789 270.821 46.5789C268.139 46.5789 266.261 45.7302 265.173 44.033C264.098 42.3357 263.555 39.7024 263.555 36.1456V31.8774C263.555 28.2083 264.111 25.5376 265.235 23.8528C266.347 22.168 268.263 21.3194 270.981 21.3194C272.847 21.3194 274.281 21.6688 275.282 22.3552C276.282 23.0416 276.987 24.1274 277.395 25.5875C277.802 27.0477 278.012 29.0694 278.012 31.6403V35.8211H268.893H268.881ZM269.573 25.5376C269.301 25.887 269.115 26.4486 269.016 27.2349C268.918 28.0211 268.881 29.2067 268.881 30.8042V32.5638H272.86V30.8042C272.86 29.2317 272.81 28.0461 272.699 27.2349C272.588 26.4237 272.402 25.8496 272.13 25.5251C271.859 25.1882 271.426 25.0259 270.845 25.0259C270.265 25.0259 269.844 25.2006 269.56 25.5501L269.573 25.5376Z" fill="white"/>
<path d="M171.815 35.3594L165.624 12.7706H171.024L173.199 23.0166C173.755 25.5376 174.163 27.6966 174.423 29.4688H174.583C174.769 28.1958 175.176 26.0618 175.807 23.0541L178.056 12.7706H183.456L177.178 35.3594V46.2045H171.815V35.3594Z" fill="white"/>
<path d="M214.707 21.7686V46.192H210.444L209.974 43.2093H209.85C208.689 45.4682 206.959 46.5914 204.648 46.5914C203.042 46.5914 201.855 46.0547 201.102 44.9939C200.335 43.9331 199.952 42.2733 199.952 40.0144V21.7686H205.402V39.7024C205.402 40.7882 205.525 41.5744 205.76 42.0362C205.995 42.4979 206.39 42.735 206.947 42.735C207.416 42.735 207.873 42.5853 208.306 42.2982C208.738 42.0112 209.06 41.6368 209.27 41.1875V21.7811H214.719L214.707 21.7686Z" fill="white"/>
<path d="M242.634 21.7686V46.192H238.371L237.901 43.2093H237.778C236.616 45.4682 234.886 46.5914 232.575 46.5914C230.969 46.5914 229.783 46.0547 229.029 44.9939C228.263 43.9331 227.88 42.2733 227.88 40.0144V21.7686H233.329V39.7024C233.329 40.7882 233.453 41.5744 233.687 42.0362C233.922 42.4979 234.318 42.735 234.874 42.735C235.343 42.735 235.801 42.5853 236.233 42.2982C236.666 42.0112 236.987 41.6368 237.197 41.1875V21.7811H242.646L242.634 21.7686Z" fill="white"/>
<path d="M229.498 17.1885H224.098V46.192H218.772V17.1885H213.36V12.7706H229.498V17.1885Z" fill="white"/>
<path d="M260.651 25.6749C260.317 24.1398 259.786 23.0166 259.057 22.3302C258.315 21.6438 257.302 21.2944 256.017 21.2944C255.016 21.2944 254.089 21.5814 253.212 22.1555C252.347 22.7296 251.667 23.4784 251.198 24.4019H251.16V11.535H245.909V46.2045H250.407L250.963 43.8957H251.086C251.506 44.7194 252.137 45.3683 252.977 45.8426C253.817 46.3168 254.756 46.5539 255.782 46.5539C257.623 46.5539 258.983 45.6928 259.848 43.983C260.713 42.2733 261.145 39.5901 261.145 35.9584V32.0896C261.145 29.3565 260.984 27.2099 260.651 25.6749ZM255.658 35.6339C255.658 37.4186 255.584 38.8038 255.436 39.8147C255.288 40.8256 255.053 41.537 254.707 41.9613C254.361 42.3856 253.904 42.5978 253.323 42.5978C252.878 42.5978 252.458 42.4979 252.075 42.2733C251.692 42.0611 251.383 41.7366 251.148 41.3123V27.447C251.333 26.7856 251.642 26.2365 252.1 25.8122C252.544 25.3878 253.039 25.1757 253.558 25.1757C254.114 25.1757 254.534 25.4003 254.843 25.8371C255.139 26.2739 255.362 27.0102 255.473 28.0461C255.597 29.0819 255.646 30.5546 255.646 32.464V35.609L255.658 35.6339Z" fill="white"/>
</g>
<defs>
<clipPath id="clip0_1_2">
<rect width="385" height="200" fill="white"/>
</clipPath>
</defs>
</svg>
