<svg width="385" height="200" viewBox="0 0 385 200" fill="none" xmlns="http://www.w3.org/2000/svg">
<g clip-path="url(#clip0_1_2)">
<rect width="385" height="200" fill="#2B2B2B"/>
<g filter="url(#filter0_d_1_2)">
<path d="M177.738 16.1313C186.364 10.0875 197.897 10.2721 206.324 16.589L216.93 24.539C252.803 51.4279 276.522 91.4687 282.867 135.849L283.614 141.07C285.787 156.27 276.505 170.771 261.792 175.163L236.257 182.784C207.527 191.359 176.902 191.246 148.236 182.458L120.201 173.864C108.227 170.194 100.608 158.466 102.121 146.034L102.71 141.199C108.849 90.7552 136.122 45.292 177.738 16.1313V16.1313Z" fill="#2B2B2B"/>
<path d="M104.603 146.336L105.191 141.501C111.245 91.7612 138.138 46.9325 179.173 18.1787C186.913 12.7552 197.262 12.9209 204.825 18.5894L215.431 26.5394C250.773 53.0306 274.141 92.479 280.393 136.203L281.139 141.424C283.137 155.398 274.604 168.73 261.077 172.767L235.542 180.388C207.284 188.823 177.163 188.711 148.968 180.068L120.933 171.474C110.118 168.159 103.236 157.566 104.603 146.336Z" stroke="#1BAF2A" stroke-width="5"/>
</g>
<path d="M192.197 13.3418L193.768 101.468C193.849 105.986 196.27 110.139 200.163 112.434L277.239 157.885L198.409 115.009C194.536 112.903 189.859 112.903 185.986 115.009L107.156 157.885L184.231 112.434C188.124 110.139 190.546 105.987 190.626 101.468L192.197 13.3418Z" fill="#1BAF2A"/>
<path d="M42.6908 183V156.312C42.6908 153.816 43.2988 151.544 44.5148 149.496C45.7948 147.448 47.4588 145.816 49.5068 144.6C51.5548 143.384 53.8268 142.776 56.3228 142.776H96.6428C96.7708 142.776 96.8988 142.712 97.0268 142.584C97.1548 142.456 97.2188 142.328 97.2188 142.2V128.088C97.2188 127.96 97.1548 127.832 97.0268 127.704C96.8988 127.576 96.7708 127.512 96.6428 127.512H56.8988C56.7708 127.512 56.6428 127.576 56.5148 127.704C56.3868 127.832 56.3228 127.96 56.3228 128.088V133.272H42.6908V127.416C42.6908 124.92 43.2988 122.648 44.5148 120.6C45.7948 118.552 47.4588 116.92 49.5068 115.704C51.5548 114.488 53.8268 113.88 56.3228 113.88H97.2188C99.6508 113.88 101.891 114.488 103.939 115.704C106.051 116.92 107.715 118.552 108.931 120.6C110.211 122.648 110.851 124.92 110.851 127.416V142.872C110.851 145.368 110.211 147.64 108.931 149.688C107.715 151.736 106.051 153.4 103.939 154.68C101.891 155.896 99.6508 156.504 97.2188 156.504H56.8988C56.7708 156.504 56.6428 156.568 56.5148 156.696C56.3868 156.824 56.3228 156.952 56.3228 157.08V168.792C56.3228 168.92 56.3868 169.048 56.5148 169.176C56.6428 169.304 56.7708 169.368 56.8988 169.368H110.851V183H42.6908ZM136.01 183C133.514 183 131.242 182.328 129.194 180.984C127.146 179.576 125.482 177.784 124.202 175.608C122.986 173.368 122.378 171.032 122.378 168.6V127.8C122.378 125.304 122.986 123 124.202 120.888C125.482 118.776 127.146 117.08 129.194 115.8C131.242 114.52 133.514 113.88 136.01 113.88H176.906C179.402 113.88 181.674 114.52 183.722 115.8C185.77 117.08 187.402 118.776 188.618 120.888C189.898 123 190.538 125.304 190.538 127.8V168.6C190.538 171.032 189.898 173.368 188.618 175.608C187.402 177.784 185.77 179.576 183.722 180.984C181.674 182.328 179.402 183 176.906 183H136.01ZM142.922 168.504H176.33C176.458 168.504 176.586 168.472 176.714 168.408C176.842 168.28 176.906 168.12 176.906 167.928V140.088L142.922 168.504ZM136.01 156.312L169.994 127.896H136.586C136.458 127.896 136.33 127.96 136.202 128.088C136.074 128.152 136.01 128.28 136.01 128.472V156.312ZM202.441 183V156.312C202.441 153.816 203.049 151.544 204.265 149.496C205.545 147.448 207.209 145.816 209.257 144.6C211.305 143.384 213.577 142.776 216.073 142.776H256.393C256.521 142.776 256.649 142.712 256.777 142.584C256.905 142.456 256.969 142.328 256.969 142.2V128.088C256.969 127.96 256.905 127.832 256.777 127.704C256.649 127.576 256.521 127.512 256.393 127.512H216.649C216.521 127.512 216.393 127.576 216.265 127.704C216.137 127.832 216.073 127.96 216.073 128.088V133.272H202.441V127.416C202.441 124.92 203.049 122.648 204.265 120.6C205.545 118.552 207.209 116.92 209.257 115.704C211.305 114.488 213.577 113.88 216.073 113.88H256.969C259.401 113.88 261.641 114.488 263.689 115.704C265.801 116.92 267.465 118.552 268.681 120.6C269.961 122.648 270.601 124.92 270.601 127.416V142.872C270.601 145.368 269.961 147.64 268.681 149.688C267.465 151.736 265.801 153.4 263.689 154.68C261.641 155.896 259.401 156.504 256.969 156.504H216.649C216.521 156.504 216.393 156.568 216.265 156.696C216.137 156.824 216.073 156.952 216.073 157.08V168.792C216.073 168.92 216.137 169.048 216.265 169.176C216.393 169.304 216.521 169.368 216.649 169.368H270.601V183H202.441ZM319.664 183V165.72H277.232V153.24L320.816 113.88H333.296V151.992H342.704V165.72H333.296V183H319.664ZM299.12 151.992H319.664V135L299.12 151.992Z" fill="#E22222"/>
<path d="M46.5207 99L37.5607 82.36H36.2167V99H23.6727V53.88H43.4487C47.0754 53.88 50.1474 54.52 52.6647 55.8C55.1821 57.0373 57.0807 58.7653 58.3607 60.984C59.6407 63.16 60.2807 65.6133 60.2807 68.344C60.2807 71.416 59.4274 74.1253 57.7207 76.472C56.0567 78.776 53.6034 80.4187 50.3607 81.4L60.5367 99H46.5207ZM36.2167 73.784H42.4247C44.1314 73.784 45.4114 73.3787 46.2647 72.568C47.1181 71.7573 47.5447 70.584 47.5447 69.048C47.5447 67.5973 47.0967 66.4667 46.2007 65.656C45.3474 64.8027 44.0887 64.376 42.4247 64.376H36.2167V73.784ZM96.5772 99.448C92.3532 99.448 88.4706 98.4667 84.9292 96.504C81.3879 94.4987 78.5719 91.7467 76.4812 88.248C74.4332 84.7067 73.4092 80.7173 73.4092 76.28C73.4092 71.8427 74.4332 67.8747 76.4812 64.376C78.5719 60.8347 81.3879 58.0827 84.9292 56.12C88.4706 54.1573 92.3532 53.176 96.5772 53.176C100.844 53.176 104.727 54.1573 108.225 56.12C111.767 58.0827 114.561 60.8347 116.609 64.376C118.657 67.8747 119.681 71.8427 119.681 76.28C119.681 80.7173 118.657 84.7067 116.609 88.248C114.561 91.7467 111.767 94.4987 108.225 96.504C104.684 98.4667 100.801 99.448 96.5772 99.448ZM96.5772 87.8C99.7772 87.8 102.295 86.7547 104.129 84.664C106.007 82.5733 106.945 79.7787 106.945 76.28C106.945 72.696 106.007 69.88 104.129 67.832C102.295 65.7413 99.7772 64.696 96.5772 64.696C93.3346 64.696 90.7959 65.7413 88.9612 67.832C87.1266 69.88 86.2092 72.696 86.2092 76.28C86.2092 79.8213 87.1266 82.6373 88.9612 84.728C90.7959 86.776 93.3346 87.8 96.5772 87.8ZM132.744 76.344C132.744 71.9067 133.662 67.96 135.496 64.504C137.374 61.0053 140.019 58.296 143.432 56.376C146.846 54.4133 150.771 53.432 155.208 53.432C160.84 53.432 165.576 54.9467 169.416 57.976C173.256 60.9627 175.731 65.0373 176.84 70.2H163.336C162.526 68.4933 161.395 67.192 159.944 66.296C158.536 65.4 156.894 64.952 155.016 64.952C152.115 64.952 149.79 65.9973 148.04 68.088C146.334 70.136 145.48 72.888 145.48 76.344C145.48 79.8427 146.334 82.6373 148.04 84.728C149.79 86.776 152.115 87.8 155.016 87.8C156.894 87.8 158.536 87.352 159.944 86.456C161.395 85.56 162.526 84.2587 163.336 82.552H176.84C175.731 87.7147 173.256 91.8107 169.416 94.84C165.576 97.8267 160.84 99.32 155.208 99.32C150.771 99.32 146.846 98.36 143.432 96.44C140.019 94.4773 137.374 91.768 135.496 88.312C133.662 84.8133 132.744 80.824 132.744 76.344ZM218.428 99L204.284 79.224V99H191.74V53.88H204.284V73.336L218.3 53.88H232.764L216.188 75.768L233.596 99H218.428ZM259.682 53.88V99H247.138V53.88H259.682ZM288.329 63.928V71.288H302.729V80.824H288.329V88.952H304.649V99H275.785V53.88H304.649V63.928H288.329ZM336.832 99.448C331.584 99.448 327.274 98.2107 323.904 95.736C320.533 93.2187 318.72 89.6347 318.464 84.984H331.84C331.968 86.5627 332.437 87.7147 333.248 88.44C334.058 89.1653 335.104 89.528 336.384 89.528C337.536 89.528 338.474 89.2507 339.2 88.696C339.968 88.0987 340.352 87.288 340.352 86.264C340.352 84.9413 339.733 83.9173 338.496 83.192C337.258 82.4667 335.253 81.656 332.48 80.76C329.536 79.7787 327.146 78.84 325.312 77.944C323.52 77.0053 321.941 75.6613 320.576 73.912C319.253 72.12 318.592 69.7947 318.592 66.936C318.592 64.0347 319.317 61.56 320.768 59.512C322.218 57.4213 324.224 55.8427 326.784 54.776C329.344 53.7093 332.245 53.176 335.488 53.176C340.736 53.176 344.917 54.4133 348.032 56.888C351.189 59.32 352.874 62.7547 353.088 67.192H339.456C339.413 65.8267 338.986 64.8027 338.176 64.12C337.408 63.4373 336.405 63.096 335.168 63.096C334.229 63.096 333.461 63.3733 332.864 63.928C332.266 64.4827 331.968 65.272 331.968 66.296C331.968 67.1493 332.288 67.896 332.928 68.536C333.61 69.1333 334.442 69.6667 335.424 70.136C336.405 70.5627 337.856 71.1173 339.776 71.8C342.634 72.7813 344.981 73.7627 346.816 74.744C348.693 75.6827 350.293 77.0267 351.616 78.776C352.981 80.4827 353.664 82.6587 353.664 85.304C353.664 87.992 352.981 90.4027 351.616 92.536C350.293 94.6693 348.352 96.3547 345.792 97.592C343.274 98.8293 340.288 99.448 336.832 99.448Z" fill="white"/>
</g>
<defs>
<filter id="filter0_d_1_2" x="97.9304" y="11.7218" width="189.998" height="185.412" filterUnits="userSpaceOnUse" color-interpolation-filters="sRGB">
<feFlood flood-opacity="0" result="BackgroundImageFix"/>
<feColorMatrix in="SourceAlpha" type="matrix" values="0 0 0 0 0 0 0 0 0 0 0 0 0 0 0 0 0 0 127 0" result="hardAlpha"/>
<feOffset dy="4"/>
<feGaussianBlur stdDeviation="2"/>
<feComposite in2="hardAlpha" operator="out"/>
<feColorMatrix type="matrix" values="0 0 0 0 0 0 0 0 0 0 0 0 0 0 0 0 0 0 0.25 0"/>
<feBlend mode="normal" in2="BackgroundImageFix" result="effect1_dropShadow_1_2"/>
<feBlend mode="normal" in="SourceGraphic" in2="effect1_dropShadow_1_2" result="shape"/>
</filter>
<clipPath id="clip0_1_2">
<rect width="385" height="200" fill="white"/>
</clipPath>
</defs>
</svg>
