<svg width="385" height="200" viewBox="0 0 385 200" fill="none" xmlns="http://www.w3.org/2000/svg">
<g clip-path="url(#clip0_1_2)">
<rect width="385" height="200" fill="#2B2B2B"/>
<g filter="url(#filter0_d_1_2)">
<path d="M178.733 9.64668C186.946 3.89195 197.927 4.06778 205.951 10.0825L213.37 15.6433C249.243 42.5322 273.002 82.8556 279.347 127.236V127.236C281.521 142.436 272.254 157.045 257.541 161.436L236.56 167.699C207.83 176.274 177.205 176.161 148.538 167.373L123.947 159.835C112.546 156.34 105.292 145.173 106.733 133.336L107.293 128.732C113.138 80.7009 139.107 37.4125 178.733 9.64668V9.64668Z" fill="#2B2B2B"/>
<path d="M109.214 133.638L109.775 129.034C115.534 81.7069 141.123 39.053 180.167 11.6941C187.495 6.5597 197.292 6.71657 204.452 12.0829L211.871 17.6437C247.209 44.1322 270.621 83.8615 276.873 127.59C278.872 141.575 270.342 155.006 256.826 159.041L235.845 165.303C207.587 173.737 177.466 173.626 149.271 164.983L124.68 157.444C114.437 154.305 107.92 144.273 109.214 133.638Z" stroke="#1BAF2A" stroke-width="5"/>
</g>
<path d="M192.5 6.99065L193.99 90.5535C194.07 95.0719 196.492 99.2243 200.384 101.52L273.473 144.619L198.711 103.956C194.838 101.85 190.162 101.85 186.289 103.956L111.527 144.619L184.616 101.52C188.508 99.2243 190.93 95.0719 191.01 90.5535L192.5 6.99065Z" fill="#1BAF2A"/>
<path d="M42.6908 183V156.312C42.6908 153.816 43.2988 151.544 44.5148 149.496C45.7948 147.448 47.4588 145.816 49.5068 144.6C51.5548 143.384 53.8268 142.776 56.3228 142.776H96.6428C96.7708 142.776 96.8988 142.712 97.0268 142.584C97.1548 142.456 97.2188 142.328 97.2188 142.2V128.088C97.2188 127.96 97.1548 127.832 97.0268 127.704C96.8988 127.576 96.7708 127.512 96.6428 127.512H56.8988C56.7708 127.512 56.6428 127.576 56.5148 127.704C56.3868 127.832 56.3228 127.96 56.3228 128.088V133.272H42.6908V127.416C42.6908 124.92 43.2988 122.648 44.5148 120.6C45.7948 118.552 47.4588 116.92 49.5068 115.704C51.5548 114.488 53.8268 113.88 56.3228 113.88H97.2188C99.6508 113.88 101.891 114.488 103.939 115.704C106.051 116.92 107.715 118.552 108.931 120.6C110.211 122.648 110.851 124.92 110.851 127.416V142.872C110.851 145.368 110.211 147.64 108.931 149.688C107.715 151.736 106.051 153.4 103.939 154.68C101.891 155.896 99.6508 156.504 97.2188 156.504H56.8988C56.7708 156.504 56.6428 156.568 56.5148 156.696C56.3868 156.824 56.3228 156.952 56.3228 157.08V168.792C56.3228 168.92 56.3868 169.048 56.5148 169.176C56.6428 169.304 56.7708 169.368 56.8988 169.368H110.851V183H42.6908ZM136.01 183C133.514 183 131.242 182.328 129.194 180.984C127.146 179.576 125.482 177.784 124.202 175.608C122.986 173.368 122.378 171.032 122.378 168.6V127.8C122.378 125.304 122.986 123 124.202 120.888C125.482 118.776 127.146 117.08 129.194 115.8C131.242 114.52 133.514 113.88 136.01 113.88H176.906C179.402 113.88 181.674 114.52 183.722 115.8C185.77 117.08 187.402 118.776 188.618 120.888C189.898 123 190.538 125.304 190.538 127.8V168.6C190.538 171.032 189.898 173.368 188.618 175.608C187.402 177.784 185.77 179.576 183.722 180.984C181.674 182.328 179.402 183 176.906 183H136.01ZM142.922 168.504H176.33C176.458 168.504 176.586 168.472 176.714 168.408C176.842 168.28 176.906 168.12 176.906 167.928V140.088L142.922 168.504ZM136.01 156.312L169.994 127.896H136.586C136.458 127.896 136.33 127.96 136.202 128.088C136.074 128.152 136.01 128.28 136.01 128.472V156.312ZM202.441 183V156.312C202.441 153.816 203.049 151.544 204.265 149.496C205.545 147.448 207.209 145.816 209.257 144.6C211.305 143.384 213.577 142.776 216.073 142.776H256.393C256.521 142.776 256.649 142.712 256.777 142.584C256.905 142.456 256.969 142.328 256.969 142.2V128.088C256.969 127.96 256.905 127.832 256.777 127.704C256.649 127.576 256.521 127.512 256.393 127.512H216.649C216.521 127.512 216.393 127.576 216.265 127.704C216.137 127.832 216.073 127.96 216.073 128.088V133.272H202.441V127.416C202.441 124.92 203.049 122.648 204.265 120.6C205.545 118.552 207.209 116.92 209.257 115.704C211.305 114.488 213.577 113.88 216.073 113.88H256.969C259.401 113.88 261.641 114.488 263.689 115.704C265.801 116.92 267.465 118.552 268.681 120.6C269.961 122.648 270.601 124.92 270.601 127.416V142.872C270.601 145.368 269.961 147.64 268.681 149.688C267.465 151.736 265.801 153.4 263.689 154.68C261.641 155.896 259.401 156.504 256.969 156.504H216.649C216.521 156.504 216.393 156.568 216.265 156.696C216.137 156.824 216.073 156.952 216.073 157.08V168.792C216.073 168.92 216.137 169.048 216.265 169.176C216.393 169.304 216.521 169.368 216.649 169.368H270.601V183H202.441ZM319.664 183V165.72H277.232V153.24L320.816 113.88H333.296V151.992H342.704V165.72H333.296V183H319.664ZM299.12 151.992H319.664V135L299.12 151.992Z" fill="#E22222"/>
<path d="M46.5207 99L37.5607 82.36H36.2167V99H23.6727V53.88H43.4487C47.0754 53.88 50.1474 54.52 52.6647 55.8C55.1821 57.0373 57.0807 58.7653 58.3607 60.984C59.6407 63.16 60.2807 65.6133 60.2807 68.344C60.2807 71.416 59.4274 74.1253 57.7207 76.472C56.0567 78.776 53.6034 80.4187 50.3607 81.4L60.5367 99H46.5207ZM36.2167 73.784H42.4247C44.1314 73.784 45.4114 73.3787 46.2647 72.568C47.1181 71.7573 47.5447 70.584 47.5447 69.048C47.5447 67.5973 47.0967 66.4667 46.2007 65.656C45.3474 64.8027 44.0887 64.376 42.4247 64.376H36.2167V73.784ZM96.5772 99.448C92.3532 99.448 88.4706 98.4667 84.9292 96.504C81.3879 94.4987 78.5719 91.7467 76.4812 88.248C74.4332 84.7067 73.4092 80.7173 73.4092 76.28C73.4092 71.8427 74.4332 67.8747 76.4812 64.376C78.5719 60.8347 81.3879 58.0827 84.9292 56.12C88.4706 54.1573 92.3532 53.176 96.5772 53.176C100.844 53.176 104.727 54.1573 108.225 56.12C111.767 58.0827 114.561 60.8347 116.609 64.376C118.657 67.8747 119.681 71.8427 119.681 76.28C119.681 80.7173 118.657 84.7067 116.609 88.248C114.561 91.7467 111.767 94.4987 108.225 96.504C104.684 98.4667 100.801 99.448 96.5772 99.448ZM96.5772 87.8C99.7772 87.8 102.295 86.7547 104.129 84.664C106.007 82.5733 106.945 79.7787 106.945 76.28C106.945 72.696 106.007 69.88 104.129 67.832C102.295 65.7413 99.7772 64.696 96.5772 64.696C93.3346 64.696 90.7959 65.7413 88.9612 67.832C87.1266 69.88 86.2092 72.696 86.2092 76.28C86.2092 79.8213 87.1266 82.6373 88.9612 84.728C90.7959 86.776 93.3346 87.8 96.5772 87.8ZM132.744 76.344C132.744 71.9067 133.662 67.96 135.496 64.504C137.374 61.0053 140.019 58.296 143.432 56.376C146.846 54.4133 150.771 53.432 155.208 53.432C160.84 53.432 165.576 54.9467 169.416 57.976C173.256 60.9627 175.731 65.0373 176.84 70.2H163.336C162.526 68.4933 161.395 67.192 159.944 66.296C158.536 65.4 156.894 64.952 155.016 64.952C152.115 64.952 149.79 65.9973 148.04 68.088C146.334 70.136 145.48 72.888 145.48 76.344C145.48 79.8427 146.334 82.6373 148.04 84.728C149.79 86.776 152.115 87.8 155.016 87.8C156.894 87.8 158.536 87.352 159.944 86.456C161.395 85.56 162.526 84.2587 163.336 82.552H176.84C175.731 87.7147 173.256 91.8107 169.416 94.84C165.576 97.8267 160.84 99.32 155.208 99.32C150.771 99.32 146.846 98.36 143.432 96.44C140.019 94.4773 137.374 91.768 135.496 88.312C133.662 84.8133 132.744 80.824 132.744 76.344ZM218.428 99L204.284 79.224V99H191.74V53.88H204.284V73.336L218.3 53.88H232.764L216.188 75.768L233.596 99H218.428ZM259.682 53.88V99H247.138V53.88H259.682ZM288.329 63.928V71.288H302.729V80.824H288.329V88.952H304.649V99H275.785V53.88H304.649V63.928H288.329ZM336.832 99.448C331.584 99.448 327.274 98.2107 323.904 95.736C320.533 93.2187 318.72 89.6347 318.464 84.984H331.84C331.968 86.5627 332.437 87.7147 333.248 88.44C334.058 89.1653 335.104 89.528 336.384 89.528C337.536 89.528 338.474 89.2507 339.2 88.696C339.968 88.0987 340.352 87.288 340.352 86.264C340.352 84.9413 339.733 83.9173 338.496 83.192C337.258 82.4667 335.253 81.656 332.48 80.76C329.536 79.7787 327.146 78.84 325.312 77.944C323.52 77.0053 321.941 75.6613 320.576 73.912C319.253 72.12 318.592 69.7947 318.592 66.936C318.592 64.0347 319.317 61.56 320.768 59.512C322.218 57.4213 324.224 55.8427 326.784 54.776C329.344 53.7093 332.245 53.176 335.488 53.176C340.736 53.176 344.917 54.4133 348.032 56.888C351.189 59.32 352.874 62.7547 353.088 67.192H339.456C339.413 65.8267 338.986 64.8027 338.176 64.12C337.408 63.4373 336.405 63.096 335.168 63.096C334.229 63.096 333.461 63.3733 332.864 63.928C332.266 64.4827 331.968 65.272 331.968 66.296C331.968 67.1493 332.288 67.896 332.928 68.536C333.61 69.1333 334.442 69.6667 335.424 70.136C336.405 70.5627 337.856 71.1173 339.776 71.8C342.634 72.7813 344.981 73.7627 346.816 74.744C348.693 75.6827 350.293 77.0267 351.616 78.776C352.981 80.4827 353.664 82.6587 353.664 85.304C353.664 87.992 352.981 90.4027 351.616 92.536C350.293 94.6693 348.352 96.3547 345.792 97.592C343.274 98.8293 340.288 99.448 336.832 99.448Z" fill="white"/>
<path d="M161.013 15.0902C160.383 12.6941 158.505 10.8096 156.132 10.1606C151.832 9 134.581 9 134.581 9C134.581 9 117.331 9 113.03 10.1606C110.658 10.7971 108.792 12.6941 108.149 15.0902C107 19.4333 107 28.5062 107 28.5062C107 28.5062 107 37.5667 108.149 41.9222C108.779 44.3184 110.658 46.2029 113.03 46.8518C117.331 48.0125 134.581 48.0125 134.581 48.0125C134.581 48.0125 151.832 48.0125 156.132 46.8518C158.505 46.2154 160.37 44.3184 161.013 41.9222C162.162 37.5792 162.162 28.5062 162.162 28.5062C162.162 28.5062 162.162 19.4458 161.013 15.0902Z" fill="#FF0000"/>
<path d="M129.058 36.8554L143.392 28.4938L129.058 20.1446V36.8554Z" fill="white"/>
<path d="M187.074 44.4806C185.987 43.7318 185.209 42.5837 184.751 41.0112C184.294 39.4387 184.059 37.3545 184.059 34.7587V31.2144C184.059 28.5811 184.319 26.472 184.85 24.8745C185.382 23.2771 186.197 22.1165 187.322 21.3926C188.434 20.6563 189.904 20.2944 191.721 20.2944C193.513 20.2944 194.946 20.6688 196.021 21.4051C197.096 22.1539 197.887 23.3145 198.394 24.887C198.888 26.472 199.147 28.5686 199.147 31.2019V34.7462C199.147 37.3545 198.9 39.4387 198.418 41.0237C197.936 42.6086 197.146 43.7568 196.046 44.4931C194.958 45.2294 193.475 45.5913 191.61 45.5913C189.694 45.5913 188.187 45.2169 187.087 44.4806H187.074ZM193.191 40.6493C193.488 39.8505 193.648 38.5526 193.648 36.743V29.1302C193.648 27.383 193.5 26.0976 193.191 25.2864C192.882 24.4752 192.351 24.0758 191.597 24.0758C190.856 24.0758 190.337 24.4752 190.04 25.2864C189.731 26.0976 189.583 27.383 189.583 29.1302V36.743C189.583 38.5526 189.731 39.8505 190.015 40.6493C190.3 41.448 190.831 41.8473 191.597 41.8473C192.363 41.8473 192.895 41.448 193.191 40.6493Z" fill="white"/>
<path d="M270.881 34.8211V36.0566C270.881 37.6291 270.93 38.8022 271.016 39.5885C271.103 40.3747 271.301 40.9488 271.585 41.2982C271.869 41.6602 272.326 41.8349 272.932 41.8349C273.747 41.8349 274.303 41.5104 274.612 40.8739C274.909 40.2374 275.082 39.1766 275.107 37.6915L279.802 37.9661C279.827 38.1782 279.839 38.4653 279.839 38.8397C279.839 41.0986 279.222 42.7834 278.011 43.9066C276.787 45.0173 275.057 45.5789 272.821 45.5789C270.139 45.5789 268.261 44.7302 267.173 43.033C266.098 41.3357 265.555 38.7024 265.555 35.1456V30.8774C265.555 27.2083 266.111 24.5376 267.235 22.8528C268.347 21.168 270.263 20.3194 272.981 20.3194C274.847 20.3194 276.281 20.6688 277.282 21.3552C278.282 22.0416 278.987 23.1274 279.395 24.5875C279.802 26.0477 280.012 28.0694 280.012 30.6403V34.8211H270.893H270.881ZM271.573 24.5376C271.301 24.887 271.115 25.4486 271.016 26.2349C270.918 27.0211 270.881 28.2067 270.881 29.8042V31.5638H274.86V29.8042C274.86 28.2317 274.81 27.0461 274.699 26.2349C274.588 25.4237 274.402 24.8496 274.13 24.5251C273.859 24.1882 273.426 24.0259 272.845 24.0259C272.265 24.0259 271.844 24.2006 271.56 24.5501L271.573 24.5376Z" fill="white"/>
<path d="M173.815 34.3594L167.624 11.7706H173.024L175.199 22.0166C175.755 24.5376 176.163 26.6966 176.423 28.4688H176.583C176.769 27.1958 177.176 25.0618 177.807 22.0541L180.056 11.7706H185.456L179.178 34.3594V45.2045H173.815V34.3594Z" fill="white"/>
<path d="M216.707 20.7686V45.192H212.444L211.974 42.2093H211.85C210.689 44.4682 208.959 45.5914 206.648 45.5914C205.042 45.5914 203.855 45.0547 203.102 43.9939C202.335 42.9331 201.952 41.2733 201.952 39.0144V20.7686H207.402V38.7024C207.402 39.7882 207.525 40.5744 207.76 41.0362C207.995 41.4979 208.39 41.735 208.947 41.735C209.416 41.735 209.873 41.5853 210.306 41.2982C210.738 41.0112 211.06 40.6368 211.27 40.1875V20.7811H216.719L216.707 20.7686Z" fill="white"/>
<path d="M244.634 20.7686V45.192H240.371L239.901 42.2093H239.778C238.616 44.4682 236.886 45.5914 234.575 45.5914C232.969 45.5914 231.783 45.0547 231.029 43.9939C230.263 42.9331 229.88 41.2733 229.88 39.0144V20.7686H235.329V38.7024C235.329 39.7882 235.453 40.5744 235.687 41.0362C235.922 41.4979 236.318 41.735 236.874 41.735C237.343 41.735 237.8 41.5853 238.233 41.2982C238.665 41.0112 238.987 40.6368 239.197 40.1875V20.7811H244.646L244.634 20.7686Z" fill="white"/>
<path d="M231.498 16.1885H226.098V45.192H220.772V16.1885H215.36V11.7706H231.498V16.1885Z" fill="white"/>
<path d="M262.651 24.6749C262.317 23.1398 261.786 22.0166 261.057 21.3302C260.315 20.6438 259.302 20.2944 258.017 20.2944C257.016 20.2944 256.089 20.5814 255.212 21.1555C254.347 21.7296 253.667 22.4784 253.197 23.4019H253.16V10.535H247.909V45.2045H252.407L252.963 42.8957H253.086C253.506 43.7194 254.137 44.3683 254.977 44.8426C255.817 45.3168 256.756 45.5539 257.782 45.5539C259.623 45.5539 260.982 44.6928 261.847 42.983C262.712 41.2733 263.145 38.5901 263.145 34.9584V31.0896C263.145 28.3565 262.984 26.2099 262.651 24.6749ZM257.658 34.6339C257.658 36.4186 257.584 37.8038 257.436 38.8147C257.288 39.8256 257.053 40.537 256.707 40.9613C256.361 41.3856 255.904 41.5978 255.323 41.5978C254.878 41.5978 254.458 41.4979 254.075 41.2733C253.692 41.0611 253.383 40.7366 253.148 40.3123V26.447C253.333 25.7856 253.642 25.2365 254.1 24.8122C254.544 24.3878 255.039 24.1757 255.558 24.1757C256.114 24.1757 256.534 24.4003 256.843 24.8371C257.139 25.2739 257.362 26.0102 257.473 27.0461C257.597 28.0819 257.646 29.5546 257.646 31.464V34.609L257.658 34.6339Z" fill="white"/>
</g>
<defs>
<filter id="filter0_d_1_2" x="102.551" y="5.44807" width="181.111" height="176.6" filterUnits="userSpaceOnUse" color-interpolation-filters="sRGB">
<feFlood flood-opacity="0" result="BackgroundImageFix"/>
<feColorMatrix in="SourceAlpha" type="matrix" values="0 0 0 0 0 0 0 0 0 0 0 0 0 0 0 0 0 0 127 0" result="hardAlpha"/>
<feOffset dy="4"/>
<feGaussianBlur stdDeviation="2"/>
<feComposite in2="hardAlpha" operator="out"/>
<feColorMatrix type="matrix" values="0 0 0 0 0 0 0 0 0 0 0 0 0 0 0 0 0 0 0.25 0"/>
<feBlend mode="normal" in2="BackgroundImageFix" result="effect1_dropShadow_1_2"/>
<feBlend mode="normal" in="SourceGraphic" in2="effect1_dropShadow_1_2" result="shape"/>
</filter>
<clipPath id="clip0_1_2">
<rect width="385" height="200" fill="white"/>
</clipPath>
</defs>
</svg>
