<svg width="50" height="50" viewBox="0 0 50 50" fill="none" xmlns="http://www.w3.org/2000/svg">
<mask id="mask0_1_66" style="mask-type:alpha" maskUnits="userSpaceOnUse" x="0" y="0" width="50" height="50">
<circle cx="25" cy="25" r="25" fill="#D9D9D9"/>
</mask>
<g mask="url(#mask0_1_66)">
<rect width="50" height="50" fill="black"/>
<path d="M6.984 32.322V33.565H4.938V40H3.398V33.565H1.352V32.322H6.984ZM12.0676 40L10.3736 37.008H9.64763V40H8.10763V32.322H10.9896C11.5836 32.322 12.0896 32.4283 12.5076 32.641C12.9256 32.8463 13.2373 33.1287 13.4426 33.488C13.6553 33.84 13.7616 34.236 13.7616 34.676C13.7616 35.182 13.615 35.6403 13.3216 36.051C13.0283 36.4543 12.592 36.733 12.0126 36.887L13.8496 40H12.0676ZM9.64763 35.853H10.9346C11.3526 35.853 11.6643 35.754 11.8696 35.556C12.075 35.3507 12.1776 35.0683 12.1776 34.709C12.1776 34.357 12.075 34.0857 11.8696 33.895C11.6643 33.697 11.3526 33.598 10.9346 33.598H9.64763V35.853ZM19.8625 38.537H16.8045L16.2985 40H14.6815L17.4425 32.311H19.2355L21.9965 40H20.3685L19.8625 38.537ZM19.4445 37.305L18.3335 34.093L17.2225 37.305H19.4445ZM24.5685 32.322V40H23.0285V32.322H24.5685ZM27.6301 38.779H30.1601V40H26.0901V32.322H27.6301V38.779ZM32.6789 33.565V35.49H35.2639V36.711H32.6789V38.746H35.5939V40H31.1389V32.311H35.5939V33.565H32.6789ZM40.9534 40L39.2594 37.008H38.5334V40H36.9934V32.322H39.8754C40.4694 32.322 40.9754 32.4283 41.3934 32.641C41.8114 32.8463 42.123 33.1287 42.3284 33.488C42.541 33.84 42.6474 34.236 42.6474 34.676C42.6474 35.182 42.5007 35.6403 42.2074 36.051C41.914 36.4543 41.4777 36.733 40.8984 36.887L42.7354 40H40.9534ZM38.5334 35.853H39.8204C40.2384 35.853 40.55 35.754 40.7554 35.556C40.9607 35.3507 41.0634 35.0683 41.0634 34.709C41.0634 34.357 40.9607 34.0857 40.7554 33.895C40.55 33.697 40.2384 33.598 39.8204 33.598H38.5334V35.853ZM46.6913 40.077C46.1559 40.077 45.6719 39.9853 45.2393 39.802C44.8139 39.6187 44.4766 39.3547 44.2273 39.01C43.9779 38.6653 43.8496 38.2583 43.8423 37.789H45.4923C45.5143 38.1043 45.6243 38.3537 45.8223 38.537C46.0276 38.7203 46.3063 38.812 46.6583 38.812C47.0176 38.812 47.2999 38.7277 47.5053 38.559C47.7106 38.383 47.8133 38.1557 47.8133 37.877C47.8133 37.6497 47.7436 37.4627 47.6043 37.316C47.4649 37.1693 47.2889 37.0557 47.0763 36.975C46.8709 36.887 46.5849 36.7917 46.2183 36.689C45.7196 36.5423 45.3126 36.3993 44.9973 36.26C44.6893 36.1133 44.4216 35.897 44.1943 35.611C43.9743 35.3177 43.8643 34.929 43.8643 34.445C43.8643 33.9903 43.9779 33.5943 44.2053 33.257C44.4326 32.9197 44.7516 32.663 45.1623 32.487C45.5729 32.3037 46.0423 32.212 46.5703 32.212C47.3623 32.212 48.0039 32.4063 48.4953 32.795C48.9939 33.1763 49.2689 33.7117 49.3203 34.401H47.6263C47.6116 34.137 47.4979 33.9207 47.2853 33.752C47.0799 33.576 46.8049 33.488 46.4603 33.488C46.1596 33.488 45.9176 33.565 45.7343 33.719C45.5583 33.873 45.4703 34.0967 45.4703 34.39C45.4703 34.5953 45.5363 34.7677 45.6683 34.907C45.8076 35.039 45.9763 35.149 46.1743 35.237C46.3796 35.3177 46.6656 35.413 47.0323 35.523C47.5309 35.6697 47.9379 35.8163 48.2533 35.963C48.5686 36.1097 48.8399 36.3297 49.0673 36.623C49.2946 36.9163 49.4083 37.3013 49.4083 37.778C49.4083 38.1887 49.3019 38.57 49.0892 38.922C48.8766 39.274 48.5649 39.5563 48.1543 39.769C47.7436 39.9743 47.2559 40.077 46.6913 40.077Z" fill="#282828"/>
<path d="M6.984 22.322V23.565H4.938V30H3.398V23.565H1.352V22.322H6.984ZM12.0676 30L10.3736 27.008H9.64763V30H8.10763V22.322H10.9896C11.5836 22.322 12.0896 22.4283 12.5076 22.641C12.9256 22.8463 13.2373 23.1287 13.4426 23.488C13.6553 23.84 13.7616 24.236 13.7616 24.676C13.7616 25.182 13.615 25.6403 13.3216 26.051C13.0283 26.4543 12.592 26.733 12.0126 26.887L13.8496 30H12.0676ZM9.64763 25.853H10.9346C11.3526 25.853 11.6643 25.754 11.8696 25.556C12.075 25.3507 12.1776 25.0683 12.1776 24.709C12.1776 24.357 12.075 24.0857 11.8696 23.895C11.6643 23.697 11.3526 23.598 10.9346 23.598H9.64763V25.853ZM19.8625 28.537H16.8045L16.2985 30H14.6815L17.4425 22.311H19.2355L21.9965 30H20.3685L19.8625 28.537ZM19.4445 27.305L18.3335 24.093L17.2225 27.305H19.4445ZM24.5685 22.322V30H23.0285V22.322H24.5685ZM27.6301 28.779H30.1601V30H26.0901V22.322H27.6301V28.779ZM32.6789 23.565V25.49H35.2639V26.711H32.6789V28.746H35.5939V30H31.1389V22.311H35.5939V23.565H32.6789ZM40.9534 30L39.2594 27.008H38.5334V30H36.9934V22.322H39.8754C40.4694 22.322 40.9754 22.4283 41.3934 22.641C41.8114 22.8463 42.123 23.1287 42.3284 23.488C42.541 23.84 42.6474 24.236 42.6474 24.676C42.6474 25.182 42.5007 25.6403 42.2074 26.051C41.914 26.4543 41.4777 26.733 40.8984 26.887L42.7354 30H40.9534ZM38.5334 25.853H39.8204C40.2384 25.853 40.55 25.754 40.7554 25.556C40.9607 25.3507 41.0634 25.0683 41.0634 24.709C41.0634 24.357 40.9607 24.0857 40.7554 23.895C40.55 23.697 40.2384 23.598 39.8204 23.598H38.5334V25.853ZM46.6913 30.077C46.1559 30.077 45.6719 29.9853 45.2393 29.802C44.8139 29.6187 44.4766 29.3547 44.2273 29.01C43.9779 28.6653 43.8496 28.2583 43.8423 27.789H45.4923C45.5143 28.1043 45.6243 28.3537 45.8223 28.537C46.0276 28.7203 46.3063 28.812 46.6583 28.812C47.0176 28.812 47.2999 28.7277 47.5053 28.559C47.7106 28.383 47.8133 28.1557 47.8133 27.877C47.8133 27.6497 47.7436 27.4627 47.6043 27.316C47.4649 27.1693 47.2889 27.0557 47.0763 26.975C46.8709 26.887 46.5849 26.7917 46.2183 26.689C45.7196 26.5423 45.3126 26.3993 44.9973 26.26C44.6893 26.1133 44.4216 25.897 44.1943 25.611C43.9743 25.3177 43.8643 24.929 43.8643 24.445C43.8643 23.9903 43.9779 23.5943 44.2053 23.257C44.4326 22.9197 44.7516 22.663 45.1623 22.487C45.5729 22.3037 46.0423 22.212 46.5703 22.212C47.3623 22.212 48.0039 22.4063 48.4953 22.795C48.9939 23.1763 49.2689 23.7117 49.3203 24.401H47.6263C47.6116 24.137 47.4979 23.9207 47.2853 23.752C47.0799 23.576 46.8049 23.488 46.4603 23.488C46.1596 23.488 45.9176 23.565 45.7343 23.719C45.5583 23.873 45.4703 24.0967 45.4703 24.39C45.4703 24.5953 45.5363 24.7677 45.6683 24.907C45.8076 25.039 45.9763 25.149 46.1743 25.237C46.3796 25.3177 46.6656 25.413 47.0323 25.523C47.5309 25.6697 47.9379 25.8163 48.2533 25.963C48.5686 26.1097 48.8399 26.3297 49.0673 26.623C49.2946 26.9163 49.4083 27.3013 49.4083 27.778C49.4083 28.1887 49.3019 28.57 49.0892 28.922C48.8766 29.274 48.5649 29.5563 48.1543 29.769C47.7436 29.9743 47.2559 30.077 46.6913 30.077Z" fill="#282828"/>
<path d="M6.984 42.322V43.565H4.938V50H3.398V43.565H1.352V42.322H6.984ZM12.0676 50L10.3736 47.008H9.64763V50H8.10763V42.322H10.9896C11.5836 42.322 12.0896 42.4283 12.5076 42.641C12.9256 42.8463 13.2373 43.1287 13.4426 43.488C13.6553 43.84 13.7616 44.236 13.7616 44.676C13.7616 45.182 13.615 45.6403 13.3216 46.051C13.0283 46.4543 12.592 46.733 12.0126 46.887L13.8496 50H12.0676ZM9.64763 45.853H10.9346C11.3526 45.853 11.6643 45.754 11.8696 45.556C12.075 45.3507 12.1776 45.0683 12.1776 44.709C12.1776 44.357 12.075 44.0857 11.8696 43.895C11.6643 43.697 11.3526 43.598 10.9346 43.598H9.64763V45.853ZM19.8625 48.537H16.8045L16.2985 50H14.6815L17.4425 42.311H19.2355L21.9965 50H20.3685L19.8625 48.537ZM19.4445 47.305L18.3335 44.093L17.2225 47.305H19.4445ZM24.5685 42.322V50H23.0285V42.322H24.5685ZM27.6301 48.779H30.1601V50H26.0901V42.322H27.6301V48.779ZM32.6789 43.565V45.49H35.2639V46.711H32.6789V48.746H35.5939V50H31.1389V42.311H35.5939V43.565H32.6789ZM40.9534 50L39.2594 47.008H38.5334V50H36.9934V42.322H39.8754C40.4694 42.322 40.9754 42.4283 41.3934 42.641C41.8114 42.8463 42.123 43.1287 42.3284 43.488C42.541 43.84 42.6474 44.236 42.6474 44.676C42.6474 45.182 42.5007 45.6403 42.2074 46.051C41.914 46.4543 41.4777 46.733 40.8984 46.887L42.7354 50H40.9534ZM38.5334 45.853H39.8204C40.2384 45.853 40.55 45.754 40.7554 45.556C40.9607 45.3507 41.0634 45.0683 41.0634 44.709C41.0634 44.357 40.9607 44.0857 40.7554 43.895C40.55 43.697 40.2384 43.598 39.8204 43.598H38.5334V45.853ZM46.6913 50.077C46.1559 50.077 45.6719 49.9853 45.2393 49.802C44.8139 49.6187 44.4766 49.3547 44.2273 49.01C43.9779 48.6653 43.8496 48.2583 43.8423 47.789H45.4923C45.5143 48.1043 45.6243 48.3537 45.8223 48.537C46.0276 48.7203 46.3063 48.812 46.6583 48.812C47.0176 48.812 47.2999 48.7277 47.5053 48.559C47.7106 48.383 47.8133 48.1557 47.8133 47.877C47.8133 47.6497 47.7436 47.4627 47.6043 47.316C47.4649 47.1693 47.2889 47.0557 47.0763 46.975C46.8709 46.887 46.5849 46.7917 46.2183 46.689C45.7196 46.5423 45.3126 46.3993 44.9973 46.26C44.6893 46.1133 44.4216 45.897 44.1943 45.611C43.9743 45.3177 43.8643 44.929 43.8643 44.445C43.8643 43.9903 43.9779 43.5943 44.2053 43.257C44.4326 42.9197 44.7516 42.663 45.1623 42.487C45.5729 42.3037 46.0423 42.212 46.5703 42.212C47.3623 42.212 48.0039 42.4063 48.4953 42.795C48.9939 43.1763 49.2689 43.7117 49.3203 44.401H47.6263C47.6116 44.137 47.4979 43.9207 47.2853 43.752C47.0799 43.576 46.8049 43.488 46.4603 43.488C46.1596 43.488 45.9176 43.565 45.7343 43.719C45.5583 43.873 45.4703 44.0967 45.4703 44.39C45.4703 44.5953 45.5363 44.7677 45.6683 44.907C45.8076 45.039 45.9763 45.149 46.1743 45.237C46.3796 45.3177 46.6656 45.413 47.0323 45.523C47.5309 45.6697 47.9379 45.8163 48.2533 45.963C48.5686 46.1097 48.8399 46.3297 49.0673 46.623C49.2946 46.9163 49.4083 47.3013 49.4083 47.778C49.4083 48.1887 49.3019 48.57 49.0892 48.922C48.8766 49.274 48.5649 49.5563 48.1543 49.769C47.7436 49.9743 47.2559 50.077 46.6913 50.077Z" fill="#282828"/>
<path d="M14.669 12.245V20H12.513V15.721L11.05 20H9.246L7.772 15.688V20H5.616V12.245H8.223L10.17 17.283L12.073 12.245H14.669ZM18.0523 13.972V15.237H20.5273V16.876H18.0523V18.273H20.8573V20H15.8963V12.245H20.8573V13.972H18.0523ZM21.6586 16.106C21.6586 15.3433 21.8163 14.665 22.1316 14.071C22.4543 13.4697 22.909 13.004 23.4956 12.674C24.0823 12.3367 24.757 12.168 25.5196 12.168C26.4876 12.168 27.3016 12.4283 27.9616 12.949C28.6216 13.4623 29.047 14.1627 29.2376 15.05H26.9166C26.7773 14.7567 26.583 14.533 26.3336 14.379C26.0916 14.225 25.8093 14.148 25.4866 14.148C24.988 14.148 24.5883 14.3277 24.2876 14.687C23.9943 15.039 23.8476 15.512 23.8476 16.106C23.8476 16.7073 23.9943 17.1877 24.2876 17.547C24.5883 17.899 24.988 18.075 25.4866 18.075C25.8093 18.075 26.0916 17.998 26.3336 17.844C26.583 17.69 26.7773 17.4663 26.9166 17.173H29.2376C29.047 18.0603 28.6216 18.7643 27.9616 19.285C27.3016 19.7983 26.4876 20.055 25.5196 20.055C24.757 20.055 24.0823 19.89 23.4956 19.56C22.909 19.2227 22.4543 18.757 22.1316 18.163C21.8163 17.5617 21.6586 16.876 21.6586 16.106ZM37.1996 12.245V20H35.0436V16.887H32.4146V20H30.2586V12.245H32.4146V15.16H35.0436V12.245H37.1996ZM43.3394 18.735H40.5894L40.1714 20H37.9054L40.7324 12.245H43.2184L46.0344 20H43.7574L43.3394 18.735ZM42.8004 17.085L41.9644 14.577L41.1394 17.085H42.8004Z" fill="#282828"/>
<path d="M14.669 2.245V10H12.513V5.721L11.05 10H9.246L7.772 5.688V10H5.616V2.245H8.223L10.17 7.283L12.073 2.245H14.669ZM18.0523 3.972V5.237H20.5273V6.876H18.0523V8.273H20.8573V10H15.8963V2.245H20.8573V3.972H18.0523ZM21.6586 6.106C21.6586 5.34333 21.8163 4.665 22.1316 4.071C22.4543 3.46967 22.909 3.004 23.4956 2.674C24.0823 2.33667 24.757 2.168 25.5196 2.168C26.4876 2.168 27.3016 2.42833 27.9616 2.949C28.6216 3.46233 29.047 4.16267 29.2376 5.05H26.9166C26.7773 4.75667 26.583 4.533 26.3336 4.379C26.0916 4.225 25.8093 4.148 25.4866 4.148C24.988 4.148 24.5883 4.32767 24.2876 4.687C23.9943 5.039 23.8476 5.512 23.8476 6.106C23.8476 6.70733 23.9943 7.18767 24.2876 7.547C24.5883 7.899 24.988 8.075 25.4866 8.075C25.8093 8.075 26.0916 7.998 26.3336 7.844C26.583 7.69 26.7773 7.46633 26.9166 7.173H29.2376C29.047 8.06033 28.6216 8.76433 27.9616 9.285C27.3016 9.79833 26.4876 10.055 25.5196 10.055C24.757 10.055 24.0823 9.89 23.4956 9.56C22.909 9.22267 22.4543 8.757 22.1316 8.163C21.8163 7.56167 21.6586 6.876 21.6586 6.106ZM37.1996 2.245V10H35.0436V6.887H32.4146V10H30.2586V2.245H32.4146V5.16H35.0436V2.245H37.1996ZM43.3394 8.735H40.5894L40.1714 10H37.9054L40.7324 2.245H43.2184L46.0344 10H43.7574L43.3394 8.735ZM42.8004 7.085L41.9644 4.577L41.1394 7.085H42.8004Z" fill="#282828"/>
<g clip-path="url(#clip0_1_66)">
<mask id="mask1_1_66" style="mask-type:luminance" maskUnits="userSpaceOnUse" x="-4" y="3" width="70" height="39">
<path d="M-4 3H66V42H-4V3Z" fill="white"/>
</mask>
<g mask="url(#mask1_1_66)">
<path fill-rule="evenodd" clip-rule="evenodd" d="M38.139 2.9996L18.847 13.5868L36.501 13.6773L38.1207 8.45603L39.686 13.7225L57.1398 13.5234L38.139 2.9996Z" fill="#E81D2D"/>
<path fill-rule="evenodd" clip-rule="evenodd" d="M18.0325 14.5143H19.8297L17.0724 17.4778L14.4789 27.0244L16.6265 29.7165L18.0371 29.6939L19.1199 33.1778L15.2387 33.2004L11.8854 29.8297L15.2979 17.5684L18.0325 14.5143Z" fill="#E81D2D"/>
<path fill-rule="evenodd" clip-rule="evenodd" d="M29.221 14.5369L26.7639 17.9303L24.3069 26.1196L21.0128 29.5808L18.806 29.6487L19.989 33.223H23.0602L28.4293 28.0424L26.3544 25.5766L28.1745 21.6856L34.9084 19.2424L36.0505 14.6275L29.221 14.5369Z" fill="#E81D2D"/>
<path fill-rule="evenodd" clip-rule="evenodd" d="M29.4029 28.6171L29.4485 33.2773L34.317 31.1417L35.5454 26.1648L29.4029 28.6171Z" fill="#E81D2D"/>
<path fill-rule="evenodd" clip-rule="evenodd" d="M20.8489 14.4917H28.1289L25.8994 17.523L23.5335 25.6219L20.7853 28.6759L16.986 28.7664L15.3889 26.8435L17.8459 17.7946L20.8489 14.4917Z" fill="#E81D2D"/>
<path fill-rule="evenodd" clip-rule="evenodd" d="M15.2525 34.1731H28.5384L24.3525 41.6385L16.936 42.0004L14.6609 40.3717L15.2525 34.1731Z" fill="#E81D2D"/>
<path fill-rule="evenodd" clip-rule="evenodd" d="M28.7978 22.3779L27.2963 25.4885L29.1391 27.6376L41.2329 23.043L38.1207 10.1483L35.409 19.9663L28.7978 22.3779Z" fill="white"/>
<path fill-rule="evenodd" clip-rule="evenodd" d="M13.2777 22.3642L11.8217 27.4316L4.86028 25.3505L10.2292 11.8222L10.4567 21.5951L13.2777 22.3642Z" fill="white"/>
<path fill-rule="evenodd" clip-rule="evenodd" d="M28.7068 33.3136V28.866L24.0161 33.3136H28.7068Z" fill="white"/>
</g>
</g>
</g>
<defs>
<clipPath id="clip0_1_66">
<rect width="70" height="39" fill="white" transform="translate(-4 3)"/>
</clipPath>
</defs>
</svg>
