<svg width="385" height="200" viewBox="0 0 385 200" fill="none" xmlns="http://www.w3.org/2000/svg">
<g clip-path="url(#clip0_1_2)">
<rect width="385" height="200" fill="#2B2B2B"/>
<g filter="url(#filter0_d_1_2)">
<path d="M177.738 16.1313C186.364 10.0875 197.897 10.2721 206.324 16.589L216.93 24.539C252.803 51.4279 276.522 91.4687 282.867 135.849L283.614 141.07C285.787 156.27 276.505 170.771 261.792 175.163L236.257 182.784C207.527 191.359 176.902 191.246 148.236 182.458L120.201 173.864C108.227 170.194 100.608 158.466 102.121 146.034L102.71 141.199C108.849 90.7552 136.122 45.292 177.738 16.1313V16.1313Z" fill="#2B2B2B"/>
<path d="M104.603 146.336L105.191 141.501C111.245 91.7612 138.138 46.9325 179.173 18.1787C186.913 12.7552 197.262 12.9209 204.825 18.5894L215.431 26.5394C250.773 53.0306 274.141 92.479 280.393 136.203L281.139 141.424C283.137 155.398 274.604 168.73 261.077 172.767L235.542 180.388C207.284 188.823 177.163 188.711 148.968 180.068L120.933 171.474C110.118 168.159 103.236 157.566 104.603 146.336Z" stroke="#1BAF2A" stroke-width="5"/>
</g>
<path d="M192.197 13.3418L193.768 101.468C193.849 105.986 196.27 110.139 200.163 112.434L277.239 157.885L198.409 115.009C194.536 112.903 189.859 112.903 185.986 115.009L107.156 157.885L184.231 112.434C188.124 110.139 190.546 105.987 190.626 101.468L192.197 13.3418Z" fill="#1BAF2A"/>
<path d="M42.6908 183V156.312C42.6908 153.816 43.2988 151.544 44.5148 149.496C45.7948 147.448 47.4588 145.816 49.5068 144.6C51.5548 143.384 53.8268 142.776 56.3228 142.776H96.6428C96.7708 142.776 96.8988 142.712 97.0268 142.584C97.1548 142.456 97.2188 142.328 97.2188 142.2V128.088C97.2188 127.96 97.1548 127.832 97.0268 127.704C96.8988 127.576 96.7708 127.512 96.6428 127.512H56.8988C56.7708 127.512 56.6428 127.576 56.5148 127.704C56.3868 127.832 56.3228 127.96 56.3228 128.088V133.272H42.6908V127.416C42.6908 124.92 43.2988 122.648 44.5148 120.6C45.7948 118.552 47.4588 116.92 49.5068 115.704C51.5548 114.488 53.8268 113.88 56.3228 113.88H97.2188C99.6508 113.88 101.891 114.488 103.939 115.704C106.051 116.92 107.715 118.552 108.931 120.6C110.211 122.648 110.851 124.92 110.851 127.416V142.872C110.851 145.368 110.211 147.64 108.931 149.688C107.715 151.736 106.051 153.4 103.939 154.68C101.891 155.896 99.6508 156.504 97.2188 156.504H56.8988C56.7708 156.504 56.6428 156.568 56.5148 156.696C56.3868 156.824 56.3228 156.952 56.3228 157.08V168.792C56.3228 168.92 56.3868 169.048 56.5148 169.176C56.6428 169.304 56.7708 169.368 56.8988 169.368H110.851V183H42.6908ZM136.01 183C133.514 183 131.242 182.328 129.194 180.984C127.146 179.576 125.482 177.784 124.202 175.608C122.986 173.368 122.378 171.032 122.378 168.6V127.8C122.378 125.304 122.986 123 124.202 120.888C125.482 118.776 127.146 117.08 129.194 115.8C131.242 114.52 133.514 113.88 136.01 113.88H176.906C179.402 113.88 181.674 114.52 183.722 115.8C185.77 117.08 187.402 118.776 188.618 120.888C189.898 123 190.538 125.304 190.538 127.8V168.6C190.538 171.032 189.898 173.368 188.618 175.608C187.402 177.784 185.77 179.576 183.722 180.984C181.674 182.328 179.402 183 176.906 183H136.01ZM142.922 168.504H176.33C176.458 168.504 176.586 168.472 176.714 168.408C176.842 168.28 176.906 168.12 176.906 167.928V140.088L142.922 168.504ZM136.01 156.312L169.994 127.896H136.586C136.458 127.896 136.33 127.96 136.202 128.088C136.074 128.152 136.01 128.28 136.01 128.472V156.312ZM202.441 183V156.312C202.441 153.816 203.049 151.544 204.265 149.496C205.545 147.448 207.209 145.816 209.257 144.6C211.305 143.384 213.577 142.776 216.073 142.776H256.393C256.521 142.776 256.649 142.712 256.777 142.584C256.905 142.456 256.969 142.328 256.969 142.2V128.088C256.969 127.96 256.905 127.832 256.777 127.704C256.649 127.576 256.521 127.512 256.393 127.512H216.649C216.521 127.512 216.393 127.576 216.265 127.704C216.137 127.832 216.073 127.96 216.073 128.088V133.272H202.441V127.416C202.441 124.92 203.049 122.648 204.265 120.6C205.545 118.552 207.209 116.92 209.257 115.704C211.305 114.488 213.577 113.88 216.073 113.88H256.969C259.401 113.88 261.641 114.488 263.689 115.704C265.801 116.92 267.465 118.552 268.681 120.6C269.961 122.648 270.601 124.92 270.601 127.416V142.872C270.601 145.368 269.961 147.64 268.681 149.688C267.465 151.736 265.801 153.4 263.689 154.68C261.641 155.896 259.401 156.504 256.969 156.504H216.649C216.521 156.504 216.393 156.568 216.265 156.696C216.137 156.824 216.073 156.952 216.073 157.08V168.792C216.073 168.92 216.137 169.048 216.265 169.176C216.393 169.304 216.521 169.368 216.649 169.368H270.601V183H202.441ZM319.664 183V165.72H277.232V153.24L320.816 113.88H333.296V151.992H342.704V165.72H333.296V183H319.664ZM299.12 151.992H319.664V135L299.12 151.992Z" fill="#E22222"/>
<path d="M51.997 68.92C51.997 71.6507 51.357 74.1467 50.077 76.408C48.8397 78.6267 46.941 80.4187 44.381 81.784C41.8637 83.1067 38.7703 83.768 35.101 83.768H28.893V99H16.349V53.88H35.101C38.7277 53.88 41.7997 54.52 44.317 55.8C46.877 57.08 48.797 58.8507 50.077 61.112C51.357 63.3733 51.997 65.976 51.997 68.92ZM33.885 73.784C37.4263 73.784 39.197 72.1627 39.197 68.92C39.197 65.6347 37.4263 63.992 33.885 63.992H28.893V73.784H33.885ZM88.8445 99L79.8845 82.36H78.5405V99H65.9965V53.88H85.7725C89.3992 53.88 92.4712 54.52 94.9885 55.8C97.5058 57.0373 99.4045 58.7653 100.685 60.984C101.965 63.16 102.604 65.6133 102.604 68.344C102.604 71.416 101.751 74.1253 100.044 76.472C98.3805 78.776 95.9272 80.4187 92.6845 81.4L102.861 99H88.8445ZM78.5405 73.784H84.7485C86.4552 73.784 87.7352 73.3787 88.5885 72.568C89.4418 71.7573 89.8685 70.584 89.8685 69.048C89.8685 67.5973 89.4205 66.4667 88.5245 65.656C87.6712 64.8027 86.4125 64.376 84.7485 64.376H78.5405V73.784ZM145.813 91.64H129.813L127.381 99H114.197L130.645 53.88H145.109L161.493 99H148.245L145.813 91.64ZM142.677 82.04L137.813 67.448L133.013 82.04H142.677ZM187.086 53.88V99H174.542V53.88H187.086ZM226.037 99L217.077 82.36H215.733V99H203.189V53.88H222.965C226.592 53.88 229.664 54.52 232.181 55.8C234.698 57.0373 236.597 58.7653 237.877 60.984C239.157 63.16 239.797 65.6133 239.797 68.344C239.797 71.416 238.944 74.1253 237.237 76.472C235.573 78.776 233.12 80.4187 229.877 81.4L240.053 99H226.037ZM215.733 73.784H221.941C223.648 73.784 224.928 73.3787 225.781 72.568C226.634 71.7573 227.061 70.584 227.061 69.048C227.061 67.5973 226.613 66.4667 225.717 65.656C224.864 64.8027 223.605 64.376 221.941 64.376H215.733V73.784ZM267.006 53.88V99H254.462V53.88H267.006ZM295.653 63.928V71.288H310.053V80.824H295.653V88.952H311.973V99H283.109V53.88H311.973V63.928H295.653ZM344.155 99.448C338.907 99.448 334.598 98.2107 331.227 95.736C327.857 93.2187 326.043 89.6347 325.787 84.984H339.163C339.291 86.5627 339.761 87.7147 340.571 88.44C341.382 89.1653 342.427 89.528 343.707 89.528C344.859 89.528 345.798 89.2507 346.523 88.696C347.291 88.0987 347.675 87.288 347.675 86.264C347.675 84.9413 347.057 83.9173 345.819 83.192C344.582 82.4667 342.577 81.656 339.803 80.76C336.859 79.7787 334.47 78.84 332.635 77.944C330.843 77.0053 329.265 75.6613 327.899 73.912C326.577 72.12 325.915 69.7947 325.915 66.936C325.915 64.0347 326.641 61.56 328.091 59.512C329.542 57.4213 331.547 55.8427 334.107 54.776C336.667 53.7093 339.569 53.176 342.811 53.176C348.059 53.176 352.241 54.4133 355.355 56.888C358.513 59.32 360.198 62.7547 360.411 67.192H346.779C346.737 65.8267 346.31 64.8027 345.499 64.12C344.731 63.4373 343.729 63.096 342.491 63.096C341.553 63.096 340.785 63.3733 340.187 63.928C339.59 64.4827 339.291 65.272 339.291 66.296C339.291 67.1493 339.611 67.896 340.251 68.536C340.934 69.1333 341.766 69.6667 342.747 70.136C343.729 70.5627 345.179 71.1173 347.099 71.8C349.958 72.7813 352.305 73.7627 354.139 74.744C356.017 75.6827 357.617 77.0267 358.939 78.776C360.305 80.4827 360.987 82.6587 360.987 85.304C360.987 87.992 360.305 90.4027 358.939 92.536C357.617 94.6693 355.675 96.3547 353.115 97.592C350.598 98.8293 347.611 99.448 344.155 99.448Z" fill="white"/>
</g>
<defs>
<filter id="filter0_d_1_2" x="97.9304" y="11.7218" width="189.998" height="185.412" filterUnits="userSpaceOnUse" color-interpolation-filters="sRGB">
<feFlood flood-opacity="0" result="BackgroundImageFix"/>
<feColorMatrix in="SourceAlpha" type="matrix" values="0 0 0 0 0 0 0 0 0 0 0 0 0 0 0 0 0 0 127 0" result="hardAlpha"/>
<feOffset dy="4"/>
<feGaussianBlur stdDeviation="2"/>
<feComposite in2="hardAlpha" operator="out"/>
<feColorMatrix type="matrix" values="0 0 0 0 0 0 0 0 0 0 0 0 0 0 0 0 0 0 0.25 0"/>
<feBlend mode="normal" in2="BackgroundImageFix" result="effect1_dropShadow_1_2"/>
<feBlend mode="normal" in="SourceGraphic" in2="effect1_dropShadow_1_2" result="shape"/>
</filter>
<clipPath id="clip0_1_2">
<rect width="385" height="200" fill="white"/>
</clipPath>
</defs>
</svg>
