<svg width="250" height="350" viewBox="0 0 250 350" fill="none" xmlns="http://www.w3.org/2000/svg">
<g clip-path="url(#clip0_31_2)">
<path d="M43.0636 103.574C48.2499 108.278 53.962 111.49 59.0414 112.848C64.0643 114.191 68.7725 113.783 71.5318 110.74C74.2911 107.698 74.2399 102.973 72.4144 98.1043C70.5684 93.1812 66.8164 87.8086 61.63 83.1044C56.4437 78.4003 50.7316 75.1887 45.6522 73.8303C40.6293 72.4871 35.9211 72.8958 33.1618 75.938C30.4026 78.9801 30.4537 83.7057 32.2792 88.5742C34.1252 93.4973 37.8773 98.8699 43.0636 103.574Z" stroke="white" stroke-width="2"/>
<path d="M43.4891 103.105C47.8024 107.017 52.3131 109.956 56.147 111.528C58.0598 112.312 59.8563 112.778 61.4045 112.821C62.9481 112.865 64.3832 112.488 65.3521 111.42C66.321 110.352 66.5566 108.887 66.3629 107.355C66.1686 105.818 65.5306 104.075 64.564 102.248C62.6268 98.5853 59.263 94.3818 54.9497 90.4695C50.6364 86.5573 46.1256 83.6183 42.2918 82.0466C40.379 81.2624 38.5825 80.7969 37.0343 80.753C35.4907 80.7092 34.0556 81.0862 33.0867 82.1544C32.1178 83.2227 31.8822 84.6877 32.0759 86.2197C32.2702 87.7563 32.9082 89.4989 33.8748 91.3264C35.812 94.9892 39.1758 99.1926 43.4891 103.105Z" stroke="white" stroke-width="2"/>
<path d="M55.7061 78.595C58.9165 80.6597 61.8182 83.1688 64.3247 86.0476L65.0501 86.8807C70.7888 93.4717 74.5077 101.576 75.7622 110.225L77.4268 121.701L71.1514 128.62L56.8084 134.357V134.357C33.903 132.84 14.8061 115.66 11.2007 92.9898V92.9898L14.8328 77.5374L21.1902 70.5283L39.7341 72.8163C45.4246 73.5184 50.8837 75.4935 55.7061 78.595V78.595Z" stroke="white" stroke-width="2"/>
<circle cx="56.8384" cy="134.478" r="0.777368" transform="rotate(42.2088 56.8384 134.478)" fill="white"/>
<line x1="21.2663" y1="71.0757" x2="17.5234" y2="91.8001" stroke="white"/>
<line x1="17.4474" y1="91.4339" x2="31.9782" y2="113.224" stroke="white"/>
<line x1="31.8158" y1="113.07" x2="58.8393" y2="128.971" stroke="white"/>
<line x1="58.4016" y1="128.937" x2="76.9088" y2="121.604" stroke="white"/>
<line x1="43.9431" y1="104.023" x2="31.831" y2="113.355" stroke="white"/>
<line x1="32.1847" y1="87.492" x2="17.5674" y2="91.3664" stroke="white"/>
<line x1="59.1537" y1="112.434" x2="59.3039" y2="128.82" stroke="white"/>
<line x1="77.3325" y1="121.374" x2="72.6103" y2="108.436" stroke="white"/>
<line x1="21.9865" y1="70.433" x2="35.2284" y2="74.848" stroke="white"/>
<rect x="74.1135" y="63.7589" width="6.72933" height="50.2288" transform="rotate(42.2088 74.1135 63.7589)" fill="black" stroke="white"/>
<path d="M79.4338 67.9096C79.4214 67.9232 79.3669 67.9719 79.1858 67.9727C79.0044 67.9735 78.7508 67.9234 78.4347 67.8018C77.8058 67.5597 77.0293 67.0729 76.2726 66.3866C75.5159 65.7003 74.9559 64.9748 74.6538 64.3724C74.502 64.0696 74.4275 63.8221 74.4106 63.6415C74.3938 63.4612 74.437 63.4022 74.4493 63.3886C74.4617 63.3749 74.5162 63.3262 74.6973 63.3254C74.8787 63.3247 75.1323 63.3747 75.4484 63.4964C76.0773 63.7384 76.8538 64.2252 77.6105 64.9115C78.3672 65.5979 78.9272 66.3233 79.2293 66.9258C79.3811 67.2285 79.4556 67.476 79.4725 67.6567C79.4893 67.8369 79.4461 67.8959 79.4338 67.9096Z" fill="black" stroke="white"/>
<path d="M222.497 179.328C224.683 177.613 226.344 175.575 227.238 173.626C228.107 171.73 228.363 169.626 227.17 168.105C225.977 166.585 223.872 166.333 221.823 166.727C219.717 167.132 217.343 168.261 215.158 169.976C212.973 171.691 211.312 173.729 210.418 175.678C209.548 177.574 209.292 179.679 210.485 181.199C211.679 182.72 213.783 182.971 215.832 182.577C217.938 182.172 220.312 181.043 222.497 179.328Z" stroke="white" stroke-width="2"/>
<path d="M222.346 179.136C224.154 177.717 225.618 176.141 226.511 174.71C226.955 173.999 227.288 173.275 227.424 172.59C227.56 171.91 227.524 171.131 227.028 170.499C226.532 169.867 225.784 169.646 225.091 169.617C224.393 169.587 223.611 169.738 222.814 170C221.212 170.527 219.334 171.574 217.526 172.993C215.718 174.412 214.254 175.988 213.361 177.419C212.917 178.131 212.584 178.854 212.448 179.539C212.312 180.219 212.348 180.998 212.844 181.63C213.34 182.263 214.088 182.483 214.781 182.513C215.479 182.543 216.261 182.391 217.058 182.129C218.66 181.602 220.538 180.555 222.346 179.136Z" stroke="white" stroke-width="2"/>
<path d="M213.439 172.42C214.432 171.333 215.574 170.392 216.831 169.625L217.195 169.404C220.072 167.648 223.395 166.759 226.765 166.842L231.236 166.953L233.46 169.787L234.713 175.612V175.612C232.653 184.224 224.884 190.372 216.03 190.275V190.275L210.389 187.893L208.136 185.022L210.207 178.119C210.843 176.001 211.947 174.053 213.439 172.42V172.42Z" stroke="white" stroke-width="2"/>
<circle cx="234.761" cy="175.609" r="0.299842" transform="rotate(-38.1248 234.761 175.609)" fill="white"/>
<line x1="208.454" y1="184.739" x2="216.092" y2="187.505" stroke="white"/>
<line x1="215.718" y1="187.518" x2="224.944" y2="183.404" stroke="white"/>
<line x1="224.766" y1="183.539" x2="232.562" y2="174.293" stroke="white"/>
<line x1="232.455" y1="174.719" x2="230.865" y2="167.207" stroke="white"/>
<line x1="222.617" y1="178.396" x2="225.381" y2="183.605" stroke="white"/>
<line x1="215.604" y1="181.912" x2="216.131" y2="187.721" stroke="white"/>
<line x1="226.578" y1="172.997" x2="232.818" y2="174.002" stroke="white"/>
<line x1="231.161" y1="167.269" x2="225.936" y2="168.227" stroke="white"/>
<line x1="207.88" y1="184.568" x2="210.417" y2="179.819" stroke="white"/>
<rect x="209.421" y="164.512" width="1.98131" height="18.7597" transform="rotate(-38.1248 209.421 164.512)" fill="black" stroke="white"/>
<mask id="path-30-inside-1_31_2" fill="white">
<ellipse cx="209.892" cy="163.507" rx="1.49066" ry="0.57692" transform="rotate(-38.1248 209.892 163.507)"/>
</mask>
<ellipse cx="209.892" cy="163.507" rx="1.49066" ry="0.57692" transform="rotate(-38.1248 209.892 163.507)" fill="black"/>
<path d="M210.278 163.204C210.095 162.971 210.113 162.737 210.124 162.672C210.135 162.608 210.15 162.604 210.113 162.666C210.043 162.784 209.882 162.976 209.63 163.174L210.865 164.747C211.261 164.437 211.607 164.067 211.832 163.688C211.943 163.501 212.053 163.265 212.097 162.999C212.142 162.732 212.132 162.328 211.851 161.969L210.278 163.204ZM209.63 163.174C209.378 163.372 209.154 163.482 209.022 163.522C208.953 163.543 208.961 163.529 209.025 163.534C209.091 163.539 209.323 163.577 209.506 163.81L207.932 165.045C208.214 165.403 208.605 165.508 208.874 165.529C209.143 165.549 209.398 165.498 209.606 165.435C210.028 165.306 210.47 165.058 210.865 164.747L209.63 163.174ZM209.506 163.81C209.689 164.043 209.67 164.277 209.659 164.342C209.648 164.406 209.633 164.41 209.67 164.348C209.74 164.23 209.901 164.038 210.153 163.84L208.918 162.266C208.522 162.577 208.176 162.947 207.951 163.326C207.84 163.513 207.73 163.749 207.686 164.015C207.642 164.281 207.651 164.686 207.932 165.045L209.506 163.81ZM210.153 163.84C210.405 163.642 210.629 163.532 210.761 163.492C210.83 163.471 210.823 163.484 210.758 163.479C210.692 163.474 210.461 163.437 210.278 163.204L211.851 161.969C211.569 161.611 211.179 161.506 210.909 161.485C210.64 161.465 210.385 161.515 210.177 161.579C209.755 161.708 209.314 161.956 208.918 162.266L210.153 163.84Z" fill="white" mask="url(#path-30-inside-1_31_2)"/>
<path d="M221.702 215.904C227.363 218.31 230.876 223.879 231.892 231.068C232.907 238.248 231.41 246.969 227.133 255.513C222.856 264.057 216.627 270.766 210.04 274.717C203.445 278.672 196.567 279.825 190.906 277.419C185.246 275.014 181.732 269.445 180.717 262.257C179.702 255.076 181.198 246.355 185.476 237.811C189.753 229.267 195.981 222.558 202.568 218.607C209.163 214.652 216.042 213.499 221.702 215.904Z" stroke="white" stroke-width="3"/>
<path d="M218.612 216.759C223.796 218.962 226.908 224.184 227.712 230.896C228.515 237.604 227.007 245.769 222.988 253.798C218.969 261.826 213.206 268.183 207.147 271.975C201.084 275.769 194.752 276.978 189.568 274.775C184.383 272.572 181.271 267.35 180.467 260.638C179.664 253.93 181.172 245.765 185.191 237.737C189.21 229.708 194.973 223.351 201.032 219.559C207.095 215.765 213.427 214.556 218.612 216.759Z" stroke="white"/>
<path d="M217.426 218.239C221.931 220.153 224.623 224.884 225.208 231.16C225.791 237.419 224.259 245.107 220.446 252.725C216.632 260.343 211.28 266.408 205.733 270.062C200.172 273.727 194.519 274.911 190.015 272.997C185.51 271.083 182.818 266.352 182.233 260.076C181.649 253.817 183.181 246.129 186.995 238.51C190.809 230.892 196.161 224.828 201.707 221.173C207.269 217.509 212.922 216.325 217.426 218.239Z" stroke="white" stroke-width="3"/>
<path d="M214.602 226.54C217.717 227.864 219.498 231.222 219.811 235.649C220.124 240.069 218.968 245.511 216.258 250.923C213.549 256.335 209.807 260.678 205.956 263.328C202.097 265.982 198.168 266.914 195.053 265.591C191.939 264.267 190.157 260.909 189.844 256.482C189.531 252.062 190.688 246.62 193.397 241.208C196.106 235.796 199.848 231.452 203.7 228.803C207.558 226.148 211.487 225.217 214.602 226.54Z" stroke="white"/>
<path d="M213.663 224.87C217.034 226.303 219.077 229.839 219.532 234.571C219.986 239.287 218.842 245.084 215.966 250.83C213.09 256.575 209.047 261.139 204.859 263.883C200.657 266.636 196.41 267.499 193.04 266.067C189.669 264.635 187.625 261.098 187.17 256.366C186.716 251.65 187.86 245.853 190.736 240.108C193.612 234.363 197.656 229.798 201.844 227.055C206.046 224.302 210.292 223.438 213.663 224.87Z" stroke="white" stroke-width="3"/>
<path d="M44.7592 206.671C42.2043 208.976 38.5507 209.445 34.6644 208.265C30.7826 207.087 26.7117 204.271 23.3861 200.087C20.0605 195.902 18.1254 191.16 17.6746 186.888C17.2234 182.609 18.2605 178.848 20.8154 176.544C23.3703 174.24 27.0239 173.77 30.91 174.95C34.7919 176.129 38.8628 178.944 42.1884 183.129C45.514 187.313 47.4491 192.055 47.8999 196.328C48.3512 200.606 47.314 204.367 44.7592 206.671Z" stroke="white" stroke-width="2"/>
<path d="M45.0546 204.902C42.7143 207.013 39.3316 207.36 35.7373 206.185C32.145 205.011 28.3584 202.32 25.2335 198.388C22.1087 194.457 20.2424 190.034 19.7479 186.066C19.2531 182.096 20.1323 178.599 22.4726 176.488C24.8127 174.378 28.1955 174.031 31.7898 175.206C35.382 176.38 39.1686 179.07 42.2935 183.002C45.4185 186.934 47.2847 191.356 47.7792 195.324C48.2741 199.294 47.3948 202.791 45.0546 204.902Z" stroke="white"/>
<path d="M44.5832 203.952C42.5501 205.785 39.5155 206.036 36.1938 204.853C32.881 203.673 29.3423 201.083 26.3769 197.352C23.4116 193.621 21.5975 189.476 21.0514 185.8C20.5039 182.115 21.2363 178.968 23.2693 177.134C25.3024 175.301 28.3369 175.05 31.6587 176.234C34.9716 177.414 38.5103 180.003 41.4756 183.735C44.4409 187.465 46.2551 191.611 46.8011 195.286C47.3486 198.971 46.6162 202.118 44.5832 203.952Z" stroke="white" stroke-width="2"/>
<path d="M41.0382 200.562C39.6324 201.83 37.5085 201.941 35.1889 201.056C32.8731 200.173 30.3853 198.303 28.2786 195.652C26.172 193.002 24.8511 190.08 24.415 187.501C23.9785 184.918 24.4322 182.705 25.8381 181.437C27.2439 180.169 29.3677 180.057 31.6873 180.942C34.0031 181.826 36.491 183.696 38.5976 186.346C40.7042 188.997 42.0252 191.919 42.4612 194.498C42.8978 197.081 42.444 199.294 41.0382 200.562Z" stroke="white"/>
<path d="M42.1067 200.479C40.5852 201.851 38.3093 202.054 35.8015 201.169C33.3024 200.287 30.6313 198.34 28.3949 195.526C26.1587 192.713 24.7965 189.585 24.3923 186.814C23.9865 184.033 24.5499 181.675 26.0712 180.303C27.5926 178.931 29.8685 178.728 32.3764 179.613C34.8756 180.495 37.5466 182.442 39.783 185.256C42.0193 188.069 43.3814 191.197 43.7856 193.968C44.1913 196.749 43.6281 199.107 42.1067 200.479Z" stroke="white" stroke-width="2"/>
<g filter="url(#filter0_d_31_2)">
<path d="M40.9456 243.311L41.8756 243.329C51.2936 243.507 60.1929 247.677 66.3572 254.799C67.3903 255.993 67.5391 257.716 66.7261 259.069L65.7979 260.614C61.2853 268.124 53.9733 273.534 45.4711 275.653C42.9516 276.281 40.3521 274.969 39.3595 272.57L38.6872 270.945C35.8134 263.998 35.0583 256.356 36.5169 248.981L37.0112 246.482C37.3811 244.611 39.0391 243.275 40.9456 243.311Z" stroke="white" stroke-width="2" shape-rendering="crispEdges"/>
</g>
<path d="M67.5218 256.837L56.6543 258.148C52.1677 258.689 48.2839 261.521 46.3976 265.628L41.7217 275.807L46.1242 265.275C47.8246 261.208 47.3475 256.555 44.8569 252.917L38.4085 243.499L45.053 252.517C47.7337 256.155 52.1114 258.14 56.6145 257.759L67.5218 256.837Z" fill="white"/>
<g filter="url(#filter1_d_31_2)">
<path d="M138.009 269.644L138.676 270.786C145.484 282.459 147.014 296.475 142.885 309.342C142.143 311.653 140 313.226 137.573 313.24L135.011 313.255C122.44 313.329 110.356 308.405 101.416 299.567C98.6421 296.824 98.2937 292.464 100.597 289.316L102.074 287.297C108.435 278.603 117.225 271.985 127.338 268.274L130.739 267.026C133.477 266.022 136.54 267.125 138.009 269.644Z" stroke="white" stroke-width="2" shape-rendering="crispEdges"/>
</g>
<path d="M140.869 311.801L129.344 297.161C126.548 293.61 122.109 291.766 117.621 292.29L98.753 294.494L117.748 291.605C122.107 290.942 125.832 288.115 127.644 284.096L135.541 266.58L128.338 284.158C126.625 288.34 127.206 293.111 129.873 296.759L140.869 311.801Z" fill="white"/>
<g filter="url(#filter2_d_31_2)">
<path d="M136.48 68.2331L137.563 67.6774C148.608 62.0101 161.541 61.3004 173.14 65.7251C175.195 66.509 176.513 68.5249 176.408 70.7217L176.294 73.0772C175.74 84.6121 170.625 95.4539 162.075 103.217C159.446 105.603 155.466 105.706 152.717 103.458L150.936 102.001C143.273 95.7338 137.636 87.3406 134.732 77.8773L133.754 74.6899C132.978 72.1614 134.127 69.4405 136.48 68.2331Z" stroke="white" stroke-width="2" shape-rendering="crispEdges"/>
</g>
<path d="M175.635 67.6413L162.082 77.1739C158.386 79.7738 156.305 84.1069 156.587 88.6172L157.64 105.488L155.982 88.4487C155.555 84.0607 152.933 80.1881 149.017 78.1621L133.812 70.2949L149.085 77.5379C153.169 79.4743 157.964 79.1513 161.751 76.6847L175.635 67.6413Z" fill="white"/>
<g filter="url(#filter3_d_31_2)">
<path d="M197.946 107.311L198.875 107.329C208.294 107.507 217.193 111.677 223.357 118.799C224.39 119.993 224.539 121.716 223.726 123.069L222.798 124.614C218.285 132.124 210.973 137.534 202.471 139.653C199.952 140.28 197.352 138.969 196.359 136.57L195.687 134.945C192.813 127.998 192.058 120.356 193.517 112.981L194.011 110.482C194.381 108.611 196.039 107.275 197.946 107.311Z" stroke="white" stroke-width="2" shape-rendering="crispEdges"/>
</g>
<path d="M224.522 120.837L213.654 122.148C209.168 122.689 205.284 125.521 203.398 129.628L198.722 139.807L203.124 129.275C204.825 125.208 204.348 120.555 201.857 116.917L195.408 107.499L202.053 116.517C204.734 120.155 209.111 122.14 213.614 121.759L224.522 120.837Z" fill="white"/>
<g filter="url(#filter4_d_31_2)">
<path d="M59.6664 206.708L59.9845 202.765C63.0755 164.453 83.9407 129.804 116.357 109.152C121.265 106.025 127.566 106.131 132.367 109.419L138.442 113.581C168.315 134.045 187.486 166.783 190.717 202.849C191.543 212.072 185.996 220.677 177.255 223.733L170.728 226.015C140.521 236.576 107.59 236.361 77.523 225.408L69.8787 222.624C63.2813 220.22 59.1017 213.706 59.6664 206.708Z" stroke="white" stroke-width="5" shape-rendering="crispEdges"/>
</g>
<path d="M187.043 214.687L187.538 213.818L187.53 213.813L131.783 181.43C127.966 179.213 125.601 175.146 125.562 170.732L125 107.004V106.996H124V107.004L123.438 170.732C123.399 175.146 121.034 179.213 117.217 181.43L61.4695 213.813L61.462 213.818L61.9568 214.687L61.9643 214.682L118.409 183.186C122.195 181.074 126.805 181.074 130.591 183.186L187.036 214.682L187.043 214.687Z" fill="white" stroke="white"/>
</g>
<defs>
<filter id="filter0_d_31_2" x="30.7926" y="242.311" width="41.4549" height="42.4985" filterUnits="userSpaceOnUse" color-interpolation-filters="sRGB">
<feFlood flood-opacity="0" result="BackgroundImageFix"/>
<feColorMatrix in="SourceAlpha" type="matrix" values="0 0 0 0 0 0 0 0 0 0 0 0 0 0 0 0 0 0 127 0" result="hardAlpha"/>
<feOffset dy="4"/>
<feGaussianBlur stdDeviation="2"/>
<feComposite in2="hardAlpha" operator="out"/>
<feColorMatrix type="matrix" values="0 0 0 0 0 0 0 0 0 0 0 0 0 0 0 0 0 0 0.25 0"/>
<feBlend mode="normal" in2="BackgroundImageFix" result="effect1_dropShadow_31_2"/>
<feBlend mode="normal" in="SourceGraphic" in2="effect1_dropShadow_31_2" result="shape"/>
</filter>
<filter id="filter1_d_31_2" x="94.0774" y="265.657" width="56.0857" height="56.5986" filterUnits="userSpaceOnUse" color-interpolation-filters="sRGB">
<feFlood flood-opacity="0" result="BackgroundImageFix"/>
<feColorMatrix in="SourceAlpha" type="matrix" values="0 0 0 0 0 0 0 0 0 0 0 0 0 0 0 0 0 0 127 0" result="hardAlpha"/>
<feOffset dy="4"/>
<feGaussianBlur stdDeviation="2"/>
<feComposite in2="hardAlpha" operator="out"/>
<feColorMatrix type="matrix" values="0 0 0 0 0 0 0 0 0 0 0 0 0 0 0 0 0 0 0.25 0"/>
<feBlend mode="normal" in2="BackgroundImageFix" result="effect1_dropShadow_31_2"/>
<feBlend mode="normal" in="SourceGraphic" in2="effect1_dropShadow_31_2" result="shape"/>
</filter>
<filter id="filter2_d_31_2" x="128.513" y="61.851" width="52.9005" height="52.2268" filterUnits="userSpaceOnUse" color-interpolation-filters="sRGB">
<feFlood flood-opacity="0" result="BackgroundImageFix"/>
<feColorMatrix in="SourceAlpha" type="matrix" values="0 0 0 0 0 0 0 0 0 0 0 0 0 0 0 0 0 0 127 0" result="hardAlpha"/>
<feOffset dy="4"/>
<feGaussianBlur stdDeviation="2"/>
<feComposite in2="hardAlpha" operator="out"/>
<feColorMatrix type="matrix" values="0 0 0 0 0 0 0 0 0 0 0 0 0 0 0 0 0 0 0.25 0"/>
<feBlend mode="normal" in2="BackgroundImageFix" result="effect1_dropShadow_31_2"/>
<feBlend mode="normal" in="SourceGraphic" in2="effect1_dropShadow_31_2" result="shape"/>
</filter>
<filter id="filter3_d_31_2" x="187.793" y="106.311" width="41.4548" height="42.4985" filterUnits="userSpaceOnUse" color-interpolation-filters="sRGB">
<feFlood flood-opacity="0" result="BackgroundImageFix"/>
<feColorMatrix in="SourceAlpha" type="matrix" values="0 0 0 0 0 0 0 0 0 0 0 0 0 0 0 0 0 0 127 0" result="hardAlpha"/>
<feOffset dy="4"/>
<feGaussianBlur stdDeviation="2"/>
<feComposite in2="hardAlpha" operator="out"/>
<feColorMatrix type="matrix" values="0 0 0 0 0 0 0 0 0 0 0 0 0 0 0 0 0 0 0.25 0"/>
<feBlend mode="normal" in2="BackgroundImageFix" result="effect1_dropShadow_31_2"/>
<feBlend mode="normal" in="SourceGraphic" in2="effect1_dropShadow_31_2" result="shape"/>
</filter>
<filter id="filter4_d_31_2" x="53.1154" y="104.378" width="144.183" height="139.904" filterUnits="userSpaceOnUse" color-interpolation-filters="sRGB">
<feFlood flood-opacity="0" result="BackgroundImageFix"/>
<feColorMatrix in="SourceAlpha" type="matrix" values="0 0 0 0 0 0 0 0 0 0 0 0 0 0 0 0 0 0 127 0" result="hardAlpha"/>
<feOffset dy="4"/>
<feGaussianBlur stdDeviation="2"/>
<feComposite in2="hardAlpha" operator="out"/>
<feColorMatrix type="matrix" values="0 0 0 0 0 0 0 0 0 0 0 0 0 0 0 0 0 0 0.25 0"/>
<feBlend mode="normal" in2="BackgroundImageFix" result="effect1_dropShadow_31_2"/>
<feBlend mode="normal" in="SourceGraphic" in2="effect1_dropShadow_31_2" result="shape"/>
</filter>
<clipPath id="clip0_31_2">
<rect width="250" height="350" fill="white"/>
</clipPath>
</defs>
</svg>
