<svg width="250" height="350" viewBox="0 0 250 350" fill="none" xmlns="http://www.w3.org/2000/svg">
<g clip-path="url(#clip0_22_77)">
<g clip-path="url(#clip1_22_77)">
<mask id="mask0_22_77" style="mask-type:luminance" maskUnits="userSpaceOnUse" x="-23" y="109" width="296" height="166">
<path d="M-22.5 109H272.5V275H-22.5V109Z" fill="white"/>
</mask>
<g mask="url(#mask0_22_77)">
<path fill-rule="evenodd" clip-rule="evenodd" d="M155.086 108.998L73.7837 154.062L148.183 154.447L155.009 132.223L161.605 154.639L235.16 153.792L155.086 108.998Z" fill="#E81D2D"/>
<path fill-rule="evenodd" clip-rule="evenodd" d="M70.3513 158.01H77.9253L66.3051 170.624L55.3755 211.258L64.4262 222.716L70.3706 222.62L74.934 237.449L58.5776 237.545L44.4458 223.198L58.827 171.009L70.3513 158.01Z" fill="#E81D2D"/>
<path fill-rule="evenodd" clip-rule="evenodd" d="M117.503 158.106L107.148 172.549L96.7933 207.406L82.911 222.139L73.6108 222.428L78.5965 237.642H91.5394L114.166 215.591L105.422 205.095L113.092 188.533L141.471 178.134L146.284 158.491L117.503 158.106Z" fill="#E81D2D"/>
<path fill-rule="evenodd" clip-rule="evenodd" d="M118.269 218.037L118.461 237.873L138.979 228.783L144.156 207.599L118.269 218.037Z" fill="#E81D2D"/>
<path fill-rule="evenodd" clip-rule="evenodd" d="M82.2205 157.913H112.9L103.505 170.816L93.5339 205.288L81.9522 218.287L65.9411 218.672L59.2103 210.488L69.565 171.972L82.2205 157.913Z" fill="#E81D2D"/>
<path fill-rule="evenodd" clip-rule="evenodd" d="M58.6354 241.685H114.626L96.9854 273.461L65.7301 275.002L56.1425 268.069L58.6354 241.685Z" fill="#E81D2D"/>
<path fill-rule="evenodd" clip-rule="evenodd" d="M115.719 191.48L109.391 204.72L117.158 213.868L168.124 194.311L155.009 139.426L143.581 181.216L115.719 191.48Z" fill="white"/>
<path fill-rule="evenodd" clip-rule="evenodd" d="M50.3132 191.422L44.1771 212.991L14.8398 204.133L37.4661 146.551L38.4248 188.149L50.3132 191.422Z" fill="white"/>
<path fill-rule="evenodd" clip-rule="evenodd" d="M115.336 238.027V219.096L95.5678 238.027H115.336Z" fill="white"/>
</g>
</g>
<path fill-rule="evenodd" clip-rule="evenodd" d="M16.6928 18.314V56.3459H27.8697V35.1591L36.5605 48.7413H45.2514L53.9422 35.1591V56.3459H65.1191V18.314H53.3258L40.906 38.4131L28.4861 18.314H16.6928Z" stroke="white" stroke-width="0.707585" stroke-miterlimit="10" stroke-linejoin="round"/>
<path fill-rule="evenodd" clip-rule="evenodd" d="M72.5729 18.314V56.3459H107.033V48.7413H83.7498V40.8625H102.061V33.2579H83.7498V25.9186H107.033V18.314H72.5729Z" stroke="white" stroke-width="0.707585" stroke-miterlimit="10" stroke-linejoin="round"/>
<path fill-rule="evenodd" clip-rule="evenodd" d="M123.176 18.314C118.824 18.314 115.665 19.1747 113.697 20.896C111.737 22.6174 110.757 25.3792 110.757 29.1815V46.566C110.757 50.1148 111.707 52.7234 113.606 54.3916C115.513 56.0541 118.494 56.8853 122.55 56.8853C128.633 56.8853 136.29 56.5257 145.52 55.8065V48.4671C142.832 48.6145 140.588 48.7442 138.79 48.8562C136.991 48.9623 135.522 49.0331 134.384 49.0684C133.245 49.1038 132.117 49.1392 130.998 49.1745C129.88 49.2099 128.802 49.2364 127.764 49.2541C126.734 49.2718 125.784 49.2806 124.915 49.2806C124.046 49.2806 123.331 49.036 122.772 48.5467C122.213 48.0574 121.933 47.3972 121.933 46.566V29.1815C121.933 27.0062 123.173 25.9186 125.652 25.9186H145.52V18.314L123.176 18.314Z" stroke="white" stroke-width="0.707585" stroke-miterlimit="10" stroke-linejoin="round"/>
<path fill-rule="evenodd" clip-rule="evenodd" d="M150.495 18.314V56.3459H161.672V40.8625H177.194V56.3459H188.361V18.314H177.194V33.2579H161.672V18.314H150.495Z" stroke="white" stroke-width="0.707585" stroke-miterlimit="10" stroke-linejoin="round"/>
<path fill-rule="evenodd" clip-rule="evenodd" d="M214.131 29.7209L219.103 42.4896H209.169L214.131 29.7209ZM207.926 18.314L191.474 56.3459H203.581L206.37 49.5548H221.892L224.692 56.3459H236.798L220.346 18.314H207.926Z" stroke="white" stroke-width="0.707585" stroke-miterlimit="10" stroke-linejoin="round"/>
<path fill-rule="evenodd" clip-rule="evenodd" d="M6.38904 65.6979V99.1647H16.2243V80.521L23.8719 92.4729H31.5196L39.1672 80.521V99.1647H49.0025V65.6979H38.6248L27.6957 83.3845L16.7667 65.6979H6.38904Z" stroke="white" stroke-width="0.707585" stroke-miterlimit="10" stroke-linejoin="round"/>
<path fill-rule="evenodd" clip-rule="evenodd" d="M71.6751 75.7356L76.0503 86.9716H67.3088L71.6751 75.7356ZM66.215 65.6979L51.7379 99.1647H62.3912L64.8456 93.1887H78.5046L80.9679 99.1647H91.6212L77.1441 65.6979H66.215ZM85.6073 65.6979L100.085 90.3175V99.1647H109.92V90.3175L124.397 65.6979H114.019L105.002 81.9527L95.985 65.6979H85.6073Z" stroke="white" stroke-width="0.707585" stroke-miterlimit="10" stroke-linejoin="round"/>
<path fill-rule="evenodd" clip-rule="evenodd" d="M126.589 65.6979V99.1647H136.424V85.5399H150.083V99.1647H159.909V65.6979H150.083V78.8481H136.424V65.6979H126.589Z" stroke="white" stroke-width="0.707585" stroke-miterlimit="10" stroke-linejoin="round"/>
<path fill-rule="evenodd" clip-rule="evenodd" d="M166.473 65.6979V99.1647H196.797V92.4729H176.308V85.5399H192.422V78.8481H176.308V72.3897H196.797V65.6979H166.473Z" stroke="white" stroke-width="0.707585" stroke-miterlimit="10" stroke-linejoin="round"/>
<path fill-rule="evenodd" clip-rule="evenodd" d="M201.167 65.6979V99.1647H211.002V80.521L218.65 92.4729H226.298L233.945 80.521V99.1647H243.781V65.6979H233.403L222.474 83.3845L211.545 65.6979H201.167Z" stroke="white" stroke-width="0.707585" stroke-miterlimit="10" stroke-linejoin="round"/>
<g clip-path="url(#clip2_22_77)">
<path d="M24.9868 343.768V323.586C24.9868 321.776 25.3912 320.137 26.2002 318.669C27.0091 317.152 28.0877 315.978 29.4359 315.146C30.8291 314.266 32.3571 313.825 34.0199 313.825H64.0182C64.3328 313.825 64.6025 313.703 64.8272 313.458C65.0968 313.165 65.2316 312.822 65.2316 312.431V301.055C65.2316 300.664 65.0968 300.346 64.8272 300.101C64.6025 299.808 64.3328 299.661 64.0182 299.661H34.2896C33.9301 299.661 33.6155 299.808 33.3458 300.101C33.1211 300.346 33.0088 300.664 33.0088 301.055V304.285H24.9868V300.762C24.9868 298.903 25.3912 297.239 26.2002 295.771C27.0091 294.304 28.0877 293.129 29.4359 292.249C30.8291 291.368 32.3571 290.928 34.0199 290.928H64.2205C65.8833 290.928 67.3888 291.368 68.737 292.249C70.1302 293.129 71.2313 294.304 72.0402 295.771C72.8492 297.239 73.2536 298.903 73.2536 300.762V312.724C73.2536 314.535 72.8492 316.198 72.0402 317.715C71.2313 319.183 70.1302 320.381 68.737 321.311C67.3888 322.192 65.8833 322.632 64.2205 322.632H34.2896C33.9301 322.632 33.6155 322.754 33.3458 322.999C33.1211 323.244 33.0088 323.562 33.0088 323.953V333.641C33.0088 334.032 33.1211 334.374 33.3458 334.668C33.6155 334.913 33.9301 335.035 34.2896 335.035H73.2536V343.768H24.9868Z" fill="white"/>
<path d="M89.9718 343.768C88.309 343.768 86.781 343.304 85.3878 342.374C84.0395 341.395 82.961 340.123 82.152 338.558C81.3431 336.992 80.9386 335.328 80.9386 333.567V300.909C80.9386 299.098 81.3431 297.435 82.152 295.918C82.961 294.401 84.0395 293.203 85.3878 292.322C86.781 291.392 88.309 290.928 89.9718 290.928H120.172C121.835 290.928 123.341 291.392 124.689 292.322C126.082 293.203 127.183 294.401 127.992 295.918C128.801 297.435 129.205 299.098 129.205 300.909V333.567C129.205 335.328 128.801 336.992 127.992 338.558C127.183 340.123 126.082 341.395 124.689 342.374C123.341 343.304 121.835 343.768 120.172 343.768H89.9718ZM92.1964 334.595H119.97C120.285 334.595 120.554 334.472 120.779 334.228C121.049 333.934 121.183 333.616 121.183 333.274V308.394L92.1964 334.595ZM88.9606 326.081L117.948 299.881H90.2414C89.8819 299.881 89.5673 300.028 89.2977 300.321C89.073 300.566 88.9606 300.86 88.9606 301.202V326.081Z" fill="white"/>
<path d="M137.16 343.768V323.586C137.16 321.776 137.565 320.137 138.373 318.669C139.182 317.152 140.261 315.978 141.609 315.146C143.002 314.266 144.53 313.825 146.193 313.825H176.191C176.506 313.825 176.776 313.703 177 313.458C177.27 313.165 177.405 312.822 177.405 312.431V301.055C177.405 300.664 177.27 300.346 177 300.101C176.776 299.808 176.506 299.661 176.191 299.661H146.463C146.103 299.661 145.789 299.808 145.519 300.101C145.294 300.346 145.182 300.664 145.182 301.055V304.285H137.16V300.762C137.16 298.903 137.565 297.239 138.373 295.771C139.182 294.304 140.261 293.129 141.609 292.249C143.002 291.368 144.53 290.928 146.193 290.928H176.394C178.057 290.928 179.562 291.368 180.91 292.249C182.304 293.129 183.405 294.304 184.213 295.771C185.022 297.239 185.427 298.903 185.427 300.762V312.724C185.427 314.535 185.022 316.198 184.213 317.715C183.405 319.183 182.304 320.381 180.91 321.311C179.562 322.192 178.057 322.632 176.394 322.632H146.463C146.103 322.632 145.789 322.754 145.519 322.999C145.294 323.244 145.182 323.562 145.182 323.953V333.641C145.182 334.032 145.294 334.374 145.519 334.668C145.789 334.913 146.103 335.035 146.463 335.035H185.427V343.768H137.16Z" fill="white"/>
<path d="M221.02 343.768V330.411H189.674V321.898L221.223 290.928H229.042V321.605H236.053V330.411H229.042V343.768H221.02ZM201.875 321.605H221.02V303.991L201.875 321.605Z" fill="white"/>
</g>
</g>
<defs>
<clipPath id="clip0_22_77">
<rect width="250" height="350" fill="white"/>
</clipPath>
<clipPath id="clip1_22_77">
<rect width="295" height="166" fill="white" transform="translate(-22.5 109)"/>
</clipPath>
<clipPath id="clip2_22_77">
<rect width="372" height="124" fill="white" transform="translate(-35.5052 223)"/>
</clipPath>
</defs>
</svg>
