<svg width="250" height="350" viewBox="0 0 250 350" fill="none" xmlns="http://www.w3.org/2000/svg">
<g clip-path="url(#clip0_25_2)">
<rect x="17.1356" y="227.353" width="17.2226" height="151.139" fill="#1C1C1C"/>
<path d="M193.668 209.387L220.089 236.478V359.67H193.668V209.387Z" fill="#1C1C1C"/>
<rect x="182.316" y="270.698" width="15.2655" height="97.5273" fill="#1C1C1C"/>
<rect x="-8.6983" y="291.23" width="34.4453" height="96.957" fill="#1C1C1C"/>
<path d="M18.1142 242.181L26.4193 300.783H9.80914L9.80914 248.17L18.1142 242.181Z" fill="#1C1C1C"/>
<rect x="41.4039" y="270.128" width="39.1423" height="108.364" fill="#1C1C1C"/>
<rect x="32.7926" y="268.987" width="7.04562" height="83.8393" fill="#1C1C1C"/>
<rect x="153.742" y="283.245" width="22.3111" height="71.8623" fill="#1C1C1C"/>
<rect x="144.74" y="327.161" width="16.4398" height="25.6651" fill="#1C1C1C"/>
<rect x="126.343" y="221.079" width="21.5283" height="134.029" fill="#1C1C1C"/>
<path d="M126.343 217.087L135.346 205.11H141.021V213.094L147.871 221.079H126.343V217.087Z" fill="#1C1C1C"/>
<path d="M154.134 278.54L163.137 264.424H168.812V273.835L175.662 283.245H154.134V278.54Z" fill="#1C1C1C"/>
<rect x="86.809" y="330.013" width="10.5684" height="25.0948" fill="#1C1C1C"/>
<rect x="114.6" y="307.77" width="7.43705" height="54.7522" fill="#1C1C1C"/>
<rect x="222.242" y="187.429" width="26.6168" height="165.397" fill="#1C1C1C"/>
<rect x="231.636" y="176.022" width="17.2226" height="15.3991" fill="#1C1C1C"/>
<rect x="247.293" y="299.215" width="10.9599" height="60.4555" fill="#1C1C1C"/>
<rect width="17.2226" height="151.139" transform="matrix(-1 0 0 1 220.48 279.039)" fill="#2C2C2C"/>
<path d="M43.9482 261.074L17.5271 288.165V411.357H43.9482V261.074Z" fill="#2C2C2C"/>
<rect width="15.2655" height="97.5273" transform="matrix(-1 0 0 1 55.2994 322.385)" fill="#2C2C2C"/>
<rect width="34.4453" height="96.957" transform="matrix(-1 0 0 1 246.314 342.917)" fill="#2C2C2C"/>
<path d="M219.502 293.868L211.196 352.47H227.807L227.807 299.856L219.502 293.868Z" fill="#2C2C2C"/>
<rect width="39.1423" height="108.364" transform="matrix(-1 0 0 1 196.212 321.814)" fill="#2C2C2C"/>
<rect width="7.04562" height="83.8393" transform="matrix(-1 0 0 1 204.823 320.674)" fill="#2C2C2C"/>
<rect width="22.3111" height="71.8623" transform="matrix(-1 0 0 1 83.8734 334.932)" fill="#2C2C2C"/>
<rect width="21.5283" height="134.029" transform="matrix(-1 0 0 1 111.273 272.766)" fill="#2C2C2C"/>
<path d="M111.273 268.773L102.27 256.796H96.5946V264.781L89.7447 272.766H111.273V268.773Z" fill="#2C2C2C"/>
<path d="M83.4819 330.227L74.4792 316.111H68.8036V325.522L61.9536 334.932H83.4819V330.227Z" fill="#2C2C2C"/>
<rect width="26.6168" height="165.397" transform="matrix(-1 0 0 1 15.3742 239.116)" fill="#2C2C2C"/>
<rect width="17.2226" height="15.3991" transform="matrix(-1 0 0 1 5.98004 227.709)" fill="#2C2C2C"/>
<path d="M181.044 269.629L154.623 296.72V419.912H181.044V269.629Z" fill="#3F3F3F"/>
<rect width="15.2655" height="97.5273" transform="matrix(-1 0 0 1 192.395 330.94)" fill="#3F3F3F"/>
<rect width="22.3111" height="71.8623" transform="matrix(-1 0 0 1 220.969 343.487)" fill="#3F3F3F"/>
<rect width="21.5283" height="134.029" transform="matrix(-1 0 0 1 248.369 281.321)" fill="#3F3F3F"/>
<path d="M248.369 277.328L239.366 265.351H233.691V273.336L226.841 281.321H248.369V277.328Z" fill="#3F3F3F"/>
<path d="M220.578 338.782L211.575 324.666H205.899V334.077L199.05 343.487H220.578V338.782Z" fill="#3F3F3F"/>
<rect width="26.6168" height="165.397" transform="matrix(-1 0 0 1 152.47 247.671)" fill="#3F3F3F"/>
<rect width="17.2226" height="15.3991" transform="matrix(-1 0 0 1 143.076 236.264)" fill="#3F3F3F"/>
<rect width="19.9626" height="121.481" transform="matrix(-1 0 0 1 114.502 296.149)" fill="#3F3F3F"/>
<rect width="26.6168" height="88.402" transform="matrix(-1 0 0 1 96.1052 335.502)" fill="#3F3F3F"/>
<rect width="18.0055" height="90.6833" transform="matrix(-1 0 0 1 66.7485 324.666)" fill="#3F3F3F"/>
<path d="M117.046 348.62L116.538 349.048H117.555L117.046 348.62Z" fill="#3F3F3F"/>
<path d="M199.55 285.806L188.624 290.177C179.535 293.812 172.83 301.702 170.706 311.257H81.6287C79.7762 301.73 73.2397 293.782 64.2496 290.125L53.6329 285.806H199.55Z" fill="#C12135"/>
<path d="M210.563 216.665L199.55 285.806H53.6329L42.1801 216.665H210.563Z" fill="#C12135"/>
<path d="M224.066 207.777L219.878 215.741L33.1145 216.745L29.2604 207.73L224.066 207.777Z" fill="#C12135"/>
<path d="M126.167 5L128.004 138.616H124.331L126.167 5Z" fill="#C12135"/>
<rect x="113.018" y="130.557" width="26.2991" height="5.09014" fill="#C12135"/>
<ellipse cx="126.167" cy="130.557" rx="13.1495" ry="1.69671" fill="#C12135"/>
<ellipse cx="126.167" cy="136.071" rx="13.1495" ry="3.8176" fill="#C12135"/>
<rect x="121.501" y="138.192" width="10.1803" height="20.3606" fill="#C12135"/>
<rect x="96.8991" y="157.704" width="59.385" height="19.5122" fill="#C12135"/>
<path d="M96.8991 177.216L92.4909 157.492L101.307 157.492L96.8991 177.216Z" fill="#C12135"/>
<path d="M156.284 177.216L151.876 157.492L160.692 157.492L156.284 177.216Z" fill="#C12135"/>
<ellipse cx="126.592" cy="157.28" rx="33.9343" ry="2.96925" fill="#C12135"/>
<path d="M125.743 177.216L208.764 200.122H42.7224L125.743 177.216Z" fill="#C12135"/>
<ellipse cx="126.167" cy="204.364" rx="84.4115" ry="29.6925" fill="#C12135"/>
<ellipse cx="42.1801" cy="206.909" rx="13.1495" ry="4.24178" fill="#C12135"/>
<ellipse cx="211.003" cy="206.909" rx="13.1495" ry="4.24178" fill="#C12135"/>
<ellipse cx="171.979" cy="216.241" rx="47.9322" ry="4.24178" fill="#C12135"/>
<ellipse cx="82.0529" cy="216.241" rx="47.9322" ry="4.24178" fill="#C12135"/>
<ellipse cx="126.167" cy="311.257" rx="44.5387" ry="4.24178" fill="#C12135"/>
<rect x="97.7418" y="264.597" width="58.5366" height="234.146" fill="#C12135"/>
<ellipse cx="126.167" cy="32.1474" rx="2.12089" ry="0.848357" fill="#C12135"/>
</g>
<defs>
<clipPath id="clip0_25_2">
<rect width="250" height="350" fill="white"/>
</clipPath>
</defs>
</svg>
