<svg width="250" height="150" viewBox="0 0 250 150" fill="none" xmlns="http://www.w3.org/2000/svg">
<g clip-path="url(#clip0_16_2)">
<ellipse cx="217.459" cy="75.7349" rx="21.2118" ry="33.7431" transform="rotate(27.6802 217.459 75.7349)" fill="black"/>
<g filter="url(#filter0_d_16_2)">
<path d="M115.301 19.2552C120.627 15.5237 127.747 15.6377 132.951 19.5378L137.613 23.0326C160.969 40.5392 176.412 66.6087 180.543 95.5035C181.958 105.4 175.915 114.841 166.335 117.7L160.886 119.327C136.982 126.461 111.503 126.367 87.6531 119.056L79.7769 116.641C72.3842 114.375 67.6803 107.134 68.6144 99.4589L68.9778 96.4734C72.768 65.3288 89.607 37.2594 115.301 19.2552Z" fill="black"/>
<path d="M116.736 21.3026C121.176 18.1914 127.113 18.2865 131.451 21.5382L136.114 25.033C158.939 42.1419 174.031 67.619 178.068 95.8573C179.308 104.528 174.013 112.8 165.62 115.305L160.171 116.931C136.74 123.925 111.764 123.832 88.3858 116.666L80.5096 114.251C74.2752 112.34 70.3084 106.234 71.0961 99.7609L71.4594 96.7754C75.164 66.3348 91.6224 38.8998 116.736 21.3026Z" stroke="#DCDCE3" stroke-width="5"/>
</g>
<path d="M125 17.7716L125.92 69.3996C126.001 73.918 128.422 78.0704 132.315 80.3659L177.505 107.014L131.211 81.8347C127.338 79.7282 122.662 79.7282 118.789 81.8347L72.4945 107.014L117.685 80.3659C121.578 78.0704 123.999 73.918 124.08 69.3996L125 17.7716Z" fill="#DCDCE3"/>
<g filter="url(#filter1_d_16_2)">
<path d="M64.8817 2.45105C67.2921 1.65371 69.942 2.49597 71.4497 4.53868L72.8007 6.3691C79.5684 15.5383 82.4156 27.0209 80.7155 38.2897C80.1333 42.1493 76.8134 45.001 72.9101 44.9945L70.6897 44.9907C60.9501 44.9743 51.4329 42.0778 43.3356 36.6656L40.6615 34.8783C38.1515 33.2007 37.2057 29.9649 38.417 27.1995L38.8881 26.1239C43.8029 14.9034 53.2518 6.2981 64.8817 2.45105Z" fill="black"/>
<path d="M65.1958 3.40046C67.1956 2.73892 69.3942 3.43772 70.6451 5.13253L71.9961 6.96295C78.6063 15.9187 81.3872 27.134 79.7267 38.1405C79.2183 41.5103 76.3197 44.0002 72.9118 43.9945L70.6914 43.9907C61.1491 43.9746 51.8246 41.1368 43.8913 35.8342L41.2172 34.0469C39.1101 32.6386 38.3161 29.9222 39.3329 27.6008L39.8041 26.5252C44.605 15.5644 53.8351 7.15842 65.1958 3.40046Z" stroke="#DCDCE3" stroke-width="2"/>
</g>
<path d="M68.4133 2.80951L64.159 17.9505C62.9366 22.3011 64.0613 26.9745 67.1293 30.2926L78.0255 42.0769L66.5758 30.524C63.4723 27.3926 58.9932 26.0475 54.678 26.951L38.7577 30.2845L54.3435 26.4529C58.732 25.374 62.2453 22.0935 63.622 17.7892L68.4133 2.80951Z" fill="#DCDCE3"/>
<g filter="url(#filter2_d_16_2)">
<path d="M190.424 10.9638C191.253 9.6184 192.852 8.95783 194.388 9.32649L195.765 9.65683C202.661 11.3116 208.617 15.6387 212.323 21.6859C213.592 23.757 213.153 26.445 211.292 28.0057L210.233 28.8935C205.589 32.7877 199.896 35.2214 193.872 35.8884L191.883 36.1086C190.016 36.3153 188.269 35.1534 187.738 33.3514L187.531 32.6504C185.376 25.3384 186.428 17.4551 190.424 10.9638Z" fill="black"/>
<path d="M190.85 11.2259C191.565 10.0647 192.946 9.49448 194.272 9.81269L195.648 10.143C202.416 11.7669 208.26 16.0131 211.896 21.9471C213.036 23.8071 212.642 26.221 210.971 27.6225L209.912 28.5104C205.343 32.3412 199.743 34.7353 193.817 35.3914L191.828 35.6117C190.201 35.7917 188.68 34.7797 188.217 33.21L188.011 32.5091C185.896 25.3331 186.928 17.5965 190.85 11.2259Z" stroke="#DCDCE3"/>
</g>
<path d="M192.25 9.7196L195.156 16.1318C197.022 20.2479 200.891 23.0999 205.375 23.6637L212.559 24.567L205.138 23.8941C200.747 23.4959 196.454 25.3503 193.733 28.8198L189.136 34.6838L193.403 28.8343C196.067 25.1834 196.643 20.4113 194.926 16.2313L192.25 9.7196Z" fill="#DCDCE3"/>
<g filter="url(#filter3_d_16_2)">
<path d="M50.1969 122.681C51.513 124.202 51.7026 126.396 50.6668 128.12L49.7387 129.665C45.0895 137.403 37.5561 142.976 28.7965 145.159C25.7963 145.907 22.701 144.345 21.5191 141.488L20.8467 139.863C17.8975 132.734 17.1226 124.892 18.6195 117.323L19.1138 114.824C19.5778 112.478 21.6571 110.802 24.0481 110.848L24.9781 110.865C34.6797 111.049 43.847 115.344 50.1969 122.681Z" fill="black"/>
<path d="M49.4408 123.335C50.4739 124.529 50.6227 126.252 49.8097 127.605L48.8815 129.15C44.3689 136.66 37.0569 142.07 28.5547 144.189C26.0352 144.817 23.4357 143.505 22.4431 141.106L21.7708 139.481C18.897 132.534 18.1419 124.892 19.6005 117.517L20.0948 115.018C20.4647 113.147 22.1227 111.811 24.0292 111.847L24.9592 111.865C34.3772 112.043 43.2765 116.213 49.4408 123.335Z" stroke="#DCDCE3" stroke-width="2"/>
</g>
<path d="M50.6054 125.373L39.7379 126.684C35.2513 127.225 31.3675 130.057 29.4811 134.164L24.8053 144.343L29.2078 133.811C30.9082 129.744 30.4311 125.091 27.9405 121.453L21.4921 112.035L28.1366 121.053C30.8173 124.691 35.195 126.676 39.6981 126.296L50.6054 125.373Z" fill="#DCDCE3"/>
<g filter="url(#filter4_d_16_2)">
<path d="M199.15 116.484C200.947 115.762 203.003 116.277 204.248 117.76L205.363 119.089C210.949 125.745 213.662 134.348 212.904 143.005C212.644 145.969 210.253 148.297 207.282 148.478L205.592 148.581C198.18 149.031 190.799 147.279 184.38 143.545L182.26 142.312C180.27 141.155 179.397 138.738 180.187 136.576L180.494 135.735C183.701 126.962 190.483 119.964 199.15 116.484Z" fill="black"/>
<path d="M199.523 117.412C200.918 116.851 202.515 117.251 203.482 118.403L204.597 119.732C210.013 126.185 212.642 134.525 211.907 142.917C211.691 145.389 209.698 147.329 207.222 147.48L205.532 147.583C198.316 148.021 191.132 146.316 184.883 142.681L182.763 141.448C181.192 140.534 180.502 138.626 181.126 136.919L181.433 136.078C184.543 127.572 191.119 120.786 199.523 117.412Z" stroke="#DCDCE3" stroke-width="2"/>
</g>
<path d="M201.855 116.589L199.7 126.624C198.751 131.043 200.165 135.637 203.434 138.757L211.037 146.015L203.028 138.884C199.736 135.952 195.181 134.889 190.931 136.059L180.593 138.907L190.623 135.766C194.936 134.416 198.238 130.923 199.344 126.541L201.855 116.589Z" fill="#DCDCE3"/>
<path d="M232.635 44.6054C238.295 47.0107 241.809 52.5798 242.824 59.7686C243.839 66.9492 242.343 75.6698 238.065 84.2136C233.788 92.7576 227.56 99.4674 220.973 103.418C214.378 107.373 207.499 108.526 201.839 106.12C196.178 103.715 192.664 98.1461 191.649 90.9575C190.634 83.7768 192.131 75.0563 196.408 66.5124C200.685 57.9684 206.914 51.2586 213.501 47.3082C220.095 43.3532 226.974 42.2002 232.635 44.6054Z" stroke="#DCDCE3" stroke-width="3"/>
<path d="M229.544 45.4598C234.729 47.663 237.84 52.8852 238.644 59.5969C239.447 66.3048 237.939 74.4703 233.92 82.4987C229.901 90.5267 224.139 96.8845 218.079 100.676C212.016 104.47 205.685 105.679 200.5 103.476C195.315 101.273 192.204 96.0508 191.4 89.339C190.596 82.6313 192.104 74.4659 196.123 66.4375C200.143 58.4092 205.905 52.0517 211.965 48.2601C218.028 44.4663 224.359 43.2566 229.544 45.4598Z" stroke="#DCDCE3"/>
<path d="M228.359 46.9401C232.863 48.8541 235.555 53.5847 236.14 59.8608C236.724 66.1201 235.192 73.808 231.378 81.4263C227.565 89.0444 222.212 95.1087 216.666 98.7633C211.104 102.428 205.451 103.612 200.947 101.698C196.443 99.7835 193.75 95.0532 193.165 88.777C192.582 82.5176 194.114 74.8297 197.927 67.2114C201.741 59.5934 207.094 53.5288 212.64 49.8745C218.201 46.2101 223.854 45.026 228.359 46.9401Z" stroke="#DCDCE3" stroke-width="3"/>
<path d="M225.534 55.2411C228.649 56.5645 230.43 59.9232 230.744 64.3502C231.057 68.7698 229.9 74.2117 227.191 79.624C224.482 85.0359 220.739 89.3793 216.888 92.0292C213.03 94.6833 209.1 95.6153 205.986 94.2915C202.871 92.9681 201.09 89.6095 200.777 85.1825C200.464 80.7629 201.62 75.3208 204.329 69.9088C207.039 64.4967 210.781 60.1533 214.632 57.5035C218.491 54.8493 222.42 53.9175 225.534 55.2411Z" stroke="#DCDCE3"/>
<path d="M224.595 53.5712C227.966 55.0036 230.01 58.5402 230.465 63.2723C230.918 67.988 229.775 73.785 226.899 79.5305C224.023 85.2756 219.979 89.8403 215.791 92.5839C211.589 95.337 207.342 96.2004 203.972 94.7683C200.601 93.3358 198.558 89.7992 198.103 85.067C197.649 80.3513 198.792 74.5543 201.669 68.8089C204.545 63.0637 208.588 58.4991 212.776 55.7555C216.978 53.0025 221.225 52.1389 224.595 53.5712Z" stroke="#DCDCE3" stroke-width="3"/>
<path d="M42.5501 53.1439C45.374 54.9601 47.9265 57.1672 50.1313 59.6995L50.7694 60.4324C55.8174 66.2301 59.0887 73.3591 60.1922 80.9668L61.6564 91.0618L56.1364 97.1477L43.5197 102.195C23.3712 100.86 6.57282 85.7481 3.4013 65.8061L6.59629 52.2136L12.1885 46.0481L28.5005 48.0607C33.506 48.6783 38.3081 50.4157 42.5501 53.1439Z" fill="black" stroke="#DCDCE3" stroke-width="2"/>
<circle cx="43.5462" cy="102.301" r="0.683805" transform="rotate(42.2088 43.5462 102.301)" fill="#DCDCE3"/>
<line x1="12.3147" y1="46.5403" x2="9.02233" y2="64.7704" stroke="#DCDCE3"/>
<line x1="8.94627" y1="64.4041" x2="21.7282" y2="83.5716" stroke="#DCDCE3"/>
<line x1="21.5658" y1="83.418" x2="45.3367" y2="97.405" stroke="#DCDCE3"/>
<line x1="44.899" y1="97.3711" x2="61.1786" y2="90.9207" stroke="#DCDCE3"/>
<line x1="32.2396" y1="75.5595" x2="21.5853" y2="83.7675" stroke="#DCDCE3"/>
<line x1="21.8752" y1="61.0282" x2="9.01714" y2="64.4363" stroke="#DCDCE3"/>
<line x1="45.6429" y1="82.9097" x2="45.775" y2="97.3234" stroke="#DCDCE3"/>
<line x1="61.517" y1="90.7944" x2="57.3631" y2="79.4136" stroke="#DCDCE3"/>
<line x1="12.9081" y1="45.9073" x2="24.5561" y2="49.7909" stroke="#DCDCE3"/>
<path d="M31.3484 75.2056C35.9217 79.3537 40.9628 82.1898 45.4528 83.3906C49.8865 84.5763 54.0871 84.2278 56.5601 81.5012C59.0332 78.7746 58.9714 74.5601 57.3601 70.2628C55.7282 65.9109 52.4152 61.1696 47.8419 57.0214C43.2686 52.8733 38.2274 50.0372 33.7374 48.8365C29.3037 47.6508 25.1032 47.9992 22.6301 50.7258C20.157 53.4524 20.2188 57.6669 21.8302 61.9643C23.462 66.3162 26.7751 71.0575 31.3484 75.2056Z" fill="black" stroke="#DCDCE3" stroke-width="2"/>
<path d="M31.7226 74.793C35.5243 78.2412 39.5038 80.8352 42.8922 82.2244C44.5823 82.9172 46.1776 83.332 47.5592 83.3712C48.9362 83.4102 50.2394 83.0745 51.1242 82.099C52.009 81.1234 52.2164 79.7937 52.0436 78.4271C51.8702 77.0558 51.3023 75.5085 50.4483 73.8938C48.7361 70.6566 45.7673 66.9483 41.9656 63.5001C38.1639 60.0518 34.1844 57.4578 30.796 56.0687C29.1059 55.3758 27.5106 54.961 26.129 54.9219C24.752 54.8828 23.4488 55.2186 22.564 56.1941C21.6792 57.1696 21.4718 58.4993 21.6446 59.866C21.818 61.2372 22.3859 62.7846 23.2399 64.3993C24.9521 67.6365 27.9209 71.3447 31.7226 74.793Z" fill="black" stroke="#DCDCE3" stroke-width="2"/>
<rect x="58.7461" y="40.1785" width="5.79903" height="44.0629" transform="rotate(42.2088 58.7461 40.1785)" fill="black" stroke="#DCDCE3"/>
<path d="M63.3774 43.7042L63.3773 43.7042C63.3768 43.7048 63.3708 43.7117 63.348 43.72C63.3222 43.7293 63.2763 43.7396 63.2036 43.7399C63.054 43.7406 62.8387 43.6991 62.5648 43.5936C62.02 43.3839 61.3432 42.9604 60.6817 42.3603C60.0201 41.7603 59.5327 41.1279 59.2711 40.6062C59.1395 40.3437 59.0772 40.1335 59.0633 39.9846C59.0566 39.9122 59.0623 39.8655 59.0691 39.8389C59.0751 39.8154 59.0814 39.8088 59.082 39.8082C59.082 39.8082 59.082 39.8082 59.082 39.8082C59.082 39.8082 59.082 39.8082 59.082 39.8081C59.0826 39.8075 59.0886 39.8006 59.1114 39.7923C59.1371 39.783 59.1831 39.7727 59.2558 39.7724C59.4053 39.7717 59.6206 39.8133 59.8946 39.9187C60.4393 40.1284 61.1162 40.552 61.7777 41.152C62.4392 41.752 62.9266 42.3844 63.1883 42.9062C63.3199 43.1686 63.3822 43.3788 63.3961 43.5277C63.4028 43.6001 63.3971 43.6469 63.3903 43.6734C63.3843 43.6969 63.378 43.7035 63.3774 43.7041L63.3774 43.7042Z" fill="black" stroke="#DCDCE3"/>
</g>
<defs>
<filter id="filter0_d_16_2" x="64.4966" y="16.5327" width="120.251" height="116.077" filterUnits="userSpaceOnUse" color-interpolation-filters="sRGB">
<feFlood flood-opacity="0" result="BackgroundImageFix"/>
<feColorMatrix in="SourceAlpha" type="matrix" values="0 0 0 0 0 0 0 0 0 0 0 0 0 0 0 0 0 0 127 0" result="hardAlpha"/>
<feOffset dy="4"/>
<feGaussianBlur stdDeviation="2"/>
<feComposite in2="hardAlpha" operator="out"/>
<feColorMatrix type="matrix" values="0 0 0 0 0 0 0 0 0 0 0 0 0 0 0 0 0 0 0.25 0"/>
<feBlend mode="normal" in2="BackgroundImageFix" result="effect1_dropShadow_16_2"/>
<feBlend mode="normal" in="SourceGraphic" in2="effect1_dropShadow_16_2" result="shape"/>
</filter>
<filter id="filter1_d_16_2" x="33.8929" y="2.15359" width="51.3035" height="50.8409" filterUnits="userSpaceOnUse" color-interpolation-filters="sRGB">
<feFlood flood-opacity="0" result="BackgroundImageFix"/>
<feColorMatrix in="SourceAlpha" type="matrix" values="0 0 0 0 0 0 0 0 0 0 0 0 0 0 0 0 0 0 127 0" result="hardAlpha"/>
<feOffset dy="4"/>
<feGaussianBlur stdDeviation="2"/>
<feComposite in2="hardAlpha" operator="out"/>
<feColorMatrix type="matrix" values="0 0 0 0 0 0 0 0 0 0 0 0 0 0 0 0 0 0 0.25 0"/>
<feBlend mode="normal" in2="BackgroundImageFix" result="effect1_dropShadow_16_2"/>
<feBlend mode="normal" in="SourceGraphic" in2="effect1_dropShadow_16_2" result="shape"/>
</filter>
<filter id="filter2_d_16_2" x="182.435" y="9.22538" width="34.6106" height="34.907" filterUnits="userSpaceOnUse" color-interpolation-filters="sRGB">
<feFlood flood-opacity="0" result="BackgroundImageFix"/>
<feColorMatrix in="SourceAlpha" type="matrix" values="0 0 0 0 0 0 0 0 0 0 0 0 0 0 0 0 0 0 127 0" result="hardAlpha"/>
<feOffset dy="4"/>
<feGaussianBlur stdDeviation="2"/>
<feComposite in2="hardAlpha" operator="out"/>
<feColorMatrix type="matrix" values="0 0 0 0 0 0 0 0 0 0 0 0 0 0 0 0 0 0 0.25 0"/>
<feBlend mode="normal" in2="BackgroundImageFix" result="effect1_dropShadow_16_2"/>
<feBlend mode="normal" in="SourceGraphic" in2="effect1_dropShadow_16_2" result="shape"/>
</filter>
<filter id="filter3_d_16_2" x="13.8762" y="110.847" width="41.4549" height="42.4985" filterUnits="userSpaceOnUse" color-interpolation-filters="sRGB">
<feFlood flood-opacity="0" result="BackgroundImageFix"/>
<feColorMatrix in="SourceAlpha" type="matrix" values="0 0 0 0 0 0 0 0 0 0 0 0 0 0 0 0 0 0 127 0" result="hardAlpha"/>
<feOffset dy="4"/>
<feGaussianBlur stdDeviation="2"/>
<feComposite in2="hardAlpha" operator="out"/>
<feColorMatrix type="matrix" values="0 0 0 0 0 0 0 0 0 0 0 0 0 0 0 0 0 0 0.25 0"/>
<feBlend mode="normal" in2="BackgroundImageFix" result="effect1_dropShadow_16_2"/>
<feBlend mode="normal" in="SourceGraphic" in2="effect1_dropShadow_16_2" result="shape"/>
</filter>
<filter id="filter4_d_16_2" x="175.898" y="116.161" width="41.1312" height="40.4891" filterUnits="userSpaceOnUse" color-interpolation-filters="sRGB">
<feFlood flood-opacity="0" result="BackgroundImageFix"/>
<feColorMatrix in="SourceAlpha" type="matrix" values="0 0 0 0 0 0 0 0 0 0 0 0 0 0 0 0 0 0 127 0" result="hardAlpha"/>
<feOffset dy="4"/>
<feGaussianBlur stdDeviation="2"/>
<feComposite in2="hardAlpha" operator="out"/>
<feColorMatrix type="matrix" values="0 0 0 0 0 0 0 0 0 0 0 0 0 0 0 0 0 0 0.25 0"/>
<feBlend mode="normal" in2="BackgroundImageFix" result="effect1_dropShadow_16_2"/>
<feBlend mode="normal" in="SourceGraphic" in2="effect1_dropShadow_16_2" result="shape"/>
</filter>
<clipPath id="clip0_16_2">
<rect width="250" height="150" fill="white"/>
</clipPath>
</defs>
</svg>
