<svg version="1.1" viewBox="0.0 140.0 960.0 300.0" fill="none" stroke="none" stroke-linecap="square" stroke-miterlimit="10" xmlns:xlink="http://www.w3.org/1999/xlink" xmlns="http://www.w3.org/2000/svg"><clipPath id="p.0"><path d="m0 0l960.0 0l0 540.0l-960.0 0l0 -540.0z" clip-rule="nonzero"/></clipPath><g clip-path="url(#p.0)"><path fill="none" d="m0 0l960.0 0l0 540.0l-960.0 0z" fill-rule="evenodd"/><path fill="#000000" d="m478.56863 159.94426c20.491089 11.828461 9.710663 68.86104 -24.078735 127.38582l0 0c-33.789368 58.52478 -77.79239 96.37964 -98.28345 84.55118l0 0c-20.491089 -11.828461 -9.710663 -68.86102 24.078735 -127.38582l0 0c33.7894 -58.524796 77.79239 -96.37964 98.28345 -84.55118z" fill-rule="evenodd"/><path stroke="#ffffff" stroke-width="24.0" stroke-linejoin="round" stroke-linecap="butt" d="m478.56863 159.94426c20.491089 11.828461 9.710663 68.86104 -24.078735 127.38582l0 0c-33.789368 58.52478 -77.79239 96.37964 -98.28345 84.55118l0 0c-20.491089 -11.828461 -9.710663 -68.86102 24.078735 -127.38582l0 0c33.7894 -58.524796 77.79239 -96.37964 98.28345 -84.55118z" fill-rule="evenodd"/><path fill="#000000" d="m387.0223 302.9134l0 0c0 -46.95726 38.066376 -85.02362 85.02362 -85.02362l0 0c22.549683 0 44.17575 8.957809 60.120758 24.902832c15.945068 15.945038 24.902893 37.571106 24.902893 60.12079l0 0c0 46.957245 -38.066406 85.02362 -85.02365 85.02362l0 0c-46.957245 0 -85.02362 -38.066376 -85.02362 -85.02362z" fill-rule="evenodd"/><path stroke="#ffffff" stroke-width="24.0" stroke-linejoin="round" stroke-linecap="butt" d="m387.0223 302.9134l0 0c0 -46.95726 38.066376 -85.02362 85.02362 -85.02362l0 0c22.549683 0 44.17575 8.957809 60.120758 24.902832c15.945068 15.945038 24.902893 37.571106 24.902893 60.12079l0 0c0 46.957245 -38.066406 85.02362 -85.02365 85.02362l0 0c-46.957245 0 -85.02362 -38.066376 -85.02362 -85.02362z" fill-rule="evenodd"/><path fill="#000000" d="m462.32855 159.94194c20.491058 -11.828461 64.487 26.026398 98.2677 84.55119l0 0c33.7807 58.52478 44.554077 115.55737 24.062988 127.38583l0 0c-20.491028 11.828461 -64.487 -26.026398 -98.2677 -84.55121l0 0c-33.7807 -58.52478 -44.554047 -115.55736 -24.062988 -127.38582z" fill-rule="evenodd"/><path stroke="#ffffff" stroke-width="24.0" stroke-linejoin="round" stroke-linecap="butt" d="m462.32855 159.94194c20.491058 -11.828461 64.487 26.026398 98.2677 84.55119l0 0c33.7807 58.52478 44.554077 115.55737 24.062988 127.38583l0 0c-20.491028 11.828461 -64.487 -26.026398 -98.2677 -84.55121l0 0c-33.7807 -58.52478 -44.554047 -115.55736 -24.062988 -127.38582z" fill-rule="evenodd"/><path fill="#000000" d="m349.69885 358.646c0 -23.656921 54.776398 -42.834656 122.346466 -42.834656l0 0c67.5701 0 122.346466 19.177734 122.346466 42.834656l0 0c0 23.656921 -54.776367 42.834656 -122.346466 42.834656l0 0c-67.57007 0 -122.346466 -19.177734 -122.346466 -42.834656z" fill-rule="evenodd"/><path stroke="#ffffff" stroke-width="24.0" stroke-linejoin="round" stroke-linecap="butt" d="m349.69885 358.646c0 -23.656921 54.776398 -42.834656 122.346466 -42.834656l0 0c67.5701 0 122.346466 19.177734 122.346466 42.834656l0 0c0 23.656921 -54.776367 42.834656 -122.346466 42.834656l0 0c-67.57007 0 -122.346466 -19.177734 -122.346466 -42.834656z" fill-rule="evenodd"/><path fill="#000000" d="m478.56863 159.94164c20.491089 11.828461 9.710663 68.86104 -24.078735 127.38582l0 0c-33.789368 58.52478 -77.79239 96.37964 -98.28345 84.55118l0 0c-20.491089 -11.828461 -9.710663 -68.86102 24.078735 -127.38582l0 0c33.7894 -58.524796 77.79239 -96.37964 98.28345 -84.55118z" fill-rule="evenodd"/><path stroke="#000000" stroke-width="3.0" stroke-linejoin="round" stroke-linecap="butt" d="m478.56863 159.94164c20.491089 11.828461 9.710663 68.86104 -24.078735 127.38582l0 0c-33.789368 58.52478 -77.79239 96.37964 -98.28345 84.55118l0 0c-20.491089 -11.828461 -9.710663 -68.86102 24.078735 -127.38582l0 0c33.7894 -58.524796 77.79239 -96.37964 98.28345 -84.55118z" fill-rule="evenodd"/><path fill="#000000" d="m387.0223 302.91077l0 0c0 -46.95726 38.066376 -85.02362 85.02362 -85.02362l0 0c22.549683 0 44.17575 8.957809 60.120758 24.902832c15.945068 15.945038 24.902893 37.571106 24.902893 60.12079l0 0c0 46.957245 -38.066406 85.02362 -85.02365 85.02362l0 0c-46.957245 0 -85.02362 -38.066376 -85.02362 -85.02362z" fill-rule="evenodd"/>
<path stroke="#000000"
stroke-width="1.0"
stroke-linejoin="round"
stroke-linecap="butt"
d="m387.0223 302.91077l0 0c0 -46.95726 38.066376 -85.02362 85.02362 -85.02362l0 0c22.549683 0 44.17575 8.957809 60.120758 24.902832c15.945068 15.945038 24.902893 37.571106 24.902893 60.12079l0 0c0 46.957245 -38.066406 85.02362 -85.02365 85.02362l0 0c-46.957245 0 -85.02362 -38.066376 -85.02362 -85.02362z" fill-rule="evenodd"/><path fill="#000000" d="m462.32855 159.93932c20.491058 -11.828461 64.487 26.026398 98.2677 84.55119l0 0c33.7807 58.52478 44.554077 115.55737 24.062988 127.38583l0 0c-20.491028 11.828461 -64.487 -26.026398 -98.2677 -84.55121l0 0c-33.7807 -58.52478 -44.554047 -115.55736 -24.062988 -127.38582z" fill-rule="evenodd"/><path stroke="#000000" stroke-width="3.0" stroke-linejoin="round" stroke-linecap="butt" d="m462.32855 159.93932c20.491058 -11.828461 64.487 26.026398 98.2677 84.55119l0 0c33.7807 58.52478 44.554077 115.55737 24.062988 127.38583l0 0c-20.491028 11.828461 -64.487 -26.026398 -98.2677 -84.55121l0 0c-33.7807 -58.52478 -44.554047 -115.55736 -24.062988 -127.38582z"
fill-rule="evenodd"/>
<path fill="#000000"
d="m349.69885 358.64337c0 -23.656921 54.776398 -42.834656 122.346466 -42.834656l0 0c67.5701 0 122.346466 19.177734 122.346466 42.834656l0 0c0 23.656921 -54.776367 42.834656 -122.346466 42.834656l0 0c-67.57007 0 -122.346466 -19.177734 -122.346466 -42.834656z" fill-rule="evenodd"/><path stroke="#000000" stroke-width="3.0" stroke-linejoin="round" stroke-linecap="butt" d="m349.69885 358.64337c0 -23.656921 54.776398 -42.834656 122.346466 -42.834656l0 0c67.5701 0 122.346466 19.177734 122.346466 42.834656l0 0c0 23.656921 -54.776367 42.834656 -122.346466 42.834656l0 0c-67.57007 0 -122.346466 -19.177734 -122.346466 -42.834656z" fill-rule="evenodd"/><path fill="#000000" fill-opacity="0.0" d="m472.6938 159.94218l0 0c15.587555 11.828461 7.386902 68.86104 -18.31668 127.38582l0 0c-25.703583 58.52481 -59.176666 96.37964 -74.76422 84.55118l0 0c-15.587585 -11.828461 -7.386902 -68.86102 18.31668 -127.38582l0 0c25.703583 -58.52478 59.176666 -96.37964 74.76422 -84.55118z" fill-rule="evenodd"/><path stroke="#ffffff" stroke-width="4.0" stroke-linejoin="round" stroke-linecap="butt" d="m472.6938 159.94218l0 0c15.587555 11.828461 7.386902 68.86104 -18.31668 127.38582l0 0c-25.703583 58.52481 -59.176666 96.37964 -74.76422 84.55118l0 0c-15.587585 -11.828461 -7.386902 -68.86102 18.31668 -127.38582l0 0c25.703583 -58.52478 59.176666 -96.37964 74.76422 -84.55118z" fill-rule="evenodd"/><path fill="#000000" fill-opacity="0.0" d="m403.0545 302.91132l0 0c0 -46.957245 28.957092 -85.02362 64.67746 -85.02362l0 0c17.153534 0 33.604492 8.957809 45.733856 24.902832c12.129395 15.945038 18.943604 37.571106 18.943604 60.12079l0 0c0 46.957245 -28.957062 85.02362 -64.67746 85.02362l0 0c-35.720367 0 -64.67746 -38.066376 -64.67746 -85.02362z" fill-rule="evenodd"/><path stroke="#ffffff" stroke-width="4.0" stroke-linejoin="round" stroke-linecap="butt" d="m403.0545 302.91132l0 0c0 -46.957245 28.957092 -85.02362 64.67746 -85.02362l0 0c17.153534 0 33.604492 8.957809 45.733856 24.902832c12.129395 15.945038 18.943604 37.571106 18.943604 60.12079l0 0c0 46.957245 -28.957062 85.02362 -64.67746 85.02362l0 0c-35.720367 0 -64.67746 -38.066376 -64.67746 -85.02362z" fill-rule="evenodd"/><path fill="#000000" fill-opacity="0.0" d="m460.33997 159.93988l0 0c15.587555 -11.828461 49.055267 26.026382 74.75226 84.55118l0 0c25.69696 58.52478 33.892273 115.55737 18.304688 127.38583l0 0c-15.587524 11.828461 -49.055267 -26.026398 -74.75223 -84.55118l0 0c-25.696991 -58.524796 -33.892273 -115.55737 -18.304718 -127.38583z" fill-rule="evenodd"/><path stroke="#ffffff" stroke-width="4.0" stroke-linejoin="round" stroke-linecap="butt" d="m460.33997 159.93988l0 0c15.587555 -11.828461 49.055267 26.026382 74.75226 84.55118l0 0c25.69696 58.52478 33.892273 115.55737 18.304688 127.38583l0 0c-15.587524 11.828461 -49.055267 -26.026398 -74.75223 -84.55118l0 0c-25.696991 -58.524796 -33.892273 -115.55737 -18.304718 -127.38583z" fill-rule="evenodd"/><path fill="#000000" fill-opacity="0.0" d="m374.66257 358.64392l0 0c0 -23.656921 41.668365 -42.834656 93.06894 -42.834656l0 0c51.400574 0 93.06897 19.177734 93.06897 42.834656l0 0c0 23.656921 -41.668396 42.834656 -93.06897 42.834656l0 0c-51.400574 0 -93.06894 -19.177734 -93.06894 -42.834656z" fill-rule="evenodd"/><path stroke="#ffffff" stroke-width="4.0" stroke-linejoin="round" stroke-linecap="butt" d="m374.66257 358.64392l0 0c0 -23.656921 41.668365 -42.834656 93.06894 -42.834656l0 0c51.400574 0 93.06897 19.177734 93.06897 42.834656l0 0c0 23.656921 -41.668396 42.834656 -93.06897 42.834656l0 0c-51.400574 0 -93.06894 -19.177734 -93.06894 -42.834656z" fill-rule="evenodd"/><path fill="#000000" d="m476.62292 159.94229l0 0c15.587555 11.828461 7.386902 68.86104 -18.31668 127.38583l0 0c-25.703583 58.52478 -59.176697 96.37964 -74.76425 84.55118l0 0c-15.587555 -11.828461 -7.3868713 -68.86105 18.316711 -127.38583l0 0c25.703583 -58.524796 59.176666 -96.37964 74.76422 -84.55118z" fill-rule="evenodd"/><path stroke="#000000" stroke-width="3.0" stroke-linejoin="round" stroke-linecap="butt" d="m476.62292 159.94229l0 0c15.587555 11.828461 7.386902 68.86104 -18.31668 127.38583l0 0c-25.703583 58.52478 -59.176697 96.37964 -74.76425 84.55118l0 0c-15.587555 -11.828461 -7.3868713 -68.86105 18.316711 -127.38583l0 0c25.703583 -58.524796 59.176666 -96.37964 74.76422 -84.55118z" fill-rule="evenodd"/><path fill="#000000" d="m406.98364 302.9114l0 0c0 -46.957245 28.957092 -85.02362 64.67746 -85.02362l0 0c17.153534 0 33.604492 8.957825 45.733856 24.902847c12.129395 15.945023 18.943604 37.57112 18.943604 60.120773l0 0c0 46.957245 -28.957092 85.02362 -64.67746 85.02362l0 0c-35.720367 0 -64.67746 -38.066376 -64.67746 -85.02362z" fill-rule="evenodd"/><path stroke="#000000" stroke-width="1.0" stroke-linejoin="round" stroke-linecap="butt" d="m406.98364 302.9114l0 0c0 -46.957245 28.957092 -85.02362 64.67746 -85.02362l0 0c17.153534 0 33.604492 8.957825 45.733856 24.902847c12.129395 15.945023 18.943604 37.57112 18.943604 60.120773l0 0c0 46.957245 -28.957092 85.02362 -64.67746 85.02362l0 0c-35.720367 0 -64.67746 -38.066376 -64.67746 -85.02362z" fill-rule="evenodd"/><path fill="#000000" d="m464.2691 159.93997l0 0c15.587555 -11.828461 49.055237 26.026398 74.75226 84.55118l0 0c25.69696 58.52478 33.892273 115.55737 18.304688 127.38583l0 0c-15.587524 11.828461 -49.055267 -26.026398 -74.75223 -84.55118l0 0c-25.696991 -58.524796 -33.892273 -115.55737 -18.304718 -127.38583z" fill-rule="evenodd"/><path stroke="#000000" stroke-width="3.0" stroke-linejoin="round" stroke-linecap="butt" d="m464.2691 159.93997l0 0c15.587555 -11.828461 49.055237 26.026398 74.75226 84.55118l0 0c25.69696 58.52478 33.892273 115.55737 18.304688 127.38583l0 0c-15.587524 11.828461 -49.055267 -26.026398 -74.75223 -84.55118l0 0c-25.696991 -58.524796 -33.892273 -115.55737 -18.304718 -127.38583z" fill-rule="evenodd"/><path fill="#000000" d="m378.59167 358.644l0 0c0 -23.656921 41.668396 -42.834625 93.06897 -42.834625l0 0c51.400574 0 93.06897 19.177704 93.06897 42.834625l0 0c0 23.656921 -41.668396 42.834656 -93.06897 42.834656l0 0c-51.400574 0 -93.06897 -19.177734 -93.06897 -42.834656z" fill-rule="evenodd"/><path stroke="#000000" stroke-width="3.0" stroke-linejoin="round" stroke-linecap="butt" d="m378.59167 358.644l0 0c0 -23.656921 41.668396 -42.834625 93.06897 -42.834625l0 0c51.400574 0 93.06897 19.177704 93.06897 42.834625l0 0c0 23.656921 -41.668396 42.834656 -93.06897 42.834656l0 0c-51.400574 0 -93.06897 -19.177734 -93.06897 -42.834656z"
fill-rule="evenodd"/></g></svg>
