<svg width="210" height="70" viewBox="0 0 210 70" fill="none" xmlns="http://www.w3.org/2000/svg">
<g clip-path="url(#clip0_197_2)">
<path fill-rule="evenodd" clip-rule="evenodd" d="M180.041 3.53271L150.01 20.1719L177.491 20.3141L180.013 12.1082L182.449 20.3851L209.619 20.0723L180.041 3.53271Z" fill="#E81D2D"/>
<path fill-rule="evenodd" clip-rule="evenodd" d="M148.742 21.6296H151.54L147.248 26.2872L143.21 41.2909L146.554 45.5219L148.749 45.4864L150.435 50.9618L144.393 50.9973L139.173 45.6997L144.485 26.4295L148.742 21.6296Z" fill="#E81D2D"/>
<path fill-rule="evenodd" clip-rule="evenodd" d="M166.159 21.6652L162.334 26.9982L158.509 39.8688L153.381 45.3087L149.946 45.4153L151.788 51.0328H156.569L164.926 42.8909L161.697 39.0154L164.53 32.9002L175.012 29.0605L176.79 21.8075L166.159 21.6652Z" fill="#E81D2D"/>
<path fill-rule="evenodd" clip-rule="evenodd" d="M166.442 43.794L166.513 51.1181L174.092 47.7618L176.004 39.9398L166.442 43.794Z" fill="#E81D2D"/>
<path fill-rule="evenodd" clip-rule="evenodd" d="M153.126 21.594H164.459L160.988 26.3582L157.305 39.0866L153.027 43.8863L147.113 44.0286L144.627 41.0065L148.452 26.7849L153.126 21.594Z" fill="#E81D2D"/>
<path fill-rule="evenodd" clip-rule="evenodd" d="M144.415 52.5259H165.096L158.58 64.2589L147.035 64.8276L143.494 62.2678L144.415 52.5259Z" fill="#E81D2D"/>
<path fill-rule="evenodd" clip-rule="evenodd" d="M165.5 33.9882L163.163 38.8769L166.031 42.2545L184.857 35.0336L180.013 14.7678L175.791 30.1981L165.5 33.9882Z" fill="white"/>
<path fill-rule="evenodd" clip-rule="evenodd" d="M141.34 33.9667L139.074 41.9308L128.237 38.66L136.595 17.3986L136.949 32.758L141.34 33.9667Z" fill="white"/>
<path fill-rule="evenodd" clip-rule="evenodd" d="M165.358 51.1751V44.1851L158.057 51.1751H165.358Z" fill="white"/>
<path fill-rule="evenodd" clip-rule="evenodd" d="M8.45166 5.12305V19.0541H12.034V11.2934L14.8195 16.2685H17.605L20.3906 11.2934V19.0541H23.9729V5.12305H20.193L16.2123 12.4854L12.2316 5.12305H8.45166Z" stroke="white" stroke-width="0.707585" stroke-miterlimit="10" stroke-linejoin="round"/>
<path fill-rule="evenodd" clip-rule="evenodd" d="M26.3619 5.12305V19.0541H37.4068V16.2685H29.9442V13.3826H35.8133V10.597H29.9442V7.90861H37.4068V5.12305H26.3619Z" stroke="white" stroke-width="0.707585" stroke-miterlimit="10" stroke-linejoin="round"/>
<path fill-rule="evenodd" clip-rule="evenodd" d="M42.5809 5.12305C41.186 5.12305 40.1733 5.43832 39.5428 6.06885C38.9144 6.69938 38.6002 7.71104 38.6002 9.10382V15.4718C38.6002 16.7717 38.9047 17.7272 39.5136 18.3383C40.1247 18.9472 41.0802 19.2517 42.3801 19.2517C44.33 19.2517 46.7841 19.12 49.7423 18.8565V16.1681C48.8808 16.2221 48.1617 16.2696 47.5852 16.3107C47.0086 16.3495 46.5379 16.3754 46.173 16.3884C45.808 16.4013 45.4464 16.4143 45.0879 16.4273C44.7295 16.4402 44.384 16.4499 44.0514 16.4564C43.7211 16.4629 43.4166 16.4661 43.138 16.4661C42.8595 16.4661 42.6306 16.3765 42.4514 16.1973C42.2722 16.0181 42.1825 15.7762 42.1825 15.4717V9.10381C42.1825 8.30701 42.5799 7.90861 43.3745 7.90861H49.7423V5.12305L42.5809 5.12305Z" stroke="white" stroke-width="0.707585" stroke-miterlimit="10" stroke-linejoin="round"/>
<path fill-rule="evenodd" clip-rule="evenodd" d="M51.3368 5.12305V19.0541H54.9191V13.3826H59.8942V19.0541H63.4733V5.12305H59.8942V10.597H54.9191V5.12305H51.3368Z" stroke="white" stroke-width="0.707585" stroke-miterlimit="10" stroke-linejoin="round"/>
<path fill-rule="evenodd" clip-rule="evenodd" d="M71.7331 9.30139L73.3266 13.9786H70.1427L71.7331 9.30139ZM69.7443 5.12305L64.4713 19.0541H68.3516L69.2455 16.5665H74.2206L75.1178 19.0541H78.9981L73.725 5.12305H69.7443Z" stroke="white" stroke-width="0.707585" stroke-miterlimit="10" stroke-linejoin="round"/>
<path fill-rule="evenodd" clip-rule="evenodd" d="M85.9633 5.12305V19.0541H89.5457V11.2934L92.3312 16.2685H95.1167L97.9022 11.2934V19.0541H101.485V5.12305H97.7047L93.724 12.4854L89.7432 5.12305H85.9633Z" stroke="white" stroke-width="0.707585" stroke-miterlimit="10" stroke-linejoin="round"/>
<path fill-rule="evenodd" clip-rule="evenodd" d="M109.743 9.30139L111.336 13.9786H108.152L109.743 9.30139ZM107.754 5.12305L102.481 19.0541H106.361L107.255 16.5665H112.23L113.127 19.0541H117.008L111.735 5.12305H107.754ZM114.817 5.12305L120.09 15.3713V19.0541H123.673V15.3713L128.946 5.12305H125.166L121.881 11.8894L118.597 5.12305H114.817Z" stroke="white" stroke-width="0.707585" stroke-miterlimit="10" stroke-linejoin="round"/>
<path fill-rule="evenodd" clip-rule="evenodd" d="M129.744 5.12305V19.0541H133.326V13.3826H138.301V19.0541H141.881V5.12305H138.301V10.597H133.326V5.12305H129.744Z" stroke="white" stroke-width="0.707585" stroke-miterlimit="10" stroke-linejoin="round"/>
<path fill-rule="evenodd" clip-rule="evenodd" d="M144.271 5.12305V19.0541H155.316V16.2685H147.854V13.3826H153.723V10.597H147.854V7.90861H155.316V5.12305H144.271Z" stroke="white" stroke-width="0.707585" stroke-miterlimit="10" stroke-linejoin="round"/>
<path fill-rule="evenodd" clip-rule="evenodd" d="M156.908 5.12305V19.0541H160.49V11.2934L163.276 16.2685H166.061L168.847 11.2934V19.0541H172.429V5.12305H168.649L164.669 12.4854L160.688 5.12305H156.908Z" stroke="white" stroke-width="0.707585" stroke-miterlimit="10" stroke-linejoin="round"/>
<path d="M8.38794 59.6074V48.2142C8.38794 47.1923 8.61627 46.267 9.07293 45.4384C9.52959 44.5822 10.1385 43.9193 10.8996 43.4498C11.686 42.9526 12.5486 42.704 13.4873 42.704H30.4218C30.5994 42.704 30.7516 42.635 30.8785 42.4969C31.0307 42.3312 31.1068 42.1378 31.1068 41.9169V35.4953C31.1068 35.2743 31.0307 35.0948 30.8785 34.9567C30.7516 34.791 30.5994 34.7081 30.4218 34.7081H13.6395C13.4366 34.7081 13.259 34.791 13.1068 34.9567C12.9799 35.0948 12.9165 35.2743 12.9165 35.4953V37.3182H8.38794V35.3295C8.38794 34.28 8.61627 33.3409 9.07293 32.5123C9.52959 31.6837 10.1385 31.0208 10.8996 30.5237C11.686 30.0265 12.5486 29.778 13.4873 29.778H30.536C31.4747 29.778 32.3246 30.0265 33.0857 30.5237C33.8722 31.0208 34.4937 31.6837 34.9504 32.5123C35.407 33.3409 35.6354 34.28 35.6354 35.3295V42.0826C35.6354 43.1045 35.407 44.0436 34.9504 44.8998C34.4937 45.7284 33.8722 46.4051 33.0857 46.9299C32.3246 47.427 31.4747 47.6756 30.536 47.6756H13.6395C13.4366 47.6756 13.259 47.7447 13.1068 47.8828C12.9799 48.0209 12.9165 48.2004 12.9165 48.4214V53.8901C12.9165 54.1111 12.9799 54.3044 13.1068 54.4701C13.259 54.6082 13.4366 54.6773 13.6395 54.6773H35.6354V59.6074H8.38794Z" fill="white"/>
<path d="M45.073 59.6074C44.1344 59.6074 43.2718 59.345 42.4853 58.8202C41.7242 58.2678 41.1153 57.5497 40.6587 56.6659C40.202 55.7821 39.9737 54.843 39.9737 53.8487V35.4124C39.9737 34.3905 40.202 33.4514 40.6587 32.5952C41.1153 31.739 41.7242 31.0623 42.4853 30.5651C43.2718 30.0403 44.1344 29.778 45.073 29.778H62.1217C63.0604 29.778 63.9103 30.0403 64.6714 30.5651C65.4579 31.0623 66.0794 31.739 66.5361 32.5952C66.9928 33.4514 67.2211 34.3905 67.2211 35.4124V53.8487C67.2211 54.843 66.9928 55.7821 66.5361 56.6659C66.0794 57.5497 65.4579 58.2678 64.6714 58.8202C63.9103 59.345 63.0604 59.6074 62.1217 59.6074H45.073ZM46.3289 54.4287H62.0075C62.1851 54.4287 62.3374 54.3596 62.4642 54.2215C62.6164 54.0558 62.6925 53.8763 62.6925 53.6829V39.6382L46.3289 54.4287ZM44.5022 49.6228L60.8659 34.8324H45.2253C45.0223 34.8324 44.8447 34.9153 44.6925 35.081C44.5656 35.2191 44.5022 35.3848 44.5022 35.5781V49.6228Z" fill="white"/>
<path d="M71.7116 59.6074V48.2142C71.7116 47.1923 71.9399 46.267 72.3966 45.4384C72.8532 44.5822 73.4621 43.9193 74.2232 43.4498C75.0097 42.9526 75.8723 42.704 76.811 42.704H93.7455C93.9231 42.704 94.0753 42.635 94.2021 42.4969C94.3543 42.3312 94.4305 42.1378 94.4305 41.9169V35.4953C94.4305 35.2743 94.3543 35.0948 94.2021 34.9567C94.0753 34.791 93.9231 34.7081 93.7455 34.7081H76.9632C76.7602 34.7081 76.5826 34.791 76.4304 34.9567C76.3036 35.0948 76.2401 35.2743 76.2401 35.4953V37.3182H71.7116V35.3295C71.7116 34.28 71.9399 33.3409 72.3966 32.5123C72.8532 31.6837 73.4621 31.0208 74.2232 30.5237C75.0097 30.0265 75.8723 29.778 76.811 29.778H93.8596C94.7983 29.778 95.6482 30.0265 96.4093 30.5237C97.1958 31.0208 97.8174 31.6837 98.274 32.5123C98.7307 33.3409 98.959 34.28 98.959 35.3295V42.0826C98.959 43.1045 98.7307 44.0436 98.274 44.8998C97.8174 45.7284 97.1958 46.4051 96.4093 46.9299C95.6482 47.427 94.7983 47.6756 93.8596 47.6756H76.9632C76.7602 47.6756 76.5826 47.7447 76.4304 47.8828C76.3036 48.0209 76.2401 48.2004 76.2401 48.4214V53.8901C76.2401 54.1111 76.3036 54.3044 76.4304 54.4701C76.5826 54.6082 76.7602 54.6773 76.9632 54.6773H98.959V59.6074H71.7116Z" fill="white"/>
<mask id="mask0_197_2" style="mask-type:alpha" maskUnits="userSpaceOnUse" x="100" y="28" width="38" height="35">
<path d="M130.5 29L100 28V61.3846H128.229L138 63V42.5385L128.229 40.3846V35L130.5 29Z" fill="#D9D9D9"/>
</mask>
<g mask="url(#mask0_197_2)">
<path d="M108.667 60C107.683 60 106.781 59.754 105.961 59.262C105.168 58.77 104.526 58.1277 104.034 57.335C103.569 56.5423 103.337 55.654 103.337 54.67V53.071H107.765V54.547C107.765 54.8203 107.861 55.0663 108.052 55.285C108.271 55.4763 108.517 55.572 108.79 55.572H127.404C127.677 55.572 127.91 55.4763 128.101 55.285C128.32 55.0663 128.429 54.8203 128.429 54.547V48.11C128.429 47.8367 128.32 47.6043 128.101 47.413C127.91 47.1943 127.677 47.085 127.404 47.085H103.337V30.439H132.857V34.908H108.79C108.517 34.908 108.271 35.0173 108.052 35.236C107.861 35.4273 107.765 35.6597 107.765 35.933V41.632C107.765 41.9053 107.861 42.1513 108.052 42.37C108.271 42.5613 108.517 42.657 108.79 42.657H127.527C128.484 42.657 129.358 42.8893 130.151 43.354C130.971 43.8187 131.627 44.461 132.119 45.281C132.611 46.101 132.857 47.003 132.857 47.987V54.67C132.857 55.654 132.611 56.5423 132.119 57.335C131.627 58.1277 130.971 58.77 130.151 59.262C129.358 59.754 128.484 60 127.527 60H108.667Z" fill="white"/>
</g>
</g>
<defs>
<clipPath id="clip0_197_2">
<rect width="210" height="70" fill="white"/>
</clipPath>
</defs>
</svg>
