<?xml version="1.0" encoding="UTF-8" standalone="no"?>
<!-- Created with Inkscape (http://www.inkscape.org/) -->

<svg
   width="210mm"
   height="70mm"
   viewBox="0 0 210 70"
   version="1.1"
   id="svg5"
   xml:space="preserve"
   xmlns="http://www.w3.org/2000/svg"
   xmlns:svg="http://www.w3.org/2000/svg"><defs
     id="defs2" /><g
     id="layer4"
     transform="translate(0.49372996,6.9122194)"
     style="display:inline"><rect
       style="display:inline;fill:none;stroke-width:0.132766"
       id="rect848"
       width="211.04419"
       height="70.932076"
       x="-0.62457353"
       y="-7.782022" /></g><g
     id="layer5"
     transform="translate(-5.0160101,-37.927251)"><g
       style="fill:none;stroke:none;stroke-linecap:square;stroke-miterlimit:10"
       id="g957"
       transform="matrix(0.11350671,0,0,0.11350671,119.46093,41.460555)"><g
         clip-path="url(#g24b98bd7e1d_1_0.0)"
         id="g938"><path
           fill="noe"
           d="M 0,0 H 960 V 540 H 0 Z"
           fill-rule="evenodd"
           id="path918" /><path
           fill="#e81d2d"
           d="M 577.906,-0.00557349 313.3298,146.58685 l 242.11179,1.25227 22.21375,-72.29409 21.46624,72.92022 239.3664,-2.75623 z"
           fill-rule="evenodd"
           id="path920" /><path
           fill="#e81d2d"
           d="m 302.16025,159.42877 h 24.64731 l -37.81473,41.03336 -35.56767,132.18362 29.45323,37.27502 19.34454,-0.31308 14.85044,48.23853 -53.22769,0.31304 -45.98819,-46.67163 46.79989,-169.77171 z"
           fill-rule="evenodd"
           id="path922" /><path
           fill="#e81d2d"
           d="m 455.60202,159.74184 -33.69666,46.98471 -33.69665,113.39037 -45.17651,47.92544 -30.26493,0.93921 16.22467,49.49079 h 42.1193 l 73.63309,-71.73087 -28.45508,-34.14279 24.96066,-53.87527 92.35092,-33.8282 15.66364,-63.89959 z"
           fill-rule="evenodd"
           id="path924" /><path
           fill="#e81d2d"
           d="m 458.0967,354.6986 0.62521,64.52573 66.76813,-29.56955 16.84674,-68.91174 z"
           fill-rule="evenodd"
           id="path926" /><path
           fill="#e81d2d"
           d="m 340.78516,159.11569 h 99.83957 l -30.57526,41.97256 -32.44778,112.1381 -37.68936,42.28561 -52.10419,1.25381 -21.90341,-26.62457 33.69666,-125.29306 z"
           fill-rule="evenodd"
           id="path928" /><path
           fill="#e81d2d"
           d="M 264.0337,431.62732 H 446.24082 L 388.83393,534.99493 287.1218,540.00555 255.92138,517.45392 Z"
           fill-rule="evenodd"
           id="path930" /><path
           fill="#ffffff"
           d="M 449.79788,268.3088 429.20599,311.37862 454.47848,341.1354 620.33715,277.51821 577.65533,98.976011 540.46582,234.918 Z"
           fill-rule="evenodd"
           id="path932" /><path
           fill="#ffffff"
           d="m 236.95132,268.12006 -19.96822,70.164 -95.47079,-28.81604 73.63156,-187.31427 3.11989,135.31738 z"
           fill-rule="evenodd"
           id="path934" /><path
           fill="#ffffff"
           d="M 448.55054,419.72617 V 358.1439 l -64.32996,61.58227 z"
           fill-rule="evenodd"
           id="path936" /></g></g></g><g
     id="layer3"
     transform="translate(8.5579859,-4.278993)"><g
       style="fill:none;stroke:none;stroke-linecap:square;stroke-miterlimit:10"
       id="g793"
       transform="matrix(0.17689625,0,0,0.17689625,-3.0272503,-31.29525)"><g
         clip-path="url(#g24b7234cf3d_0_23.0)"
         id="g763"><path
           fill="none"
           d="M 0,0 H 960 V 540 H 0 Z"
           fill-rule="evenodd"
           id="path721" /><path
           fill="#ffffff"
           fill-opacity="0"
           d="m 16.511784,230.06299 v 78.75275 H 36.76273 v -43.87155 l 15.746666,28.12466 h 15.74667 l 15.746666,-28.12466 v 43.87155 H 104.25368 V 230.06299 H 82.885819 l -22.50309,41.61939 -22.503082,-41.61939 z"
           fill-rule="evenodd"
           id="path723" /><path
           fill="#ffffff"
           fill-opacity="0"
           d="m 117.75915,230.06299 v 78.75275 h 62.43735 v -15.74689 h -42.18641 v -16.31451 h 33.17787 v -15.74689 h -33.17787 v -15.19757 h 42.18641 v -15.74689 z"
           fill-rule="evenodd"
           id="path725" /><path
           fill="#ffffff"
           fill-opacity="0"
           d="m 209.44574,230.06299 c -7.88556,0 -13.6105,1.7822 -17.17487,5.34662 -3.55215,3.56441 -5.32823,9.28334 -5.32823,17.15678 v 35.99813 c 0,7.34854 1.72115,12.75009 5.16345,16.20462 3.4545,3.44235 8.85598,5.16351 16.20441,5.16351 11.02268,0 24.89562,-0.7446 41.61882,-2.23386 v -15.19757 c -4.87048,0.30518 -8.93532,0.57373 -12.19452,0.80567 -3.2592,0.21972 -5.92026,0.36621 -7.9832,0.43945 -2.06294,0.0732 -4.10756,0.14648 -6.13386,0.21969 -2.02632,0.0733 -3.9794,0.12818 -5.85923,0.1648 -1.86763,0.0366 -3.58877,0.0549 -5.16345,0.0549 -1.57466,0 -2.86857,-0.50656 -3.88173,-1.51974 -1.01315,-1.01319 -1.51974,-2.38034 -1.51974,-4.10151 v -35.99812 c 0,-4.50435 2.24605,-6.75651 6.73811,-6.75651 h 35.99762 v -15.74689 z"
           fill-rule="evenodd"
           id="path727" /><path
           fill="#ffffff"
           fill-opacity="0"
           d="m 258.94296,230.06299 v 78.75275 h 20.25095 v -32.0614 h 28.12429 v 32.0614 h 20.23264 V 230.06299 H 307.3182 v 30.94446 h -28.12429 v -30.94446 z"
           fill-rule="evenodd"
           id="path729" /><path
           fill="#ffffff"
           fill-opacity="0"
           d="m 374.2437,253.68332 9.00855,26.44012 h -17.99881 z m -11.2424,-23.62033 -29.80881,78.75275 h 21.93549 l 5.05359,-14.06235 h 28.12426 l 5.0719,14.06235 h 21.93546 l -29.80881,-78.75275 z"
           fill-rule="evenodd"
           id="path731" /><path
           fill="#ffffff"
           fill-opacity="0"
           d="m 454.6879,230.06299 v 78.75275 h 20.25095 v -43.87155 l 15.74667,28.12466 h 15.74664 l 15.74668,-28.12466 v 43.87155 h 20.25097 v -78.75275 h -21.36792 l -22.50305,41.61939 -22.50308,-41.61939 z"
           fill-rule="evenodd"
           id="path733" /><path
           fill="#ffffff"
           fill-opacity="0"
           d="m 589.1131,253.68332 9.00855,26.44012 h -17.99878 z m -11.24237,-23.62033 -29.80884,78.75275 h 21.93549 l 5.05359,-14.06235 h 28.12426 l 5.0719,14.06235 h 21.93549 l -29.80884,-78.75275 z m 39.92914,0 29.80878,57.9339 v 20.81885 h 20.25097 v -20.81885 l 29.80878,-57.9339 h -21.36786 l -18.56641,38.25027 -18.5664,-38.25027 z"
           fill-rule="evenodd"
           id="path735" /><path
           fill="#ffffff"
           fill-opacity="0"
           d="m 702.1814,230.06299 v 78.75275 h 20.25098 v -32.0614 h 28.12427 v 32.0614 h 20.23266 v -78.75275 h -20.23266 v 30.94446 h -28.12427 v -30.94446 z"
           fill-rule="evenodd"
           id="path737" /><path
           fill="#ffffff"
           fill-opacity="0"
           d="m 784.30426,230.06299 v 78.75275 h 62.43738 v -15.74689 h -42.18646 v -16.31451 h 33.17791 v -15.74689 h -33.17791 v -15.19757 h 42.18646 v -15.74689 z"
           fill-rule="evenodd"
           id="path739" /><path
           fill="#ffffff"
           fill-opacity="0"
           d="m 855.73987,230.06299 v 78.75275 h 20.25098 v -43.87155 l 15.74664,28.12466 h 15.7467 l 15.74665,-28.12466 v 43.87155 h 20.25091 v -78.75275 h -21.36786 l -22.50305,41.61939 -22.50311,-41.61939 z"
           fill-rule="evenodd"
           id="path741" /><path
           stroke="#ffffff"
           stroke-width="4"
           stroke-linejoin="round"
           stroke-linecap="butt"
           d="m 16.511784,230.06299 v 78.75275 H 36.76273 v -43.87155 l 15.746666,28.12466 h 15.74667 l 15.746666,-28.12466 v 43.87155 H 104.25368 V 230.06299 H 82.885819 l -22.50309,41.61939 -22.503082,-41.61939 z"
           fill-rule="evenodd"
           id="path743" /><path
           stroke="#ffffff"
           stroke-width="4"
           stroke-linejoin="round"
           stroke-linecap="butt"
           d="m 117.75915,230.06299 v 78.75275 h 62.43735 v -15.74689 h -42.18641 v -16.31451 h 33.17787 v -15.74689 h -33.17787 v -15.19757 h 42.18641 v -15.74689 z"
           fill-rule="evenodd"
           id="path745" /><path
           stroke="#ffffff"
           stroke-width="4"
           stroke-linejoin="round"
           stroke-linecap="butt"
           d="m 209.44574,230.06299 c -7.88556,0 -13.6105,1.7822 -17.17487,5.34662 -3.55215,3.56441 -5.32823,9.28334 -5.32823,17.15678 v 35.99813 c 0,7.34854 1.72115,12.75009 5.16345,16.20462 3.4545,3.44235 8.85598,5.16351 16.20441,5.16351 11.02268,0 24.89562,-0.7446 41.61882,-2.23386 v -15.19757 c -4.87048,0.30518 -8.93532,0.57373 -12.19452,0.80567 -3.2592,0.21972 -5.92026,0.36621 -7.9832,0.43945 -2.06294,0.0732 -4.10756,0.14648 -6.13386,0.21969 -2.02632,0.0733 -3.9794,0.12818 -5.85923,0.1648 -1.86763,0.0366 -3.58877,0.0549 -5.16345,0.0549 -1.57466,0 -2.86857,-0.50656 -3.88173,-1.51974 -1.01315,-1.01319 -1.51974,-2.38034 -1.51974,-4.10151 v -35.99812 c 0,-4.50435 2.24605,-6.75651 6.73811,-6.75651 h 35.99762 v -15.74689 z"
           fill-rule="evenodd"
           id="path747" /><path
           stroke="#ffffff"
           stroke-width="4"
           stroke-linejoin="round"
           stroke-linecap="butt"
           d="m 258.94296,230.06299 v 78.75275 h 20.25095 v -32.0614 h 28.12429 v 32.0614 h 20.23264 V 230.06299 H 307.3182 v 30.94446 h -28.12429 v -30.94446 z"
           fill-rule="evenodd"
           id="path749" /><path
           stroke="#ffffff"
           stroke-width="4"
           stroke-linejoin="round"
           stroke-linecap="butt"
           d="m 374.2437,253.68332 9.00855,26.44012 h -17.99881 z m -11.2424,-23.62033 -29.80881,78.75275 h 21.93549 l 5.05359,-14.06235 h 28.12426 l 5.0719,14.06235 h 21.93546 l -29.80881,-78.75275 z"
           fill-rule="evenodd"
           id="path751" /><path
           stroke="#ffffff"
           stroke-width="4"
           stroke-linejoin="round"
           stroke-linecap="butt"
           d="m 454.6879,230.06299 v 78.75275 h 20.25095 v -43.87155 l 15.74667,28.12466 h 15.74664 l 15.74668,-28.12466 v 43.87155 h 20.25097 v -78.75275 h -21.36792 l -22.50305,41.61939 -22.50308,-41.61939 z"
           fill-rule="evenodd"
           id="path753" /><path
           stroke="#ffffff"
           stroke-width="4"
           stroke-linejoin="round"
           stroke-linecap="butt"
           d="m 589.1131,253.68332 9.00855,26.44012 h -17.99878 z m -11.24237,-23.62033 -29.80884,78.75275 h 21.93549 l 5.05359,-14.06235 h 28.12426 l 5.0719,14.06235 h 21.93549 l -29.80884,-78.75275 z m 39.92914,0 29.80878,57.9339 v 20.81885 h 20.25097 v -20.81885 l 29.80878,-57.9339 h -21.36786 l -18.56641,38.25027 -18.5664,-38.25027 z"
           fill-rule="evenodd"
           id="path755" /><path
           stroke="#ffffff"
           stroke-width="4"
           stroke-linejoin="round"
           stroke-linecap="butt"
           d="m 702.1814,230.06299 v 78.75275 h 20.25098 v -32.0614 h 28.12427 v 32.0614 h 20.23266 v -78.75275 h -20.23266 v 30.94446 h -28.12427 v -30.94446 z"
           fill-rule="evenodd"
           id="path757" /><path
           stroke="#ffffff"
           stroke-width="4"
           stroke-linejoin="round"
           stroke-linecap="butt"
           d="m 784.30426,230.06299 v 78.75275 h 62.43738 v -15.74689 h -42.18646 v -16.31451 h 33.17791 v -15.74689 h -33.17791 v -15.19757 h 42.18646 v -15.74689 z"
           fill-rule="evenodd"
           id="path759" /><path
           stroke="#ffffff"
           stroke-width="4"
           stroke-linejoin="round"
           stroke-linecap="butt"
           d="m 855.73987,230.06299 v 78.75275 h 20.25098 v -43.87155 l 15.74664,28.12466 h 15.7467 l 15.74665,-28.12466 v 43.87155 h 20.25091 v -78.75275 h -21.36786 l -22.50305,41.61939 -22.50311,-41.61939 z"
           fill-rule="evenodd"
           id="path761" /></g></g></g><g
     id="layer2"><g
       aria-label="2024"
       transform="scale(0.95840686,1.0433982)"
       id="text256"
       style="font-weight:bold;font-size:39.7066px;font-family:Orbitron;-inkscape-font-specification:'Orbitron Bold';fill:#ffffff;stroke-width:0.206805"><path
         d="m 8.7519857,57.128147 v 0 -10.919315 q 0,-1.469144 0.7147188,-2.660342 0.7147185,-1.230905 1.9059165,-1.905917 1.230905,-0.714719 2.700049,-0.714719 h 17.669437 q 0.277946,0 0.476479,-0.198533 0.23824,-0.238239 0.23824,-0.555892 v -6.154523 q 0,-0.317653 -0.23824,-0.516186 -0.198533,-0.23824 -0.476479,-0.23824 H 14.231496 q -0.317652,0 -0.555892,0.23824 -0.198533,0.198533 -0.198533,0.516186 v 1.74709 H 8.7519857 v -1.905917 q 0,-1.50885 0.7147188,-2.700048 0.7147185,-1.191198 1.9059165,-1.905917 1.230905,-0.714719 2.700049,-0.714719 h 17.788557 q 1.469144,0 2.660342,0.714719 1.230905,0.714719 1.945624,1.905917 0.714718,1.191198 0.714718,2.700048 v 6.472176 q 0,1.469144 -0.714718,2.700049 -0.714719,1.191198 -1.945624,1.945623 -1.191198,0.714719 -2.660342,0.714719 H 14.231496 q -0.317652,0 -0.555892,0.198533 -0.198533,0.198533 -0.198533,0.516186 v 5.241271 q 0,0.317653 0.198533,0.555893 0.23824,0.198533 0.555892,0.198533 h 22.950415 v 4.725085 z"
         style="font-weight:600;-inkscape-font-specification:'Orbitron Semi-Bold'"
         id="path786" /><path
         d="m 47.029144,57.128147 q -1.469144,0 -2.700048,-0.754425 Q 43.137898,55.57959 42.423179,54.308979 41.70846,53.038367 41.70846,51.60893 V 33.939493 q 0,-1.469145 0.714719,-2.700049 0.714719,-1.230905 1.905917,-1.945624 1.230904,-0.754425 2.700048,-0.754425 h 17.788557 q 1.469144,0 2.660342,0.754425 1.230905,0.714719 1.945624,1.945624 0.714719,1.230904 0.714719,2.700049 V 51.60893 q 0,1.429437 -0.714719,2.700049 -0.714719,1.270611 -1.945624,2.064743 -1.191198,0.754425 -2.660342,0.754425 z m 1.310318,-4.963325 v 0 h 16.359119 q 0.277947,0 0.47648,-0.198533 0.238239,-0.23824 0.238239,-0.516186 V 37.989566 Z m -1.905917,-4.605966 v 0 L 63.507383,33.3836 H 47.187971 q -0.317653,0 -0.555893,0.23824 -0.198533,0.198533 -0.198533,0.476479 z"
         style="font-weight:600;-inkscape-font-specification:'Orbitron Semi-Bold'"
         id="path788" /><path
         d="m 74.823748,57.128147 v 0 -10.919315 q 0,-1.469144 0.714719,-2.660342 0.714718,-1.230905 1.905916,-1.905917 1.230905,-0.714719 2.700049,-0.714719 h 17.669437 q 0.277946,0 0.476479,-0.198533 0.23824,-0.238239 0.23824,-0.555892 v -6.154523 q 0,-0.317653 -0.23824,-0.516186 -0.198533,-0.23824 -0.476479,-0.23824 h -17.51061 q -0.317653,0 -0.555893,0.23824 -0.198533,0.198533 -0.198533,0.516186 v 1.74709 h -4.725085 v -1.905917 q 0,-1.50885 0.714719,-2.700048 0.714718,-1.191198 1.905916,-1.905917 1.230905,-0.714719 2.700049,-0.714719 h 17.788557 q 1.469144,0 2.660341,0.714719 1.23091,0.714719 1.94562,1.905917 0.71472,1.191198 0.71472,2.700048 v 6.472176 q 0,1.469144 -0.71472,2.700049 -0.71471,1.191198 -1.94562,1.945623 -1.191197,0.714719 -2.660341,0.714719 h -17.62973 q -0.317653,0 -0.555893,0.198533 -0.198533,0.198533 -0.198533,0.516186 v 5.241271 q 0,0.317653 0.198533,0.555893 0.23824,0.198533 0.555893,0.198533 h 22.950411 v 4.725085 z"
         style="font-weight:600;-inkscape-font-specification:'Orbitron Semi-Bold'"
         id="path790" /><path
         d="m 124.21876,57.128147 v 0 -7.226601 H 105.75519 V 45.29558 l 18.58269,-16.756185 h 4.60597 v 16.597359 h 4.12948 v 4.764792 h -4.12948 v 7.226601 z M 112.94209,45.136754 v 0 h 11.27667 V 35.60717 Z"
         style="font-weight:600;-inkscape-font-specification:'Orbitron Semi-Bold'"
         id="path792" /></g></g></svg>
