<svg version="1.1" viewBox="0.0 0.0 960.0 540.0" fill="none" stroke="none" stroke-linecap="square" stroke-miterlimit="10" xmlns:xlink="http://www.w3.org/1999/xlink" xmlns="http://www.w3.org/2000/svg"><clipPath id="g24b98bd7e1d_1_0.0"><path d="m0 0l960.0 0l0 540.0l-960.0 0l0 -540.0z" clip-rule="nonzero"/></clipPath><g clip-path="url(#g24b98bd7e1d_1_0.0)"><path fill="noe" d="m0 0l960.0 0l0 540.0l-960.0 0z" fill-rule="evenodd"/><path fill="#e81d2d" d="m577.906 -0.0055734906l-264.5762 146.59242l242.11179 1.2522736l22.213745 -72.29409l21.466248 72.92022l239.3664 -2.7562256z" fill-rule="evenodd"/><path fill="#e81d2d" d="m302.16025 159.42877l24.647308 0l-37.814728 41.033356l-35.567673 132.18362l29.453232 37.275024l19.344543 -0.31307983l14.850433 48.238525l-53.22769 0.31304932l-45.98819 -46.67163l46.799896 -169.77171z" fill-rule="evenodd"/><path fill="#e81d2d" d="m455.60202 159.74184l-33.696655 46.98471l-33.696655 113.390366l-45.176514 47.925446l-30.264923 0.939209l16.22467 49.490784l42.119293 0l73.63309 -71.730865l-28.455078 -34.14279l24.960663 -53.875275l92.35092 -33.8282l15.663635 -63.899582z" fill-rule="evenodd"/><path fill="#e81d2d" d="m458.0967 354.6986l0.6252136 64.52573l66.76813 -29.56955l16.84674 -68.91174z" fill-rule="evenodd"/><path fill="#e81d2d" d="m340.78516 159.11569l99.83957 0l-30.575256 41.972565l-32.447784 112.13809l-37.68936 42.285614l-52.104187 1.2538147l-21.903412 -26.624573l33.696655 -125.29306z" fill-rule="evenodd"/><path fill="#e81d2d" d="m264.0337 431.62732l182.20712 0l-57.40689 103.367615l-101.71213 5.01062l-31.200424 -22.551636z" fill-rule="evenodd"/><path fill="#ffffff" d="m449.79788 268.3088l-20.591888 43.069824l25.272491 29.756775l165.85867 -63.617188l-42.681824 -178.5422l-37.189514 135.94199z" fill-rule="evenodd"/><path fill="#ffffff" d="m236.95132 268.12006l-19.968216 70.164l-95.470795 -28.81604l73.63156 -187.31427l3.1198883 135.31738z" fill-rule="evenodd"/><path fill="#ffffff" d="m448.55054 419.72617l0 -61.582275l-64.329956 61.582275z" fill-rule="evenodd"/></g></svg>