<svg width="1234" height="178" viewBox="0 0 1234 178" fill="none" xmlns="http://www.w3.org/2000/svg">
<g clip-path="url(#clip0_1_2)">
<g clip-path="url(#clip1_1_2)">
<g filter="url(#filter0_d_1_2)">
<path d="M832.278 121.475L832.695 118.05C836.932 83.2371 855.754 51.8619 884.474 31.7374C889.433 28.2631 896.062 28.3692 900.906 32.0005L906.255 36.0096C932.358 55.5753 949.617 84.7111 954.235 117.004C955.63 126.763 949.67 136.074 940.223 138.894L933.972 140.759C907.166 148.76 878.591 148.655 851.845 140.456L842.81 137.686C835.835 135.547 831.397 128.716 832.278 121.475Z" stroke="white" stroke-width="5"/>
</g>
<path d="M892.85 27.1L893.886 85.2139C893.991 91.088 897.139 96.4861 902.199 99.4702L953.082 129.475L900.925 101.107C895.89 98.3683 889.81 98.3683 884.775 101.107L832.618 129.475L883.501 99.4701C888.561 96.4861 891.709 91.088 891.814 85.2139L892.85 27.1Z" fill="white"/>
</g>
<path d="M975 91.55C972.03 91.55 969.757 90.7067 968.18 89.02C966.603 87.3333 965.815 84.95 965.815 81.87V61.63C965.815 58.55 966.603 56.1667 968.18 54.48C969.757 52.7933 972.03 51.95 975 51.95C977.97 51.95 980.243 52.7933 981.82 54.48C983.397 56.1667 984.185 58.55 984.185 61.63V81.87C984.185 84.95 983.397 87.3333 981.82 89.02C980.243 90.7067 977.97 91.55 975 91.55ZM975 86.05C977.09 86.05 978.135 84.785 978.135 82.255V61.245C978.135 58.715 977.09 57.45 975 57.45C972.91 57.45 971.865 58.715 971.865 61.245V82.255C971.865 84.785 972.91 86.05 975 86.05ZM987.949 52.5H994.054L998.014 82.365H998.124L1002.08 52.5H1007.64L1001.81 91H993.779L987.949 52.5ZM1011.92 52.5H1028.42V58H1017.97V68.175H1026.28V73.675H1017.97V85.5H1028.42V91H1011.92V52.5ZM1033.28 52.5H1042.24C1045.36 52.5 1047.63 53.2333 1049.06 54.7C1050.49 56.13 1051.21 58.3483 1051.21 61.355V63.72C1051.21 67.7167 1049.89 70.2467 1047.25 71.31V71.42C1048.71 71.86 1049.74 72.7583 1050.33 74.115C1050.95 75.4717 1051.26 77.2867 1051.26 79.56V86.325C1051.26 87.425 1051.3 88.3233 1051.37 89.02C1051.44 89.68 1051.63 90.34 1051.92 91H1045.76C1045.54 90.3767 1045.39 89.79 1045.32 89.24C1045.25 88.69 1045.21 87.7 1045.21 86.27V79.23C1045.21 77.47 1044.92 76.2417 1044.33 75.545C1043.78 74.8483 1042.81 74.5 1041.42 74.5H1039.33V91H1033.28V52.5ZM1041.53 69C1042.74 69 1043.63 68.6883 1044.22 68.065C1044.84 67.4417 1045.16 66.3967 1045.16 64.93V61.96C1045.16 60.5667 1044.9 59.5583 1044.39 58.935C1043.91 58.3117 1043.14 58 1042.08 58H1039.33V69H1041.53ZM1075.82 91.55C1072.88 91.55 1070.65 90.725 1069.11 89.075C1067.57 87.3883 1066.8 84.9867 1066.8 81.87V52.5H1072.85V82.31C1072.85 83.63 1073.1 84.5833 1073.62 85.17C1074.17 85.7567 1074.94 86.05 1075.93 86.05C1076.92 86.05 1077.67 85.7567 1078.18 85.17C1078.73 84.5833 1079.01 83.63 1079.01 82.31V52.5H1084.84V81.87C1084.84 84.9867 1084.07 87.3883 1082.53 89.075C1080.99 90.725 1078.75 91.55 1075.82 91.55ZM1090.52 52.5H1098.11L1104 75.545H1104.11V52.5H1109.5V91H1103.28L1096.02 62.895H1095.91V91H1090.52V52.5ZM1115.37 52.5H1124.61C1127.61 52.5 1129.87 53.3067 1131.37 54.92C1132.88 56.5333 1133.63 58.8983 1133.63 62.015V81.485C1133.63 84.6017 1132.88 86.9667 1131.37 88.58C1129.87 90.1933 1127.61 91 1124.61 91H1115.37V52.5ZM1124.5 85.5C1125.49 85.5 1126.24 85.2067 1126.75 84.62C1127.3 84.0333 1127.58 83.08 1127.58 81.76V61.74C1127.58 60.42 1127.3 59.4667 1126.75 58.88C1126.24 58.2933 1125.49 58 1124.5 58H1121.42V85.5H1124.5ZM1139.09 52.5H1155.59V58H1145.14V68.175H1153.44V73.675H1145.14V85.5H1155.59V91H1139.09V52.5ZM1160.44 52.5H1169.41C1172.52 52.5 1174.8 53.2333 1176.23 54.7C1177.66 56.13 1178.37 58.3483 1178.37 61.355V63.72C1178.37 67.7167 1177.05 70.2467 1174.41 71.31V71.42C1175.88 71.86 1176.9 72.7583 1177.49 74.115C1178.11 75.4717 1178.43 77.2867 1178.43 79.56V86.325C1178.43 87.425 1178.46 88.3233 1178.54 89.02C1178.61 89.68 1178.79 90.34 1179.09 91H1172.93C1172.71 90.3767 1172.56 89.79 1172.49 89.24C1172.41 88.69 1172.38 87.7 1172.38 86.27V79.23C1172.38 77.47 1172.08 76.2417 1171.5 75.545C1170.95 74.8483 1169.97 74.5 1168.58 74.5H1166.49V91H1160.44V52.5ZM1168.69 69C1169.9 69 1170.8 68.6883 1171.39 68.065C1172.01 67.4417 1172.32 66.3967 1172.32 64.93V61.96C1172.32 60.5667 1172.06 59.5583 1171.55 58.935C1171.07 58.3117 1170.3 58 1169.24 58H1166.49V69H1168.69Z" fill="white"/>
<path d="M981.34 119.8H979.576L979.864 116.992H981.628L982.312 110.404H980.512L980.8 107.596H982.6L983.212 101.8H986.344L985.732 107.596H988.288L988.9 101.8H992.032L991.42 107.596H993.256L992.968 110.404H991.132L990.448 116.992H992.284L991.996 119.8H990.16L989.404 127H986.272L987.028 119.8H984.472L983.716 127H980.584L981.34 119.8ZM987.316 116.992L988 110.404H985.444L984.76 116.992H987.316ZM996.212 101.8H1001.86L1004.38 119.836H1004.46L1006.98 101.8H1012.63V127H1008.88V107.92H1008.81L1005.93 127H1002.62L999.74 107.92H999.668V127H996.212V101.8ZM1016.48 101.8H1027.28V105.4H1020.44V112.06H1025.88V115.66H1020.44V123.4H1027.28V127H1016.48V101.8ZM1036.04 127.36C1034.15 127.36 1032.69 126.82 1031.69 125.74C1030.7 124.66 1030.21 123.136 1030.21 121.168V107.632C1030.21 105.664 1030.7 104.14 1031.69 103.06C1032.69 101.98 1034.15 101.44 1036.04 101.44C1037.94 101.44 1039.38 101.98 1040.36 103.06C1041.37 104.14 1041.87 105.664 1041.87 107.632V110.296H1038.13V107.38C1038.13 105.82 1037.47 105.04 1036.15 105.04C1034.83 105.04 1034.17 105.82 1034.17 107.38V121.456C1034.17 122.992 1034.83 123.76 1036.15 123.76C1037.47 123.76 1038.13 122.992 1038.13 121.456V117.604H1041.87V121.168C1041.87 123.136 1041.37 124.66 1040.36 125.74C1039.38 126.82 1037.94 127.36 1036.04 127.36ZM1045.14 101.8H1049.1V112.06H1053.35V101.8H1057.31V127H1053.35V115.66H1049.1V127H1045.14V101.8ZM1064.22 101.8H1069.58L1073.69 127H1069.73L1069.01 121.996V122.068H1064.51L1063.79 127H1060.12L1064.22 101.8ZM1068.54 118.648L1066.78 106.192H1066.7L1064.98 118.648H1068.54ZM1076.44 124.264C1076.44 122.464 1076.72 120.928 1077.3 119.656C1077.88 118.36 1078.91 116.932 1080.4 115.372C1081.86 113.812 1082.87 112.48 1083.42 111.376C1084 110.272 1084.28 109.12 1084.28 107.92C1084.28 106.84 1084.1 106.096 1083.74 105.688C1083.41 105.256 1082.9 105.04 1082.23 105.04C1080.86 105.04 1080.18 105.868 1080.18 107.524V110.224H1076.44V107.776C1076.44 105.736 1076.94 104.176 1077.95 103.096C1078.96 101.992 1080.42 101.44 1082.34 101.44C1084.26 101.44 1085.72 101.992 1086.73 103.096C1087.74 104.176 1088.24 105.736 1088.24 107.776C1088.24 109.312 1087.87 110.812 1087.13 112.276C1086.41 113.74 1085.15 115.42 1083.35 117.316C1082.17 118.564 1081.38 119.584 1080.97 120.376C1080.56 121.144 1080.36 121.972 1080.36 122.86V123.4H1087.88V127H1076.44V124.264ZM1097.55 127.36C1095.6 127.36 1094.11 126.808 1093.08 125.704C1092.05 124.6 1091.53 123.04 1091.53 121.024V107.776C1091.53 105.76 1092.05 104.2 1093.08 103.096C1094.11 101.992 1095.6 101.44 1097.55 101.44C1099.49 101.44 1100.98 101.992 1102.01 103.096C1103.04 104.2 1103.56 105.76 1103.56 107.776V121.024C1103.56 123.04 1103.04 124.6 1102.01 125.704C1100.98 126.808 1099.49 127.36 1097.55 127.36ZM1097.55 123.76C1098.91 123.76 1099.6 122.932 1099.6 121.276V107.524C1099.6 105.868 1098.91 105.04 1097.55 105.04C1096.18 105.04 1095.49 105.868 1095.49 107.524V121.276C1095.49 122.932 1096.18 123.76 1097.55 123.76ZM1107.06 124.264C1107.06 122.464 1107.35 120.928 1107.93 119.656C1108.5 118.36 1109.54 116.932 1111.02 115.372C1112.49 113.812 1113.5 112.48 1114.05 111.376C1114.62 110.272 1114.91 109.12 1114.91 107.92C1114.91 106.84 1114.73 106.096 1114.37 105.688C1114.04 105.256 1113.53 105.04 1112.86 105.04C1111.49 105.04 1110.81 105.868 1110.81 107.524V110.224H1107.06V107.776C1107.06 105.736 1107.57 104.176 1108.58 103.096C1109.58 101.992 1111.05 101.44 1112.97 101.44C1114.89 101.44 1116.35 101.992 1117.36 103.096C1118.37 104.176 1118.87 105.736 1118.87 107.776C1118.87 109.312 1118.5 110.812 1117.76 112.276C1117.04 113.74 1115.78 115.42 1113.98 117.316C1112.8 118.564 1112.01 119.584 1111.6 120.376C1111.19 121.144 1110.99 121.972 1110.99 122.86V123.4H1118.51V127H1107.06V124.264ZM1129.08 122.428H1121.52V118.828L1128.72 101.8H1133.04V118.828H1134.91V122.428H1133.04V127H1129.08V122.428ZM1129.08 118.828V109H1129L1125.12 118.828H1129.08Z" fill="white"/>
<g clip-path="url(#clip2_1_2)" filter="url(#filter1_d_1_2)">
<mask id="mask0_1_2" style="mask-type:luminance" maskUnits="userSpaceOnUse" x="23" y="21" width="218" height="123">
<path d="M23 21H240.909V143.2H23V21Z" fill="white"/>
</mask>
<g mask="url(#mask0_1_2)">
<path fill-rule="evenodd" clip-rule="evenodd" d="M154.178 20.9987L94.1223 54.1721L149.079 54.4555L154.121 38.0956L158.994 54.5972L213.327 53.9734L154.178 20.9987Z" fill="white"/>
<path fill-rule="evenodd" clip-rule="evenodd" d="M91.587 57.0782H97.1816L88.5981 66.3639L80.5247 96.2765L87.2102 104.712L91.6012 104.641L94.9721 115.557L82.89 115.628L72.4512 105.066L83.0743 66.6476L91.587 57.0782Z" fill="white"/>
<path fill-rule="evenodd" clip-rule="evenodd" d="M126.417 57.149L118.768 67.7815L111.119 93.4413L100.864 104.287L93.9947 104.499L97.6775 115.699H107.238L123.952 99.4664L117.493 91.74L123.159 79.5482L144.121 71.893L147.677 57.4327L126.417 57.149Z" fill="white"/>
<path fill-rule="evenodd" clip-rule="evenodd" d="M126.983 101.267L127.125 115.869L142.28 109.177L146.104 93.583L126.983 101.267Z" fill="white"/>
<path fill-rule="evenodd" clip-rule="evenodd" d="M100.354 57.0073H123.017L116.077 66.5056L108.711 91.882L100.156 101.451L88.3292 101.735L83.3574 95.7098L91.0062 67.3564L100.354 57.0073Z" fill="white"/>
<path fill-rule="evenodd" clip-rule="evenodd" d="M82.9327 118.676H124.292L111.261 142.067L88.1734 143.201L81.0913 138.098L82.9327 118.676Z" fill="white"/>
<path fill-rule="evenodd" clip-rule="evenodd" d="M125.099 81.7173L120.425 91.4639L126.161 98.1977L163.81 83.8014L154.121 43.3979L145.68 74.1611L125.099 81.7173Z" fill="white"/>
<path fill-rule="evenodd" clip-rule="evenodd" d="M76.7853 81.6746L72.2527 97.5525L50.5819 91.0315L67.2955 48.643L68.0037 79.2648L76.7853 81.6746Z" fill="white"/>
<path fill-rule="evenodd" clip-rule="evenodd" d="M124.816 115.983V102.047L110.214 115.983H124.816Z" fill="white"/>
</g>
</g>
<path d="M183.811 92.7819L185.538 103.464L184.243 111.155H186.833L187.265 117.564H183.379V119.7H176.902L181.22 92.7819H183.811Z" fill="white"/>
<path d="M191.152 92.7819L195.315 119.543H189.424L185.106 92.7819H191.152Z" fill="white"/>
<path d="M226.561 92.7819V103.036L228.72 109.018H226.561V119.273H220.084V92.7819H226.561Z" fill="white"/>
<path d="M230.448 119.273V109.018L228.288 103.036H230.448V92.7819H236.925V119.273H230.448Z" fill="white"/>
<rect x="182.083" y="60.3091" width="6.04551" height="26.4909" fill="white"/>
<path d="M173.447 82.2808V86.8H167.401V65.4364L173.447 82.2808Z" fill="white"/>
<path d="M173.879 60.3091L177.765 71.8455L180.356 63.7273V80.8182H174.311L167.401 60.3091H173.879Z" fill="white"/>
<rect x="166.538" y="92.7819" width="6.04551" height="26.4909" fill="white"/>
<path d="M157.901 114.754V119.273H151.856V97.9091L157.901 114.754Z" fill="white"/>
<path d="M158.333 92.7819L162.22 104.318L164.811 96.2V113.291H158.765L151.856 92.7819H158.333Z" fill="white"/>
<rect x="278.812" y="92.7819" width="6.04551" height="26.4909" fill="white"/>
<path d="M270.175 114.754V119.273H264.13V97.9091L270.175 114.754Z" fill="white"/>
<path d="M270.607 92.7819L274.493 104.318L277.084 96.2V113.291H271.039L264.13 92.7819H270.607Z" fill="white"/>
<path d="M208.856 60.3091V66.2909H203.659L201.947 60.3091H208.856Z" fill="white"/>
<path d="M208.856 70.5637V76.5455H203.659L201.947 70.5637H208.856Z" fill="white"/>
<path d="M208.856 80.8182V86.8H203.659L201.947 80.8182H208.856Z" fill="white"/>
<path d="M200.652 60.3091L202.379 66.2909H200.22V69.7091L202.379 76.5455H200.22V80.8182V81.6728L202.379 87.2273H194.046V60.3091H200.652Z" fill="white"/>
<path d="M220.947 60.3091L222.243 66.2909C221.227 66.2909 220.341 66.9808 220.092 67.9656L220.084 68V73.9818H214.038V68L214.058 67.6841C214.298 63.8955 217.184 60.8056 220.947 60.3091Z" fill="white"/>
<path d="M222.675 86.8L220.084 79.9637V73.9818H214.038V79.9637C214.281 83.8071 217.469 86.8 221.32 86.8H222.675Z" fill="white"/>
<path d="M223.538 86.8C227.079 86.5498 229.98 83.8927 230.539 80.3879L230.879 78.2546H224.834L224.666 79.0841C224.506 79.8754 223.886 80.493 223.094 80.6498L222.243 80.8182L223.538 86.8Z" fill="white"/>
<path d="M222.243 60.3091H222.387C222.578 60.3091 222.769 60.3288 222.956 60.3677L224.591 60.7082C228.196 61.4592 230.695 64.7532 230.448 68.4273H224.402L222.243 60.3091Z" fill="white"/>
<path d="M258.213 92.7819V98.7637H253.015L251.304 92.7819H258.213Z" fill="white"/>
<path d="M258.213 103.036V109.018H253.015L251.304 103.036H258.213Z" fill="white"/>
<path d="M258.213 113.291V119.273H253.015L251.304 113.291H258.213Z" fill="white"/>
<path d="M250.008 92.7819L251.735 98.7637H249.576V102.182L251.735 109.018H249.576V113.291V114.146L251.735 119.7H243.402V92.7819H250.008Z" fill="white"/>
<path d="M263.127 60.3091L264.837 70.9909L263.555 78.6819H266.118L266.546 85.0909H262.7V87.2273H256.291L260.564 60.3091H263.127Z" fill="white"/>
<path d="M270.391 60.3091L274.511 87.0706H268.682L264.409 60.3091H270.391Z" fill="white"/>
<path d="M241.675 60.3091V70.5637L243.834 76.5455H241.675V86.8H235.198V60.3091H241.675Z" fill="white"/>
<path d="M245.561 86.8V76.5455L243.402 70.5637H245.561V60.3091H252.039V86.8H245.561Z" fill="white"/>
<path d="M203.675 92.7819L209.72 107.309V119.273H203.675V108.591L196.765 92.7819H203.675Z" fill="white"/>
<path d="M209.72 92.7819H216.629L210.584 106.455L207.561 98.7637L209.72 92.7819Z" fill="white"/>
</g>
<defs>
<filter id="filter0_d_1_2" x="825.667" y="26.7025" width="135.27" height="130.481" filterUnits="userSpaceOnUse" color-interpolation-filters="sRGB">
<feFlood flood-opacity="0" result="BackgroundImageFix"/>
<feColorMatrix in="SourceAlpha" type="matrix" values="0 0 0 0 0 0 0 0 0 0 0 0 0 0 0 0 0 0 127 0" result="hardAlpha"/>
<feOffset dy="4"/>
<feGaussianBlur stdDeviation="2"/>
<feComposite in2="hardAlpha" operator="out"/>
<feColorMatrix type="matrix" values="0 0 0 0 0 0 0 0 0 0 0 0 0 0 0 0 0 0 0.25 0"/>
<feBlend mode="normal" in2="BackgroundImageFix" result="effect1_dropShadow_1_2"/>
<feBlend mode="normal" in="SourceGraphic" in2="effect1_dropShadow_1_2" result="shape"/>
</filter>
<filter id="filter1_d_1_2" x="19" y="21" width="225.909" height="130.2" filterUnits="userSpaceOnUse" color-interpolation-filters="sRGB">
<feFlood flood-opacity="0" result="BackgroundImageFix"/>
<feColorMatrix in="SourceAlpha" type="matrix" values="0 0 0 0 0 0 0 0 0 0 0 0 0 0 0 0 0 0 127 0" result="hardAlpha"/>
<feOffset dy="4"/>
<feGaussianBlur stdDeviation="2"/>
<feComposite in2="hardAlpha" operator="out"/>
<feColorMatrix type="matrix" values="0 0 0 0 0 0 0 0 0 0 0 0 0 0 0 0 0 0 0.25 0"/>
<feBlend mode="normal" in2="BackgroundImageFix" result="effect1_dropShadow_1_2"/>
<feBlend mode="normal" in="SourceGraphic" in2="effect1_dropShadow_1_2" result="shape"/>
</filter>
<clipPath id="clip0_1_2">
<rect width="1234" height="178" fill="white"/>
</clipPath>
<clipPath id="clip1_1_2">
<rect width="195" height="195" fill="white" transform="translate(796 -8)"/>
</clipPath>
<clipPath id="clip2_1_2">
<rect width="217.909" height="122.2" fill="white" transform="translate(23 21)"/>
</clipPath>
</defs>
</svg>
