<svg width="50" height="50" viewBox="0 0 50 50" fill="none" xmlns="http://www.w3.org/2000/svg">
<g clip-path="url(#clip0_1_2)">
<circle cx="25" cy="25" r="25" fill="#6B7280"/>
<circle cx="25" cy="25" r="23" fill="#080D17"/>
<path d="M41 27C42.1046 27 43 26.1046 43 25C43 23.8954 42.1046 23 41 23V27ZM8.58579 23.5858C7.80474 24.3668 7.80474 25.6332 8.58579 26.4142L21.3137 39.1421C22.0948 39.9232 23.3611 39.9232 24.1421 39.1421C24.9232 38.3611 24.9232 37.0948 24.1421 36.3137L12.8284 25L24.1421 13.6863C24.9232 12.9052 24.9232 11.6389 24.1421 10.8579C23.3611 10.0768 22.0948 10.0768 21.3137 10.8579L8.58579 23.5858ZM41 23L10 23V27L41 27V23Z" fill="white"/>
</g>
<defs>
<clipPath id="clip0_1_2">
<rect width="50" height="50" fill="white"/>
</clipPath>
</defs>
</svg>
