<svg width="50" height="50" viewBox="0 0 50 50" fill="none" xmlns="http://www.w3.org/2000/svg">
<g clip-path="url(#clip0_1_2)">
<circle cx="25" cy="25" r="25" fill="#6B7280"/>
<circle cx="25" cy="25" r="23" fill="#080D17"/>
<path d="M42.4142 26.4142C43.1953 25.6332 43.1953 24.3668 42.4142 23.5858L29.6863 10.8579C28.9052 10.0768 27.6389 10.0768 26.8579 10.8579C26.0768 11.6389 26.0768 12.9052 26.8579 13.6863L38.1716 25L26.8579 36.3137C26.0768 37.0948 26.0768 38.3611 26.8579 39.1421C27.6389 39.9232 28.9052 39.9232 29.6863 39.1421L42.4142 26.4142ZM10 23C8.89543 23 8 23.8954 8 25C8 26.1046 8.89543 27 10 27V23ZM41 23L10 23V27L41 27V23Z" fill="white"/>
</g>
<defs>
<clipPath id="clip0_1_2">
<rect width="50" height="50" fill="white"/>
</clipPath>
</defs>
</svg>
