<svg width="25" height="25" viewBox="0 0 25 25" fill="none" xmlns="http://www.w3.org/2000/svg">
<g clip-path="url(#clip0_1_2)">
<rect width="25" height="25" transform="translate(25 25) rotate(180)" fill="black"/>
<path d="M13.366 23.5C12.9811 24.1667 12.0189 24.1667 11.634 23.5L3.40673 9.25C3.02183 8.58333 3.50296 7.75 4.27276 7.75L20.7272 7.75C21.497 7.75 21.9782 8.58333 21.5933 9.25L13.366 23.5Z" fill="white"/>
<path d="M13.366 18.2727C12.9811 18.9394 12.0189 18.9394 11.634 18.2727L3.40673 4.02272C3.02183 3.35606 3.50296 2.52272 4.27276 2.52272L20.7272 2.52272C21.497 2.52272 21.9782 3.35605 21.5933 4.02272L13.366 18.2727Z" fill="black" fill-opacity="0.6"/>
<path d="M13.366 16.5C12.9811 17.1667 12.0189 17.1667 11.634 16.5L3.40673 2.25C3.02183 1.58333 3.50296 0.750002 4.27276 0.750002L20.7272 0.75C21.497 0.75 21.9782 1.58333 21.5933 2.25L13.366 16.5Z" fill="white"/>
</g>
<defs>
<clipPath id="clip0_1_2">
<rect width="25" height="25" fill="white" transform="translate(25 25) rotate(180)"/>
</clipPath>
</defs>
</svg>
