<svg width="600" height="95" viewBox="0 0 600 95" fill="none" xmlns="http://www.w3.org/2000/svg">
<g clip-path="url(#clip0_20_2)">
<rect x="-1" y="3.11719" width="600" height="4.05859" fill="black"/>
<rect x="-1" y="8.11343" width="600" height="7.79449" fill="black"/>
<rect x="-1" y="80.6174" width="600" height="7.79449" fill="black"/>
<rect x="-1" y="89.9897" width="600" height="4.05859" fill="black"/>
<path d="M520.364 50.1994L520.364 28.5763L539.091 39.3878L520.364 50.1994Z" fill="black"/>
<path d="M544.971 57.0559L563.697 46.2443L563.697 67.8674L544.971 57.0559Z" fill="black"/>
<path d="M471.285 56.6963L490.011 45.8847L490.011 67.5078L471.285 56.6963Z" fill="black"/>
<path d="M451.157 55.298L461.027 49.5994L461.027 60.9967L451.157 55.298Z" fill="black"/>
<path d="M425.178 56.6962L437.867 49.37L437.867 64.0223L425.178 56.6962Z" fill="black"/>
<path d="M588.2 67.7806L569.316 56.8779L588.2 45.9752L588.2 67.7806Z" fill="black" stroke="white" stroke-width="0.4"/>
<path d="M588.6 67.7806L607.484 56.8778L588.6 45.9751L588.6 67.7806Z" fill="black" stroke="white" stroke-width="0.4"/>
<path d="M514.487 67.3171L496.091 56.6963L514.487 46.0754L514.487 67.3171Z" fill="black" stroke="white" stroke-width="0.4"/>
<path d="M495.627 50.4541L495.627 28.8311L514.353 39.6426L495.627 50.4541Z" fill="black"/>
<path d="M569.362 50.3285L569.362 28.7054L588.088 39.517L569.362 50.3285Z" fill="black"/>
<path d="M606.801 50.3285L606.801 28.7054L588.075 39.517L606.801 50.3285Z" fill="black"/>
<path d="M544.403 50.4541L544.403 51.3202L545.153 50.8871L563.879 40.0756L564.629 39.6426L563.879 39.2096L545.153 28.3981L544.403 27.9651L544.403 28.8311L544.403 50.4541Z" fill="black" stroke="#FF0000"/>
<path d="M521.353 56.4448L520.603 56.8778L521.353 57.3109L538.159 67.0136L538.909 67.4466L538.909 66.5806L538.909 47.1751L538.909 46.3091L538.159 46.7421L521.353 56.4448Z" fill="black" stroke="#FF0000"/>
<path d="M479.184 44.0067L479.184 44.3531L479.484 44.1799L487.867 39.34L488.167 39.1668L487.867 38.9936L479.484 34.1538L479.184 33.9806L479.184 34.327L479.184 44.0067Z" fill="black" stroke="#FF0000" stroke-width="0.4"/>
<path d="M427.633 43.8304L427.633 44.0036L427.783 43.917L435.226 39.6199L435.376 39.5333L435.226 39.4467L427.783 35.1496L427.633 35.063L427.633 35.2362L427.633 43.8304Z" fill="black" stroke="white" stroke-width="0.2"/>
<path d="M588.235 32.442L569.217 21.3993L588.235 21.3993L588.235 32.442Z" fill="black"/>
<path d="M588.235 32.442L607.1 21.3993L588.235 21.3993L588.235 32.442Z" fill="black"/>
<path d="M563.761 32.442L544.743 21.3993L563.761 21.3993L563.761 32.442Z" fill="black"/>
<path d="M514.709 32.442L495.691 21.3993L514.709 21.3993L514.709 32.442Z" fill="black"/>
<path d="M470.684 64.0807L489.703 75.1234L470.684 75.1234L470.684 64.0807Z" fill="black"/>
<path d="M520.128 64.0786L539.151 75.1234L520.128 75.1234L520.128 64.0786Z" fill="black"/>
<path d="M544.011 64.0786L563.033 75.1234L544.011 75.1234L544.011 64.0786Z" fill="black"/>
<path d="M489.812 32.442L470.794 21.3993L489.812 21.3993L489.812 32.442Z" fill="black"/>
<path d="M462.518 29.2188L462.668 29.306L462.668 29.1323L462.668 21.3993L462.668 21.2993L462.568 21.2993L449.25 21.2993L448.879 21.2993L449.2 21.4858L462.518 29.2188Z" fill="black" stroke="white" stroke-width="0.2"/>
<path d="M538.769 32.2609L539.22 32.5225L539.22 32.0014L539.22 22.1985L539.22 21.8985L538.92 21.8985L522.037 21.8985L520.923 21.8985L521.886 22.458L538.769 32.2609Z" fill="black" stroke="#FF0000" stroke-width="0.6"/>
<path d="M538.769 32.2609L539.22 32.5225L539.22 32.0014L539.22 22.1985L539.22 21.8985L538.92 21.8985L522.037 21.8985L520.923 21.8985L521.886 22.458L538.769 32.2609Z" fill="black" stroke="#FF0000" stroke-width="0.6"/>
<path d="M570.037 64.4401L569.586 64.1784L569.586 64.6995L569.586 74.5024L569.586 74.8024L569.886 74.8024L586.769 74.8024L587.883 74.8024L586.92 74.243L570.037 64.4401Z" fill="black" stroke="#FF0000" stroke-width="0.6"/>
<path d="M606.198 64.4401L606.649 64.1784L606.649 64.6995L606.649 74.5024L606.649 74.8024L606.349 74.8024L589.466 74.8024L588.352 74.8024L589.315 74.243L606.198 64.4401Z" fill="black" stroke="#FF0000" stroke-width="0.6"/>
<path d="M496.194 64.4401L495.743 64.1784L495.743 64.6995L495.743 74.5024L495.743 74.8024L496.043 74.8024L512.926 74.8024L514.04 74.8024L513.077 74.243L496.194 64.4401Z" fill="black" stroke="#FF0000" stroke-width="0.6"/>
<path d="M447 64.4401L446.55 64.1784L446.55 64.6995L446.55 74.5024L446.55 74.8024L446.85 74.8024L463.733 74.8024L464.847 74.8024L463.883 74.243L447 64.4401Z" fill="black" stroke="#FF0000" stroke-width="0.6"/>
<path d="M86.6607 46.4881L86.6607 68.1111L67.9346 57.2996L86.6607 46.4881Z" fill="black"/>
<path d="M62.0543 39.6316L43.3282 50.4432L43.3282 28.8201L62.0543 39.6316Z" fill="black"/>
<path d="M135.74 39.9912L117.014 50.8028L117.014 29.1797L135.74 39.9912Z" fill="black"/>
<path d="M155.868 41.3894L145.998 47.088L145.998 35.6908L155.868 41.3894Z" fill="black"/>
<path d="M181.847 39.9913L169.158 47.3174L169.158 32.6651L181.847 39.9913Z" fill="black"/>
<path d="M13.1408 39.9912L-5.58527 50.8028L-5.58527 29.1797L13.1408 39.9912Z" fill="black"/>
<path d="M19.5829 29.3445L37.709 39.8096L19.5829 50.2748L19.5829 29.3445Z" fill="black" stroke="white" stroke-width="0.4"/>
<path d="M92.5385 29.3704L110.934 39.9912L92.5385 50.6121L92.5385 29.3704Z" fill="black" stroke="white" stroke-width="0.4"/>
<path d="M111.399 46.2333L111.399 67.8564L92.6724 57.0448L111.399 46.2333Z" fill="black"/>
<path d="M37.6628 46.359L37.6628 67.982L18.9367 57.1705L37.6628 46.359Z" fill="black"/>
<path d="M62.6223 46.2333L62.6223 45.3673L61.8723 45.8003L43.1462 56.6118L42.3962 57.0448L43.1462 57.4778L61.8723 68.2894L62.6223 68.7224L62.6223 67.8564L62.6223 46.2333Z" fill="black" stroke="#FF0000"/>
<path d="M85.6721 40.2427L86.4221 39.8097L85.6721 39.3766L68.8665 29.6739L68.1165 29.2409L68.1165 30.1069L68.1165 49.5124L68.1165 50.3784L68.8665 49.9454L85.6721 40.2427Z" fill="black" stroke="#FF0000"/>
<path d="M127.841 52.6808L127.841 52.3344L127.541 52.5076L119.158 57.3474L118.858 57.5206L119.158 57.6938L127.541 62.5336L127.841 62.7069L127.841 62.3604L127.841 52.6808Z" fill="black" stroke="#FF0000" stroke-width="0.4"/>
<path d="M179.392 52.857L179.392 52.6838L179.242 52.7704L171.799 57.0675L171.649 57.1541L171.799 57.2407L179.242 61.5379L179.392 61.6245L179.392 61.4513L179.392 52.857Z" fill="black" stroke="white" stroke-width="0.2"/>
<path d="M13.1139 46.791L13.1139 46.4446L12.8139 46.6178L-5.01655 56.9122L-5.31655 57.0854L-5.01655 57.2586L12.8139 67.5531L13.1139 67.7263L13.1139 67.3799L13.1139 46.791Z" fill="black" stroke="white" stroke-width="0.4"/>
<path d="M-0.712555 67.1262L13.452 75.3506H-0.712555L-0.712555 67.1262Z" fill="black"/>
<path d="M18.7898 64.2455L37.808 75.2881H18.7898L18.7898 64.2455Z" fill="black"/>
<path d="M43.2643 64.2455L62.2826 75.2881H43.2643L43.2643 64.2455Z" fill="black"/>
<path d="M92.3161 64.2455L111.334 75.2881H92.3161L92.3161 64.2455Z" fill="black"/>
<path d="M136.341 32.6067L117.322 21.564L136.341 21.564L136.341 32.6067Z" fill="black"/>
<path d="M86.8967 32.6089L67.8746 21.564L86.8967 21.564L86.8967 32.6089Z" fill="black"/>
<path d="M63.0146 32.6089L43.9926 21.564L63.0146 21.564L63.0146 32.6089Z" fill="black"/>
<path d="M13.4021 32.6089L-5.61996 21.564L13.4021 21.564L13.4021 32.6089Z" fill="black"/>
<path d="M117.213 64.2455L136.231 75.2881H117.213L117.213 64.2455Z" fill="black"/>
<path d="M144.507 67.4686L144.357 67.3814V67.5551V75.2881V75.3881H144.457H157.775H158.146L157.825 75.2017L144.507 67.4686Z" fill="black" stroke="white" stroke-width="0.2"/>
<path d="M68.2557 64.4266L67.805 64.1649V64.686V74.4889V74.7889H68.105H84.9881H86.1022L85.1388 74.2295L68.2557 64.4266Z" fill="black" stroke="#FF0000" stroke-width="0.6"/>
<path d="M68.2557 64.4266L67.805 64.1649V64.686V74.4889V74.7889H68.105H84.9881H86.1022L85.1388 74.2295L68.2557 64.4266Z" fill="black" stroke="#FF0000" stroke-width="0.6"/>
<path d="M36.9882 32.2474L37.4389 32.509L37.4389 31.9879L37.4389 22.185L37.4389 21.885L37.1389 21.885L20.2558 21.885L19.1417 21.885L20.1051 22.4444L36.9882 32.2474Z" fill="black" stroke="#FF0000" stroke-width="0.6"/>
<path d="M110.831 32.2474L111.282 32.509L111.282 31.9879L111.282 22.185L111.282 21.885L110.982 21.885L94.0989 21.885L92.9848 21.885L93.9483 22.4444L110.831 32.2474Z" fill="black" stroke="#FF0000" stroke-width="0.6"/>
<path d="M160.025 32.2474L160.475 32.509L160.475 31.9879L160.475 22.185L160.475 21.885L160.175 21.885L143.292 21.885L142.178 21.885L143.142 22.4444L160.025 32.2474Z" fill="black" stroke="#FF0000" stroke-width="0.6"/>
</g>
<defs>
<clipPath id="clip0_20_2">
<rect width="600" height="95" fill="white"/>
</clipPath>
</defs>
</svg>
