<svg width="29" height="25" viewBox="0 0 29 25" fill="none" xmlns="http://www.w3.org/2000/svg">
<path d="M23.9075 24.8746H5.006C4.67439 24.8746 4.35551 24.696 4.18971 24.4154L0.133918 17.6685C-0.0446393 17.3752 -0.0446393 16.9926 0.133918 16.6992L9.58467 0.488704C9.75047 0.19536 10.0694 0.0168152 10.4137 0.0168152H18.5125C18.8569 0.0168152 19.163 0.19536 19.3415 0.488704C22.8999 6.58516 28.2694 15.7808 28.7285 16.495C28.8561 16.6608 28.9199 16.8523 28.9199 17.0691C28.9199 17.2986 28.8433 17.5027 28.703 17.6685C28.3714 18.1659 26.1267 22.0304 24.7365 24.4027C24.5707 24.696 24.2519 24.8746 23.9075 24.8746ZM5.54164 22.9615H23.3591C25.2594 19.6964 26.2798 17.9617 26.9047 17.0434C26.1777 15.9721 24.9023 13.804 22.3898 9.50586L17.9641 1.91716H10.9621L2.07249 17.1584L5.54164 22.9615Z" fill="white"/>
<path d="M23.9073 24.8747C23.5757 24.8747 23.257 24.7089 23.0784 24.4028L9.57173 1.44547C9.30389 0.98632 9.45697 0.399632 9.91611 0.131796C10.3753 -0.13604 10.9619 0.016996 11.2297 0.476143L24.7363 23.4335C25.0041 23.8926 24.8511 24.4793 24.3919 24.7472C24.2389 24.8365 24.0731 24.8747 23.9073 24.8747Z" fill="white"/>
<path d="M5.00625 24.8747C4.84045 24.8747 4.67463 24.8365 4.52158 24.7472C4.06243 24.4793 3.90936 23.8926 4.1772 23.4335L17.6839 0.476143C17.9517 0.016996 18.5383 -0.13604 18.9974 0.131796C19.4565 0.399632 19.6097 0.98632 19.3419 1.44547L5.83522 24.4028C5.6439 24.7089 5.3251 24.8747 5.00625 24.8747Z" fill="white"/>
<path d="M27.2108 18.1279H1.06496C0.542038 18.1279 0.108398 17.6943 0.108398 17.1714C0.108398 16.6485 0.542038 16.2148 1.06496 16.2148H27.2108C27.7338 16.2148 28.1674 16.6485 28.1674 17.1714C28.1674 17.6943 27.7338 18.1279 27.2108 18.1279Z" fill="white"/>
</svg>
