<svg version="1.1" viewBox="0.0 0.0 960.0 540.0" fill="none" stroke="none" stroke-linecap="square" stroke-miterlimit="10" xmlns:xlink="http://www.w3.org/1999/xlink" xmlns="http://www.w3.org/2000/svg"><clipPath id="g22924b60b10_1_10.0"><path d="m0 0l960.0 0l0 540.0l-960.0 0l0 -540.0z" clip-rule="nonzero"/></clipPath><g clip-path="url(#g22924b60b10_1_10.0)"><path fill="#000000" d="m0 0l960.0 0l0 540.0l-960.0 0z" fill-rule="evenodd"/><path fill="#151515" d="m137.24959 142.29399l-122.359726 255.49297l33.876453 0l122.191185 -255.49297z" fill-rule="evenodd"/><path fill="#151515" d="m233.0635 142.29399l-122.35973 255.49297l33.876457 0l122.19119 -255.49297z" fill-rule="evenodd"/><path fill="#151515" d="m520.50525 142.29399l-122.35974 255.49297l33.876465 0l122.19116 -255.49297z" fill-rule="evenodd"/><path fill="#151515" d="m712.13306 142.29399l-122.35974 255.49297l33.876465 0l122.19116 -255.49297z" fill-rule="evenodd"/><path fill="#151515" d="m328.8774 142.29399l-122.359726 255.49297l33.87645 0l122.19119 -255.49297z" fill-rule="evenodd"/><path fill="#151515" d="m424.6913 142.29399l-122.35971 255.49297l33.876434 0l122.19119 -255.49297z" fill-rule="evenodd"/><path fill="#151515" d="m616.31915 142.29399l-122.35974 255.49297l33.876465 0l122.19116 -255.49297z" fill-rule="evenodd"/><path fill="#151515" d="m903.76086 142.29399l-122.35974 255.49297l33.876465 0l122.19122 -255.49297z" fill-rule="evenodd"/><path fill="#151515" d="m807.94696 142.29399l-122.35974 255.49297l33.876465 0l122.19122 -255.49297z" fill-rule="evenodd"/><path fill="#151515" d="m999.57477 142.29399l-122.35968 255.49297l33.876404 0l122.19122 -255.49297z" fill-rule="evenodd"/><path fill="#151515" d="m41.43568 142.29399l-122.359726 255.49297l33.876457 0l122.191185 -255.49297z" fill-rule="evenodd"/></g></svg>