<svg version="1.1"
    viewBox="0.0 200.0 960.0 210.0"
    fill="none"
    stroke="none"
    stroke-linecap="square"
    stroke-miterlimit="10"
    xmlns:xlink="http://www.w3.org/1999/xlink"
    xmlns="http://www.w3.org/2000/svg">

<clipPath id="g24b7234cf3d_0_23.0">
    <path d="m0 0l960.0 0l0 540.0l-960.0 0l0 -540.0z"
    clip-rule="nonzero"/>
</clipPath>

    <g clip-path="url(#g24b7234cf3d_0_23.0)">

        <path fill="none" d="m0 0l960.0 0l0 540.0l-960.0 0z" fill-rule="evenodd"/>

        <path fill="#ffffff" fill-opacity="0.0" d="m16.511784 230.06299l0 78.75275l20.250946 0l0 -43.87155l15.746666 28.124664l15.74667 0l15.746666 -28.124664l0 43.87155l20.250946 0l0 -78.75275l-21.367859 0l-22.50309 41.619385l-22.503082 -41.619385z" fill-rule="evenodd"/>
        <path fill="#ffffff" fill-opacity="0.0" d="m117.75915 230.06299l0 78.75275l62.437355 0l0 -15.746887l-42.186417 0l0 -16.314514l33.17787 0l0 -15.746887l-33.17787 0l0 -15.197571l42.186417 0l0 -15.746887z" fill-rule="evenodd"/>
        <path fill="#ffffff" fill-opacity="0.0" d="m209.44574 230.06299c-7.885559 0 -13.610504 1.782196 -17.174866 5.3466187c-3.5521545 3.5644073 -5.328232 9.28334 -5.328232 17.156784l0 35.998123c0 7.3485413 1.7211456 12.750092 5.163452 16.20462c3.4544983 3.4423523 8.855972 5.163513 16.204407 5.163513c11.022675 0 24.895615 -0.7445984 41.61882 -2.2338562l0 -15.197571c-4.8704834 0.30517578 -8.935318 0.57373047 -12.194519 0.80566406c-3.259201 0.21972656 -5.9202576 0.36621094 -7.9832 0.43945312c-2.0629425 0.07324219 -4.107559 0.14648438 -6.1338654 0.21969604c-2.0263214 0.07324219 -3.9794006 0.12817383 -5.8592224 0.16479492c-1.86763 0.036621094 -3.5887756 0.05493164 -5.163452 0.05493164c-1.5746613 0 -2.868576 -0.5065613 -3.8817291 -1.5197449c-1.0131531 -1.0131836 -1.5197449 -2.3803406 -1.5197449 -4.1015015l0 -35.998123c0 -4.5043488 2.246048 -6.7565155 6.7381134 -6.7565155l35.99762 0l0 -15.746887z" fill-rule="evenodd"/>
        <path fill="#ffffff" fill-opacity="0.0" d="m258.94296 230.06299l0 78.75275l20.250946 0l0 -32.0614l28.124298 0l0 32.0614l20.232635 0l0 -78.75275l-20.232635 0l0 30.944458l-28.124298 0l0 -30.944458z" fill-rule="evenodd"/>
        <path fill="#ffffff" fill-opacity="0.0" d="m374.2437 253.68332l9.008545 26.440125l-17.99881 0l8.990265 -26.440125zm-11.242401 -23.62033l-29.808807 78.75275l21.935486 0l5.053589 -14.062347l28.124268 0l5.0718994 14.062347l21.935455 0l-29.808807 -78.75275z" fill-rule="evenodd"/>
        <path fill="#ffffff" fill-opacity="0.0" d="m454.6879 230.06299l0 78.75275l20.250946 0l0 -43.87155l15.746674 28.124664l15.746643 0l15.746674 -28.124664l0 43.87155l20.250977 0l0 -78.75275l-21.36792 0l-22.503052 41.619385l-22.503082 -41.619385z" fill-rule="evenodd"/>
        <path fill="#ffffff" fill-opacity="0.0" d="m589.1131 253.68332l9.008545 26.440125l-17.99878 0l8.990234 -26.440125zm-11.242371 -23.62033l-29.808838 78.75275l21.935486 0l5.053589 -14.062347l28.124268 0l5.0718994 14.062347l21.935486 0l-29.808838 -78.75275zm39.92914 0l29.808777 57.9339l0 20.818848l20.250977 0l0 -20.818848l29.808777 -57.9339l-21.367859 0l-18.566406 38.250275l-18.566406 -38.250275z" fill-rule="evenodd"/>
        <path fill="#ffffff" fill-opacity="0.0" d="m702.1814 230.06299l0 78.75275l20.250977 0l0 -32.0614l28.124268 0l0 32.0614l20.232666 0l0 -78.75275l-20.232666 0l0 30.944458l-28.124268 0l0 -30.944458z" fill-rule="evenodd"/>
        <path fill="#ffffff" fill-opacity="0.0" d="m784.30426 230.06299l0 78.75275l62.437378 0l0 -15.746887l-42.186462 0l0 -16.314514l33.177917 0l0 -15.746887l-33.177917 0l0 -15.197571l42.186462 0l0 -15.746887z" fill-rule="evenodd"/>
        <path fill="#ffffff" fill-opacity="0.0" d="m855.73987 230.06299l0 78.75275l20.250977 0l0 -43.87155l15.746643 28.124664l15.746704 0l15.746643 -28.124664l0 43.87155l20.250916 0l0 -78.75275l-21.367859 0l-22.503052 41.619385l-22.503113 -41.619385z" fill-rule="evenodd"/>
        <path stroke="#ffffff" stroke-width="4.0" stroke-linejoin="round" stroke-linecap="butt" d="m16.511784 230.06299l0 78.75275l20.250946 0l0 -43.87155l15.746666 28.124664l15.74667 0l15.746666 -28.124664l0 43.87155l20.250946 0l0 -78.75275l-21.367859 0l-22.50309 41.619385l-22.503082 -41.619385z" fill-rule="evenodd"/>
        <path stroke="#ffffff" stroke-width="4.0" stroke-linejoin="round" stroke-linecap="butt" d="m117.75915 230.06299l0 78.75275l62.437355 0l0 -15.746887l-42.186417 0l0 -16.314514l33.17787 0l0 -15.746887l-33.17787 0l0 -15.197571l42.186417 0l0 -15.746887z" fill-rule="evenodd"/>
        <path stroke="#ffffff" stroke-width="4.0" stroke-linejoin="round" stroke-linecap="butt" d="m209.44574 230.06299c-7.885559 0 -13.610504 1.782196 -17.174866 5.3466187c-3.5521545 3.5644073 -5.328232 9.28334 -5.328232 17.156784l0 35.998123c0 7.3485413 1.7211456 12.750092 5.163452 16.20462c3.4544983 3.4423523 8.855972 5.163513 16.204407 5.163513c11.022675 0 24.895615 -0.7445984 41.61882 -2.2338562l0 -15.197571c-4.8704834 0.30517578 -8.935318 0.57373047 -12.194519 0.80566406c-3.259201 0.21972656 -5.9202576 0.36621094 -7.9832 0.43945312c-2.0629425 0.07324219 -4.107559 0.14648438 -6.1338654 0.21969604c-2.0263214 0.07324219 -3.9794006 0.12817383 -5.8592224 0.16479492c-1.86763 0.036621094 -3.5887756 0.05493164 -5.163452 0.05493164c-1.5746613 0 -2.868576 -0.5065613 -3.8817291 -1.5197449c-1.0131531 -1.0131836 -1.5197449 -2.3803406 -1.5197449 -4.1015015l0 -35.998123c0 -4.5043488 2.246048 -6.7565155 6.7381134 -6.7565155l35.99762 0l0 -15.746887z" fill-rule="evenodd"/>
        <path stroke="#ffffff" stroke-width="4.0" stroke-linejoin="round" stroke-linecap="butt" d="m258.94296 230.06299l0 78.75275l20.250946 0l0 -32.0614l28.124298 0l0 32.0614l20.232635 0l0 -78.75275l-20.232635 0l0 30.944458l-28.124298 0l0 -30.944458z" fill-rule="evenodd"/>
        <path stroke="#ffffff" stroke-width="4.0" stroke-linejoin="round" stroke-linecap="butt" d="m374.2437 253.68332l9.008545 26.440125l-17.99881 0l8.990265 -26.440125zm-11.242401 -23.62033l-29.808807 78.75275l21.935486 0l5.053589 -14.062347l28.124268 0l5.0718994 14.062347l21.935455 0l-29.808807 -78.75275z" fill-rule="evenodd"/>
        <path stroke="#ffffff" stroke-width="4.0" stroke-linejoin="round" stroke-linecap="butt" d="m454.6879 230.06299l0 78.75275l20.250946 0l0 -43.87155l15.746674 28.124664l15.746643 0l15.746674 -28.124664l0 43.87155l20.250977 0l0 -78.75275l-21.36792 0l-22.503052 41.619385l-22.503082 -41.619385z" fill-rule="evenodd"/>
        <path stroke="#ffffff" stroke-width="4.0" stroke-linejoin="round" stroke-linecap="butt" d="m589.1131 253.68332l9.008545 26.440125l-17.99878 0l8.990234 -26.440125zm-11.242371 -23.62033l-29.808838 78.75275l21.935486 0l5.053589 -14.062347l28.124268 0l5.0718994 14.062347l21.935486 0l-29.808838 -78.75275zm39.92914 0l29.808777 57.9339l0 20.818848l20.250977 0l0 -20.818848l29.808777 -57.9339l-21.367859 0l-18.566406 38.250275l-18.566406 -38.250275z" fill-rule="evenodd"/>
        <path stroke="#ffffff" stroke-width="4.0" stroke-linejoin="round" stroke-linecap="butt" d="m702.1814 230.06299l0 78.75275l20.250977 0l0 -32.0614l28.124268 0l0 32.0614l20.232666 0l0 -78.75275l-20.232666 0l0 30.944458l-28.124268 0l0 -30.944458z" fill-rule="evenodd"/>
        <path stroke="#ffffff" stroke-width="4.0" stroke-linejoin="round" stroke-linecap="butt" d="m784.30426 230.06299l0 78.75275l62.437378 0l0 -15.746887l-42.186462 0l0 -16.314514l33.177917 0l0 -15.746887l-33.177917 0l0 -15.197571l42.186462 0l0 -15.746887z" fill-rule="evenodd"/>
        <path stroke="#ffffff" stroke-width="4.0" stroke-linejoin="round" stroke-linecap="butt" d="m855.73987 230.06299l0 78.75275l20.250977 0l0 -43.87155l15.746643 28.124664l15.746704 0l15.746643 -28.124664l0 43.87155l20.250916 0l0 -78.75275l-21.367859 0l-22.503052 41.619385l-22.503113 -41.619385z" fill-rule="evenodd"/>
    </g>
</svg>