<svg version="1.1"
viewBox="0.0 200.0 960.0 230.0" fill="none" stroke="none" stroke-linecap="square" stroke-miterlimit="10" xmlns:xlink="http://www.w3.org/1999/xlink" xmlns="http://www.w3.org/2000/svg"><clipPath id="g24b7234cf3d_0_23.0"><path d="m0 0l960.0 0l0 540.0l-960.0 0l0 -540.0z" clip-rule="nonzero"/></clipPath><g clip-path="url(#g24b7234cf3d_0_23.0)"><path fill="none" d="m0 0l960.0 0l0 540.0l-960.0 0z" fill-rule="evenodd"/>
<path fill="#ffffff" fill-opacity="0.0" d="m44.12993 204.78084l0 25.7155l16.535778 0l0 77.17639l-16.535778 0l0 25.715485l66.14311 0l0 -25.715485l-16.535774 0l0 -77.17639l16.535774 0l0 -25.7155z" fill-rule="evenodd"/>
<path fill="#ffffff" fill-opacity="0.0" d="m117.61333 204.78084l0 25.7155l38.603424 0l0 102.89188l33.071564 0l0 -102.89188l38.573517 0l0 -25.7155z" fill-rule="evenodd"/>
<path fill="#ffffff" fill-opacity="0.0" d="m235.19612 204.78084l0 16.53566l3.677948 29.393417l20.21373 0l3.6779175 -29.393417l0 -16.53566z" fill-rule="evenodd"/>
<path fill="#ffffff" fill-opacity="0.0" d="m310.5263 204.78084c-12.857849 0 -22.197235 2.9104462 -28.018127 8.731308c-5.820923 5.820877 -8.731384 15.160187 -8.731384 28.01793l0 5.5019226c0 12.857742 2.9104614 22.197067 8.731384 28.01793c5.8208923 5.820862 15.160278 8.731293 28.018127 8.731293l42.251434 0l0 16.535675c0 2.8107605 -0.8272705 5.0434265 -2.481842 6.697998c-1.6545715 1.6545715 -3.887268 2.481842 -6.6980286 2.481842c-11.881073 0 -34.596558 -0.9169922 -68.146576 -2.7509766l0 24.81845c13.336273 1.096405 26.253937 1.9535828 38.75293 2.5715637l16.894623 0.71762085c6.977112 0.2392273 13.595428 0.35882568 19.854889 0.35882568c12.000641 0 20.811768 -2.8107605 26.43332 -8.4322815c5.64151 -5.641449 8.46225 -14.462463 8.46225 -26.463043l0 -9.17984c0 -12.000549 -2.8207397 -20.811615 -8.46225 -26.433136c-5.6215515 -5.641449 -14.432678 -8.462189 -26.43332 -8.462189l-33.071564 0c-7.3558655 0 -11.033813 -3.6779175 -11.033813 -11.033737l0 -3.6779175c0 -7.3558197 3.677948 -11.033737 11.033813 -11.033737l57.14264 0l0 -25.7155z" fill-rule="evenodd"/>
<path fill="#ffffff" fill-opacity="0.0" d="m448.30484 204.78084l0 25.7155l38.603424 0l0 102.89188l33.071594 0l0 -102.89188l38.573486 0l0 -25.7155z" fill-rule="evenodd"/>
<path fill="#ffffff" fill-opacity="0.0" d="m565.8877 204.78084l0 25.7155l16.535767 0l0 77.17639l-16.535767 0l0 25.715485l66.14313 0l0 -25.715485l-16.535828 0l0 -77.17639l16.535828 0l0 -25.7155z" fill-rule="evenodd"/>
<path fill="#ffffff" fill-opacity="0.0" d="m648.5809 204.78084l0 128.60738l33.071594 0l0 -71.64456l25.715637 45.929077l25.715698 0l25.715698 -45.929077l0 71.64456l33.071533 0l0 -128.60738l-34.89557 0l-36.74951 67.96666l-36.74951 -67.96666z" fill-rule="evenodd"/>
<path fill="#ffffff" fill-opacity="0.0" d="m813.92664 204.78084l0 128.60738l101.96564 0l0 -25.715485l-68.89404 0l0 -26.642456l54.182312 0l0 -25.7155l-54.182312 0l0 -24.818436l68.89404 0l0 -25.7155z" fill-rule="evenodd"/>
<path stroke="#ffffff" stroke-width="4.0" stroke-linejoin="round" stroke-linecap="butt" d="m44.12993 204.78084l0 25.7155l16.535778 0l0 77.17639l-16.535778 0l0 25.715485l66.14311 0l0 -25.715485l-16.535774 0l0 -77.17639l16.535774 0l0 -25.7155z" fill-rule="evenodd"/>
<path stroke="#ffffff" stroke-width="4.0" stroke-linejoin="round" stroke-linecap="butt" d="m117.61333 204.78084l0 25.7155l38.603424 0l0 102.89188l33.071564 0l0 -102.89188l38.573517 0l0 -25.7155z" fill-rule="evenodd"/>
<path stroke="#ffffff" stroke-width="4.0" stroke-linejoin="round" stroke-linecap="butt" d="m235.19612 204.78084l0 16.53566l3.677948 29.393417l20.21373 0l3.6779175 -29.393417l0 -16.53566z" fill-rule="evenodd"/>
<path stroke="#ffffff" stroke-width="4.0" stroke-linejoin="round" stroke-linecap="butt" d="m310.5263 204.78084c-12.857849 0 -22.197235 2.9104462 -28.018127 8.731308c-5.820923 5.820877 -8.731384 15.160187 -8.731384 28.01793l0 5.5019226c0 12.857742 2.9104614 22.197067 8.731384 28.01793c5.8208923 5.820862 15.160278 8.731293 28.018127 8.731293l42.251434 0l0 16.535675c0 2.8107605 -0.8272705 5.0434265 -2.481842 6.697998c-1.6545715 1.6545715 -3.887268 2.481842 -6.6980286 2.481842c-11.881073 0 -34.596558 -0.9169922 -68.146576 -2.7509766l0 24.81845c13.336273 1.096405 26.253937 1.9535828 38.75293 2.5715637l16.894623 0.71762085c6.977112 0.2392273 13.595428 0.35882568 19.854889 0.35882568c12.000641 0 20.811768 -2.8107605 26.43332 -8.4322815c5.64151 -5.641449 8.46225 -14.462463 8.46225 -26.463043l0 -9.17984c0 -12.000549 -2.8207397 -20.811615 -8.46225 -26.433136c-5.6215515 -5.641449 -14.432678 -8.462189 -26.43332 -8.462189l-33.071564 0c-7.3558655 0 -11.033813 -3.6779175 -11.033813 -11.033737l0 -3.6779175c0 -7.3558197 3.677948 -11.033737 11.033813 -11.033737l57.14264 0l0 -25.7155z" fill-rule="evenodd"/>
<path stroke="#ffffff" stroke-width="4.0" stroke-linejoin="round" stroke-linecap="butt" d="m448.30484 204.78084l0 25.7155l38.603424 0l0 102.89188l33.071594 0l0 -102.89188l38.573486 0l0 -25.7155z" fill-rule="evenodd"/>
<path stroke="#ffffff" stroke-width="4.0" stroke-linejoin="round" stroke-linecap="butt" d="m565.8877 204.78084l0 25.7155l16.535767 0l0 77.17639l-16.535767 0l0 25.715485l66.14313 0l0 -25.715485l-16.535828 0l0 -77.17639l16.535828 0l0 -25.7155z" fill-rule="evenodd"/>
<path stroke="#ffffff" stroke-width="4.0" stroke-linejoin="round" stroke-linecap="butt" d="m648.5809 204.78084l0 128.60738l33.071594 0l0 -71.64456l25.715637 45.929077l25.715698 0l25.715698 -45.929077l0 71.64456l33.071533 0l0 -128.60738l-34.89557 0l-36.74951 67.96666l-36.74951 -67.96666z" fill-rule="evenodd"/>
<path stroke="#ffffff" stroke-width="4.0" stroke-linejoin="round" stroke-linecap="butt" d="m813.92664 204.78084l0 128.60738l101.96564 0l0 -25.715485l-68.89404 0l0 -26.642456l54.182312 0l0 -25.7155l-54.182312 0l0 -24.818436l68.89404 0l0 -25.7155z" fill-rule="evenodd"/>
</g></svg>