<svg width="1520" height="439" viewBox="0 0 1520 439" fill="none" xmlns="http://www.w3.org/2000/svg">
<g clip-path="url(#clip0_1_2)">
<rect width="1520" height="439" fill="black" fill-opacity="0.27"/>
<path d="M220 423.5L160.606 457L63.305 454.5L57.4935 411.54C56.6539 405.334 60.783 399.543 66.9245 398.315L67.5205 398.196C69.8237 397.735 72.1881 397.666 74.5143 397.99L83.8747 399.296C89.5868 400.094 95.1309 401.815 100.289 404.395V404.395C104.421 406.46 108.737 408.133 113.181 409.391L133 415L161.5 419L170.434 419.975C182.779 421.321 195.229 421.401 207.591 420.212L215 419.5L220 423.5Z" fill="#1C1C1C"/>
<rect x="552" y="229" width="44" height="265" fill="#1C1C1C"/>
<path d="M1003 197.5L1070.5 245V461H1003V197.5Z" fill="#1C1C1C"/>
<rect x="974" y="305" width="39" height="171" fill="#1C1C1C"/>
<rect x="486" y="341" width="88" height="170" fill="#1C1C1C"/>
<path d="M554.5 255L575.718 357.75H533.282L533.282 265.5L554.5 255Z" fill="#1C1C1C"/>
<rect x="614" y="304" width="100" height="190" fill="#1C1C1C"/>
<rect x="331" y="264" width="126" height="230" fill="#1C1C1C"/>
<path d="M413.5 217.5H434.5L457 245V264H391.5V237.75L413.5 217.5Z" fill="#1C1C1C"/>
<path d="M356.5 234.5H377.5L392.5 253.5L405.5 282H340V255.75L356.5 234.5Z" fill="#1C1C1C"/>
<path d="M306.091 394.131C307.45 393.603 308.9 394.66 308.812 396.116L305.5 451L163.5 460L161 421H185.972C219.697 421 253.127 414.728 284.558 402.505L306.091 394.131Z" fill="#1C1C1C"/>
<rect x="300" y="422" width="13" height="29" fill="#1C1C1C"/>
<rect x="215" y="340" width="45" height="106" fill="#1C1C1C"/>
<rect x="592" y="302" width="18" height="147" fill="#1C1C1C"/>
<rect x="467" y="421" width="25" height="37" fill="#1C1C1C"/>
<rect x="901" y="327" width="57" height="126" fill="#1C1C1C"/>
<rect x="878" y="404" width="42" height="45" fill="#1C1C1C"/>
<rect x="831" y="218" width="55" height="235" fill="#1C1C1C"/>
<path d="M831 211L854 190H868.5V204L886 218H831V211Z" fill="#1C1C1C"/>
<path d="M902 318.75L925 294H939.5V310.5L957 327H902V318.75Z" fill="#1C1C1C"/>
<rect x="730" y="409" width="27" height="44" fill="#1C1C1C"/>
<rect x="801" y="370" width="19" height="96" fill="#1C1C1C"/>
<rect x="1076" y="159" width="68" height="290" fill="#1C1C1C"/>
<rect x="1100" y="139" width="44" height="27" fill="#1C1C1C"/>
<rect x="1173" y="244" width="51" height="213" fill="#1C1C1C"/>
<rect x="1220" y="313" width="68" height="155" fill="#1C1C1C"/>
<rect x="1295" y="294" width="46" height="159" fill="#1C1C1C"/>
<rect x="1339" y="341" width="20" height="116" fill="#1C1C1C"/>
<rect x="1140" y="355" width="28" height="106" fill="#1C1C1C"/>
<path d="M1166.5 336L1167.8 336.75H1165.2L1166.5 336Z" fill="#1C1C1C"/>
<rect x="1377" y="348" width="47" height="91" fill="#1C1C1C"/>
<rect x="1373" y="347" width="54" height="13" fill="#1C1C1C"/>
<path d="M1423 404H1463V441H1423V404Z" fill="#1C1C1C"/>
<path d="M1422.5 397L1463 404.366H1423.5L1422.5 397Z" fill="#1C1C1C"/>
<path d="M1463 409L1494.5 422.5V427.5H1491.5V442H1463V409Z" fill="#1C1C1C"/>
<path d="M846.007 342L833.127 347.152C822.414 351.437 814.51 360.737 812.007 372V372H707.007V372C704.823 360.77 697.118 351.401 686.521 347.091L674.007 342H846.007Z" fill="#C12135"/>
<path d="M858.988 260.5L846.007 342H674.007L660.507 260.5H858.988Z" fill="#C12135"/>
<path d="M874.904 250.024L869.968 259.411L649.821 260.594L645.278 249.968L874.904 250.024Z" fill="#C12135"/>
<path d="M759.507 11L761.672 168.5H757.342L759.507 11Z" fill="#C12135"/>
<rect x="744.007" y="159" width="31" height="6" fill="#C12135"/>
<ellipse cx="759.507" cy="159" rx="15.5" ry="2" fill="#C12135"/>
<ellipse cx="759.507" cy="165.5" rx="15.5" ry="4.5" fill="#C12135"/>
<rect x="754.007" y="168" width="12" height="24" fill="#C12135"/>
<rect x="725.007" y="191" width="70" height="23" fill="#C12135"/>
<path d="M725.007 214L719.811 190.75L730.203 190.75L725.007 214Z" fill="#C12135"/>
<path d="M795.007 214L789.811 190.75L800.203 190.75L795.007 214Z" fill="#C12135"/>
<ellipse cx="760.007" cy="190.5" rx="40" ry="3.5" fill="#C12135"/>
<path d="M759.007 214L856.868 241H661.146L759.007 214Z" fill="#C12135"/>
<ellipse cx="759.507" cy="246" rx="99.5" ry="35" fill="#C12135"/>
<ellipse cx="660.507" cy="249" rx="15.5" ry="5" fill="#C12135"/>
<ellipse cx="859.507" cy="249" rx="15.5" ry="5" fill="#C12135"/>
<ellipse cx="813.507" cy="260" rx="56.5" ry="5" fill="#C12135"/>
<ellipse cx="707.507" cy="260" rx="56.5" ry="5" fill="#C12135"/>
<ellipse cx="759.507" cy="372" rx="52.5" ry="5" fill="#C12135"/>
<rect x="726" y="317" width="69" height="276" fill="#C12135"/>
<ellipse cx="759.507" cy="43" rx="2.5" ry="1" fill="#C12135"/>
</g>
<defs>
<clipPath id="clip0_1_2">
<rect width="1520" height="439" fill="white"/>
</clipPath>
</defs>
</svg>
