<svg width="25" height="25" viewBox="0 0 25 25" fill="none" xmlns="http://www.w3.org/2000/svg">
<g clip-path="url(#clip0_1_2)">
<rect width="25" height="25" fill="black"/>
<path d="M11.634 1.5C12.0189 0.833335 12.9811 0.833335 13.366 1.5L21.5933 15.75C21.9782 16.4167 21.497 17.25 20.7272 17.25L4.27276 17.25C3.50295 17.25 3.02183 16.4167 3.40673 15.75L11.634 1.5Z" fill="white"/>
<path d="M11.634 6.72728C12.0189 6.06061 12.9811 6.06061 13.366 6.72728L21.5933 20.9773C21.9782 21.644 21.497 22.4773 20.7272 22.4773L4.27276 22.4773C3.50295 22.4773 3.02183 21.6439 3.40673 20.9773L11.634 6.72728Z" fill="black" fill-opacity="0.6"/>
<path d="M11.634 8.5C12.0189 7.83333 12.9811 7.83334 13.366 8.5L21.5933 22.75C21.9782 23.4167 21.497 24.25 20.7272 24.25L4.27276 24.25C3.50295 24.25 3.02183 23.4167 3.40673 22.75L11.634 8.5Z" fill="white"/>
</g>
<defs>
<clipPath id="clip0_1_2">
<rect width="25" height="25" fill="white"/>
</clipPath>
</defs>
</svg>
