<svg width="50" height="50" viewBox="0 0 50 50" fill="none" xmlns="http://www.w3.org/2000/svg">
<circle cx="25" cy="25" r="19.698" fill="#F42525"/>
<path d="M16.1406 4.63245L19.1025 7.05233C27.8521 14.2008 34.4819 23.6043 38.2757 34.2467L42.3137 45.5741L41.7504 46.0014L36.966 33.5038C33.2706 23.8509 27.4233 15.1674 19.8686 8.11333L16.1406 4.63245Z" fill="white"/>
<path d="M41.2733 20.766L41.5939 22.4741L41.6234 22.893C41.6995 23.97 41.5508 25.051 41.1869 26.0675L40.7602 27.2593C39.1169 31.8492 38.8921 36.8272 40.1152 41.5465L40.4258 41.6742C39.2428 36.7124 39.5016 31.516 41.1716 26.6964L41.2803 26.3828C41.9108 24.5632 41.9083 22.584 41.2733 20.766Z" fill="white"/>
<path d="M25.1959 26.8514L25.2089 26.866C25.9105 27.6558 26.702 28.3606 27.5675 28.9662C27.6824 29.0465 27.8053 29.1147 27.9342 29.1696L29.2106 29.7127C33.3505 31.4744 36.87 34.4323 39.3179 38.2073L39.0458 38.3401C36.4886 34.6197 32.9091 31.645 28.796 29.7839C27.7222 29.298 26.7478 28.5869 25.9622 27.7083L25.1959 26.8514Z" fill="white"/>
<path d="M15.6305 37.0381C16.0577 37.4821 16.5423 37.867 17.0714 38.1826L17.0908 38.1942C17.1582 38.2343 17.2298 38.2669 17.3043 38.2912L18.408 38.6513C20.8384 39.4442 22.9309 41.0328 24.3478 43.1607L24.1633 43.253C22.6711 41.1604 20.5696 39.5793 18.1455 38.7252L17.8273 38.613C17.1582 38.3773 16.553 37.9895 16.0592 37.4803L15.6305 37.0381Z" fill="white"/>
<path d="M14.7894 2.81167L18.6093 4.35296C20.2958 5.03344 21.155 6.9145 20.5652 8.63475C18.7285 9.1159 16.8241 8.13699 16.1465 6.36338L14.7894 2.81167Z" fill="white"/>
<path d="M15.7424 10.9462L18.8105 9.49986C20.1651 8.86132 21.7824 9.39425 22.4921 10.7129C21.7555 12.092 20.0987 12.6953 18.6478 12.1127L15.7424 10.9462Z" fill="white"/>
<path d="M22.5822 3.5994L24.0285 6.66751C24.667 8.02206 24.1341 9.63945 22.8154 10.3491C21.4363 9.6125 20.833 7.95572 21.4156 6.50484L22.5822 3.5994Z" fill="white"/>
<path d="M18.8713 14.0609L22.1841 12.7828C23.6467 12.2186 25.2952 12.8973 25.9364 14.3278C25.063 15.712 23.2875 16.2166 21.8167 15.4987L18.8713 14.0609Z" fill="white"/>
<path d="M26.5684 6.90731L27.8465 10.2201C28.4107 11.6827 27.732 13.3312 26.3015 13.9724C24.9172 13.099 24.4126 11.3235 25.1306 9.85269L26.5684 6.90731Z" fill="white"/>
<path d="M21.5508 18.1187L25.2925 16.8365C26.9445 16.2704 28.7506 17.0958 29.4037 18.7153C28.3729 20.2191 26.3752 20.7055 24.7684 19.844L21.5508 18.1187Z" fill="white"/>
<path d="M30.4217 10.4822L31.704 14.2239C32.2701 15.8759 31.4447 17.682 29.8252 18.3351C28.3214 17.3043 27.835 15.3066 28.6965 13.6998L30.4217 10.4822Z" fill="white"/>
<path d="M24.2045 21.8862L28.1693 20.7954C29.9197 20.3139 31.7409 21.2861 32.3149 23.0084C31.1489 24.5027 29.0448 24.8795 27.4327 23.8826L24.2045 21.8862Z" fill="white"/>
<path d="M33.8987 14.5305L34.9895 18.4953C35.4711 20.2457 34.4989 22.067 32.7766 22.6409C31.2822 21.4749 30.9055 19.3708 31.9024 17.7587L33.8987 14.5305Z" fill="white"/>
<path d="M26.6931 25.9821L30.7316 25.2075C32.5145 24.8655 34.2534 25.9783 34.6897 27.7405C33.4095 29.1382 31.2822 29.3478 29.7538 28.2269L26.6931 25.9821Z" fill="white"/>
<path d="M36.9374 19.414L37.712 23.4525C38.054 25.2354 36.9412 26.9743 35.1789 27.4106C33.7812 26.1304 33.5716 24.0031 34.6926 22.4747L36.9374 19.414Z" fill="white"/>
<path d="M7.96058 18.5677C15.1881 24.4727 20.6647 32.2404 23.7986 41.0315L25.6609 46.2556L25.2799 46.5446L23.2775 41.314C19.9669 32.6664 14.7286 24.8872 7.96058 18.5677Z" fill="white"/>
<path d="M24.9573 29.4784L25.174 30.6336L25.194 30.9169C25.2454 31.6452 25.1449 32.3763 24.8988 33.0637L24.6102 33.8697C23.4989 36.9738 23.3469 40.3403 24.174 43.5318L24.3841 43.6182C23.5841 40.2626 23.7591 36.7484 24.8885 33.489L24.962 33.277C25.3884 32.0464 25.3867 30.7079 24.9573 29.4784Z" fill="white"/>
<path d="M7.04679 17.3363L9.63011 18.3787C10.7706 18.8388 11.3517 20.111 10.9528 21.2743C9.71069 21.5997 8.42282 20.9377 7.96453 19.7383L7.04679 17.3363Z" fill="white"/>
<path d="M7.69125 22.8375L9.76615 21.8594C10.6822 21.4276 11.776 21.788 12.2559 22.6798C11.7578 23.6124 10.6373 24.0204 9.65614 23.6264L7.69125 22.8375Z" fill="white"/>
<path d="M12.2269 18.0291L13.205 20.104C13.6368 21.0201 13.2764 22.1139 12.3846 22.5938C11.452 22.0957 11.044 20.9752 11.438 19.994L12.2269 18.0291Z" fill="white"/>
<path d="M9.80727 24.9439L12.0477 24.0796C13.0368 23.698 14.1516 24.157 14.5852 25.1244C13.9946 26.0605 12.7939 26.4018 11.7992 25.9163L9.80727 24.9439Z" fill="white"/>
<path d="M14.6441 20.4652L15.5084 22.7056C15.89 23.6947 15.431 24.8095 14.4636 25.2431C13.5274 24.6525 13.1862 23.4518 13.6717 22.4571L14.6441 20.4652Z" fill="white"/>
<path d="M11.6193 27.6882L14.1498 26.821C15.267 26.4381 16.4884 26.9963 16.9301 28.0916C16.233 29.1086 14.882 29.4375 13.7953 28.8549L11.6193 27.6882Z" fill="white"/>
<path d="M17.0493 23.0042L17.9165 25.5347C18.2993 26.6519 17.7412 27.8733 16.6459 28.315C15.6289 27.6179 15.3 26.2669 15.8826 25.1802L17.0493 23.0042Z" fill="white"/>
<path d="M13.414 30.236L16.0953 29.4983C17.2791 29.1727 18.5107 29.8301 18.8989 30.9949C18.1103 32.0055 16.6874 32.2603 15.5972 31.5861L13.414 30.236Z" fill="white"/>
<path d="M19.4774 25.5743L20.2151 28.2556C20.5408 29.4393 19.8833 30.671 18.7185 31.0592C17.7079 30.2706 17.4531 28.8477 18.1273 27.7575L19.4774 25.5743Z" fill="white"/>
<path d="M15.097 33.006L17.8281 32.4821C19.0339 32.2508 20.2098 33.0034 20.5049 34.1952C19.6391 35.1404 18.2005 35.2821 17.1669 34.5241L15.097 33.006Z" fill="white"/>
<path d="M21.8703 28.7102L22.3941 31.4413C22.6254 32.6471 21.8728 33.8231 20.6811 34.1181C19.7358 33.2523 19.5941 31.8137 20.3522 30.7801L21.8703 28.7102Z" fill="white"/>
</svg>
