<svg width="150" height="150" viewBox="0 0 150 150" fill="none" xmlns="http://www.w3.org/2000/svg">
<g clip-path="url(#clip0_1_94)">
<path d="M109.889 31.0179C117.62 36.8074 120.928 47.1824 119.843 59.463C118.76 71.7295 113.294 85.7648 103.661 98.6276C94.0287 111.491 82.0991 120.686 70.6334 125.177C59.1539 129.674 48.2675 129.419 40.5364 123.629C32.8051 117.84 29.4967 107.465 30.5815 95.1844C31.6645 82.9177 37.1313 68.8825 46.7635 56.0196C56.3961 43.1565 68.3257 33.9613 79.7915 29.4699C91.2704 24.9734 102.157 25.2284 109.889 31.0179Z" stroke="#FFF500" stroke-width="3"/>
<path d="M104.851 31.3653C111.932 36.6677 114.754 46.3371 113.522 57.7554C112.291 69.1672 107.01 82.2735 97.9602 94.3586C88.9107 106.443 77.8196 115.199 67.2158 119.591C56.6058 123.987 46.5325 124 39.452 118.697C32.3711 113.395 29.5485 103.725 30.7806 92.3068C32.012 80.8954 37.2919 67.7891 46.3419 55.704C55.3918 43.619 66.4825 34.864 77.0867 30.4709C87.6967 26.0753 97.7695 26.0628 104.851 31.3653Z" stroke="#FFF500"/>
<path d="M102.496 33.4454C108.647 38.0508 111.011 46.768 109.606 57.3903C108.204 67.9839 103.063 80.2853 94.478 91.7505C85.8922 103.215 75.5347 111.61 65.7634 115.937C55.9659 120.274 46.9358 120.458 40.7855 115.853C34.6355 111.247 32.2708 102.53 33.6759 91.9082C35.0775 81.3143 40.2186 69.0128 48.8044 57.5478C57.3897 46.0829 67.7476 37.6876 77.5185 33.3617C87.316 29.0239 96.3465 28.8399 102.496 33.4454Z" stroke="#FFF500" stroke-width="3"/>
<path d="M95.1731 46.4149C99.4255 49.5988 100.906 55.7461 99.7641 63.2062C98.624 70.6539 94.8754 79.3375 88.7768 87.4816C82.6786 95.6251 75.4002 101.666 68.5749 104.856C61.7372 108.051 55.4219 108.36 51.1699 105.176C46.918 101.992 45.4369 95.8447 46.5794 88.3845C47.7195 80.9368 51.468 72.253 57.5662 64.1093C63.6649 55.9655 70.9428 49.9247 77.7687 46.7347C84.6057 43.5395 90.9212 43.2307 95.1731 46.4149Z" stroke="#FFF500"/>
<path d="M94.3453 43.2672C98.9476 46.7137 100.762 53.2404 99.7238 61.2539C98.6893 69.2395 94.8302 78.519 88.3552 87.1658C81.8806 95.812 74.0621 102.126 66.6899 105.367C59.2926 108.618 52.5186 108.713 47.9164 105.267C43.3141 101.821 41.4996 95.2938 42.5378 87.2802C43.5722 79.2945 47.4314 70.015 53.9064 61.3684C60.381 52.7219 68.1995 46.4077 75.5717 43.1674C82.9692 39.9161 89.743 39.8207 94.3453 43.2672Z" stroke="#FFF500" stroke-width="3"/>
</g>
<defs>
<clipPath id="clip0_1_94">
<rect width="150" height="150" fill="white"/>
</clipPath>
</defs>
</svg>
